<?xml version="1.0" standalone="no"?>
<!DOCTYPE svg PUBLIC "-//W3C//DTD SVG 20010904//EN"
 "http://www.w3.org/TR/2001/REC-SVG-20010904/DTD/svg10.dtd">
<svg version="1.0" xmlns="http://www.w3.org/2000/svg"
 width="512.000000pt" height="512.000000pt" viewBox="0 0 512.000000 512.000000"
 preserveAspectRatio="xMidYMid meet">

<g transform="translate(0.000000,512.000000) scale(0.100000,-0.100000)"
fill="#000000" stroke="none">
<path d="M1179 3387 c-66 -35 -102 -93 -107 -172 -3 -50 0 -73 17 -107 14 -30
218 -240 688 -709 538 -536 676 -669 707 -679 60 -19 147 -9 193 23 21 14 333
322 694 684 528 529 659 666 669 697 7 21 10 65 8 97 -10 142 -160 230 -296
174 -26 -11 -215 -193 -614 -593 l-578 -577 -577 577 c-400 400 -589 582 -615
593 -56 23 -136 19 -189 -8z"/>
</g>
</svg>
