<?xml version="1.0" standalone="no"?>
<!DOCTYPE svg PUBLIC "-//W3C//DTD SVG 20010904//EN"
 "http://www.w3.org/TR/2001/REC-SVG-20010904/DTD/svg10.dtd">
<svg version="1.0" xmlns="http://www.w3.org/2000/svg"
 width="512.000000pt" height="512.000000pt" viewBox="0 0 512.000000 512.000000"
 preserveAspectRatio="xMidYMid meet">

<g transform="translate(0.000000,512.000000) scale(0.100000,-0.100000)"
fill="#000000" stroke="none">
<path d="M2045 4673 c-164 -86 -166 -300 -3 -384 35 -18 64 -19 515 -19 444 0
481 2 518 19 164 76 166 298 3 382 -35 18 -64 19 -520 19 -420 -1 -487 -3
-513 -17z"/>
<path d="M539 4027 c-24 -13 -57 -43 -74 -66 -27 -39 -30 -50 -30 -120 0 -68
3 -82 27 -117 15 -21 44 -50 65 -64 36 -25 40 -25 287 -30 l251 -5 5 -1350 5
-1350 26 -67 c76 -196 226 -341 414 -401 l70 -22 975 0 975 0 70 22 c192 61
351 218 418 413 l22 65 5 1345 5 1345 251 5 c247 5 251 5 287 30 21 14 50 43
65 64 24 35 27 49 27 116 0 67 -3 81 -27 116 -15 21 -44 50 -65 64 l-37 25
-1986 3 -1987 2 -44 -23z m1649 -1049 c64 -16 134 -86 150 -150 17 -66 17
-1110 0 -1176 -16 -66 -87 -135 -154 -151 -98 -24 -193 20 -238 110 l-26 53 0
576 0 576 26 53 c28 56 79 98 136 111 47 11 54 11 106 -2z m912 -26 c31 -19
52 -43 72 -81 l28 -53 0 -577 0 -577 -26 -53 c-45 -90 -140 -134 -238 -110
-67 16 -138 85 -154 151 -9 33 -12 207 -12 591 0 624 -1 618 76 685 76 68 167
76 254 24z"/>
</g>
</svg>
