<?xml version="1.0" standalone="no"?>
<!DOCTYPE svg PUBLIC "-//W3C//DTD SVG 20010904//EN"
 "http://www.w3.org/TR/2001/REC-SVG-20010904/DTD/svg10.dtd">
<svg version="1.0" xmlns="http://www.w3.org/2000/svg"
 width="512.000000pt" height="512.000000pt" viewBox="0 0 512.000000 512.000000"
 preserveAspectRatio="xMidYMid meet">

<g transform="translate(0.000000,512.000000) scale(0.100000,-0.100000)"
fill="#000000" stroke="none">
<path d="M2285 3999 c-628 -65 -1215 -344 -1667 -792 -168 -167 -347 -398
-430 -555 -51 -97 -41 -131 102 -341 338 -499 853 -884 1430 -1070 313 -100
578 -137 920 -128 342 9 611 64 921 186 373 146 682 353 970 648 131 134 212
233 311 381 131 196 140 228 88 327 -79 151 -259 383 -426 550 -450 450 -1045
731 -1683 795 -119 12 -419 11 -536 -1z m510 -468 c366 -91 645 -371 738 -741
29 -115 30 -329 3 -445 -102 -445 -475 -758 -931 -782 -348 -18 -688 156 -879
449 -66 102 -109 199 -139 318 -30 121 -30 339 0 460 64 254 215 467 429 606
125 82 237 124 424 158 58 11 278 -3 355 -23z"/>
<path d="M2415 3224 c-146 -31 -302 -130 -391 -247 -123 -162 -168 -360 -128
-555 81 -393 486 -630 869 -508 389 124 582 563 411 931 -135 288 -449 445
-761 379z"/>
</g>
</svg>
