<svg version="1.2" xmlns="http://www.w3.org/2000/svg" viewBox="0 0 368 368" width="301" height="301"><style>.a{fill:#1d1d1b}.b{fill:#c69}</style><path fill-rule="evenodd" class="a" d="m360.5 184.3c0 23.7-4.6 46.8-13.8 68.5-8.9 21-21.6 39.9-37.8 56.1-16.2 16.1-35 28.8-56 37.7-21.7 9.2-44.7 13.8-68.4 13.9h-0.4c-23.7-0.1-46.7-4.7-68.4-13.9-21-8.9-39.8-21.6-56-37.7-16.2-16.2-28.9-35.1-37.8-56.1-9.1-21.7-13.8-44.8-13.8-68.5 0-23.8 4.7-46.9 13.8-68.6q4.8-11.3 11-21.7 0.4-0.6 0.7-1.2c30.8-51 86.6-85.2 150.5-85.3h0.4c63.9 0.1 119.8 34.3 150.5 85.3q0.4 0.6 0.7 1.2 6.2 10.4 11 21.7c9.2 21.7 13.8 44.8 13.8 68.5zm-67.5 68.9c12.7-19.9 20-43.5 20-68.9q0-1 0-2 0-0.6 0-1.1-0.1-0.5-0.1-1 0-1-0.1-2.1 0-1-0.1-2-0.1-1.6-0.2-3.1 0-0.1 0-0.2-0.1-1-0.2-2-0.1-1.1-0.3-2.2 0-0.5-0.1-1 0-0.5-0.1-1 0-0.2-0.1-0.5-0.1-0.9-0.2-1.7-0.1-0.1-0.1-0.2-0.1-1-0.3-2.1-0.3-1.8-0.7-3.7-0.6-2.9-1.4-5.8-0.3-1.3-0.6-2.6-0.4-1.2-0.7-2.4-0.1-0.1-0.1-0.2-0.4-1.2-0.8-2.5-0.2-0.6-0.4-1.3-0.2-0.6-0.4-1.2-0.3-0.9-0.6-1.8-0.1-0.1-0.1-0.3-0.4-1-0.8-1.9-0.3-1-0.7-2-0.8-2-1.7-3.9-0.2-0.5-0.5-1.1-0.7-1.5-1.4-3-0.3-0.8-0.7-1.5-0.4-0.8-0.8-1.5 0-0.1-0.1-0.2-0.2-0.5-0.5-1.1-0.3-0.5-0.6-1-0.5-0.9-1-1.8-0.5-0.9-1.1-1.9-0.6-1-1.2-2.1-0.7-1-1.3-2.1-0.5-0.7-1-1.5-0.2-0.3-0.3-0.5-0.7-1-1.4-2-0.2-0.4-0.5-0.7-0.4-0.6-0.8-1.1-0.4-0.6-0.9-1.3-0.1-0.1-0.2-0.3-1-1.3-2-2.6-0.9-1.1-1.8-2.2-0.7-0.8-1.3-1.6-0.5-0.6-1-1.2-3.1-3.5-6.4-6.8-0.9-0.9-1.7-1.7-0.4-0.4-0.8-0.7-0.1-0.1-0.2-0.3-0.6-0.5-1.1-1-0.2-0.2-0.4-0.4-0.1-0.1-0.3-0.2-1.1-1-2.3-2-1.1-1-2.2-2-0.1 0-0.1 0-1.1-1-2.3-1.9-0.3-0.2-0.6-0.5-0.4-0.2-0.8-0.5-0.6-0.5-1.2-1-0.9-0.7-1.9-1.3 0-0.1-0.1-0.2-2.1-1.5-4.3-2.9-0.6-0.4-1.2-0.8-0.9-0.5-1.7-1.1-0.5-0.3-1.1-0.6-0.6-0.4-1.3-0.8-0.7-0.4-1.3-0.8-1-0.6-2-1.1-1.3-0.7-2.6-1.4-0.5-0.2-0.9-0.5-0.9-0.4-1.8-0.8 0-0.1 0-0.1-1.4-0.6-2.7-1.2-1.4-0.7-2.8-1.3-0.6-0.3-1.3-0.6-0.7-0.2-1.3-0.5-0.1 0-0.2-0.1-1.4-0.5-2.8-1.1 0 0 0 0-1.4-0.5-2.9-1-1.4-0.5-2.9-1-1.5-0.5-3-1-1.1-0.3-2.2-0.6-0.5-0.1-1-0.3-0.7-0.2-1.4-0.3-1-0.3-2.1-0.6-1-0.2-2.1-0.5-0.2 0-0.3 0-0.9-0.2-1.7-0.4-0.8-0.1-1.5-0.3-0.9-0.2-1.7-0.3-1.2-0.2-2.5-0.4-0.7-0.1-1.4-0.2-1.2-0.2-2.4-0.4-0.6 0-1.2-0.1-2.1-0.3-4.3-0.5-0.6 0-1.2 0-1.2-0.1-2.4-0.2-1.2-0.1-2.4-0.1-1.2-0.1-2.4-0.1-1 0-1.9 0h-1.6q-0.9 0-1.8 0-1.3 0-2.5 0.1-1.2 0-2.4 0.1-1.2 0.1-2.4 0.2-0.6 0-1.2 0-2.1 0.2-4.2 0.5-0.7 0.1-1.3 0.1-1.2 0.2-2.4 0.4-0.7 0.1-1.4 0.2-1.2 0.2-2.5 0.4-0.8 0.1-1.6 0.3-0.8 0.2-1.6 0.3-0.8 0.2-1.6 0.4-0.2 0-0.4 0-1.1 0.3-2.1 0.5-1.1 0.3-2.1 0.6-0.7 0.1-1.4 0.3-0.5 0.2-1 0.3-1.1 0.3-2.2 0.6-1.5 0.5-3 1-1.5 0.5-2.9 1-1.5 0.5-2.9 1 0 0 0 0-1.4 0.6-2.8 1.1-0.1 0.1-0.1 0.1-0.7 0.3-1.4 0.5-0.6 0.3-1.3 0.6-1.4 0.6-2.8 1.3-1.3 0.6-2.6 1.2-0.1 0-0.1 0.1-0.9 0.4-1.8 0.8-0.4 0.3-0.9 0.5-1.3 0.7-2.5 1.4-1 0.5-2 1.1-0.7 0.4-1.4 0.8-0.6 0.4-1.3 0.8-0.5 0.3-1.1 0.6-0.8 0.6-1.6 1.1-0.6 0.4-1.2 0.8-2.2 1.4-4.4 2.9 0 0.1-0.1 0.2-1 0.6-1.9 1.3-0.6 0.5-1.2 1-0.4 0.3-0.8 0.5-0.3 0.3-0.6 0.5-1.1 0.9-2.2 1.9-0.1 0-0.1 0-1.2 1-2.3 2-1.2 1-2.3 2-0.1 0.1-0.3 0.2-0.2 0.2-0.3 0.4-0.6 0.5-1.2 1-0.1 0.2-0.2 0.3-0.4 0.3-0.7 0.7-0.9 0.8-1.8 1.7-3.3 3.3-6.3 6.8-0.6 0.6-1 1.2-0.7 0.8-1.4 1.6-0.9 1.1-1.8 2.2-1 1.3-1.9 2.6-0.2 0.2-0.3 0.3-0.4 0.7-0.9 1.3-0.4 0.5-0.8 1.1-0.2 0.3-0.5 0.7-0.7 1-1.3 2-0.2 0.2-0.3 0.5-0.6 0.8-1.1 1.5-0.6 1.1-1.2 2.1-0.7 1.1-1.3 2.1-0.6 1-1.1 1.9-0.5 0.9-1 1.8-0.3 0.5-0.5 1-0.3 0.6-0.6 1.1-0.1 0.1-0.1 0.2-0.4 0.7-0.8 1.5-0.3 0.7-0.7 1.5-0.7 1.5-1.4 3-0.3 0.6-0.5 1.1-0.8 1.9-1.6 3.9-0.4 1-0.8 2-0.4 0.9-0.7 1.9-0.1 0.2-0.1 0.3-0.4 0.9-0.7 1.8-0.2 0.6-0.4 1.2-0.2 0.7-0.4 1.3-0.4 1.3-0.8 2.5 0 0.1 0 0.2-0.4 1.2-0.7 2.4-0.4 1.3-0.7 2.6-0.8 2.9-1.4 5.8-0.3 1.9-0.7 3.7-0.1 1.1-0.3 2.1 0 0.1 0 0.2-0.2 0.8-0.3 1.7 0 0.3-0.1 0.5 0 0.5-0.1 1l-0.1 1q-0.1 1.1-0.3 2.2-0.1 1-0.2 2 0 0.1 0 0.2-0.1 1.5-0.2 3.1-0.1 1-0.1 2-0.1 1.1-0.1 2.1 0 0.5 0 1 0 0.5 0 1.1-0.1 1-0.1 2.1c0 25.3 7.4 48.9 20 68.8 3.3 5.3 7.1 10.3 11.2 15.1 12 13.9 26.9 25.2 43.8 33q7.4 3.4 15.4 5.9 1.7 0.6 3.5 1.1 0.2 0 0.4 0.1 1.2 0.3 2.4 0.6 1.5 0.4 2.9 0.7 1.2 0.3 2.3 0.5 1.2 0.3 2.4 0.5 1.2 0.2 2.4 0.4 2.4 0.5 4.8 0.8 1.2 0.1 2.4 0.3 1.2 0.1 2.4 0.2 1.3 0.2 2.5 0.2 0.9 0.1 1.9 0.2 1.1 0.1 2.3 0.1 0.7 0 1.5 0.1 0.7 0 1.5 0 0.8 0 1.5 0h0.6q0.2 0 0.4 0h0.4q0.2 0 0.5 0h0.5q0.8 0 1.5 0 0.8 0 1.5 0 0.8-0.1 1.6-0.1 1.1 0 2.3-0.1 0.9-0.1 1.8-0.2 1.3 0 2.5-0.2 1.2-0.1 2.4-0.2 1.2-0.2 2.4-0.3 2.5-0.3 4.9-0.8 1.1-0.2 2.3-0.4 1.2-0.2 2.4-0.5 1.2-0.2 2.3-0.5 1.5-0.3 2.9-0.7 1.2-0.3 2.4-0.6 0.2-0.1 0.4-0.1 1.8-0.5 3.6-1.1 7.9-2.5 15.3-5.9c16.9-7.8 31.9-19.1 43.9-33 4-4.8 7.8-9.8 11.1-15.1z"/><path fill-rule="evenodd" class="a" d="m305.8 184.3c0 23.9-6.9 46.2-18.8 64.9-3.2 5.1-6.7 9.8-10.6 14.3-11.3 13.1-25.4 23.8-41.4 31.2q-7 3.2-14.5 5.6-1.6 0.5-3.3 1-0.2 0-0.4 0-1.1 0.4-2.3 0.7-1.3 0.3-2.7 0.6-1.1 0.3-2.2 0.5-1.1 0.2-2.2 0.5-1.2 0.2-2.3 0.4-2.2 0.4-4.5 0.7-1.2 0.1-2.3 0.3-1.2 0.1-2.3 0.2-1.2 0.1-2.3 0.2-0.9 0.1-1.8 0.1-1.1 0.1-2.1 0.1-0.8 0.1-1.5 0.1-0.7 0-1.4 0-0.7 0-1.5 0h-0.5q-0.2 0-0.4 0h-0.4q-0.2 0-0.4 0h-0.5q-0.7 0-1.4 0-0.8 0-1.5 0-0.7-0.1-1.4-0.1-1.1 0-2.2-0.1-0.9 0-1.8-0.1-1.1-0.1-2.3-0.2-1.1-0.1-2.3-0.2-1.1-0.2-2.3-0.3-2.3-0.3-4.5-0.7-1.1-0.2-2.2-0.4-1.2-0.3-2.3-0.5-1.1-0.2-2.2-0.5-1.3-0.3-2.7-0.6-1.1-0.3-2.3-0.7-0.2 0-0.3 0-1.7-0.5-3.4-1-7.5-2.4-14.5-5.6c-16-7.4-30.1-18.1-41.4-31.2-3.8-4.5-7.4-9.2-10.5-14.2-12-18.8-18.9-41.1-18.9-65q0-1 0-2 0-0.5 0.1-1 0-0.5 0-1 0-0.9 0.1-1.9 0-1 0.1-1.9 0.1-1.5 0.2-3 0-0.1 0-0.1 0.1-1 0.2-2 0.1-1 0.2-2 0.1-0.5 0.1-0.9 0.1-0.5 0.2-1 0-0.2 0-0.5 0.2-0.8 0.3-1.6 0-0.1 0-0.1 0.2-1 0.3-2 0.3-1.8 0.7-3.5 0.6-2.8 1.3-5.5 0.3-1.3 0.6-2.5 0.3-1.1 0.6-2.3 0.1 0 0.1-0.1 0.4-1.2 0.7-2.4 0.2-0.6 0.4-1.2 0.2-0.6 0.4-1.2 0.3-0.8 0.6-1.6 0.1-0.2 0.1-0.3 0.4-1 0.7-1.9 0.4-0.9 0.7-1.8 0.8-1.9 1.6-3.7 0.2-0.5 0.5-1.1 0.6-1.4 1.3-2.8 0.3-0.7 0.7-1.4 0.3-0.7 0.7-1.4 0-0.1 0.1-0.2 0.3-0.5 0.5-1 0.3-0.5 0.6-1 0.4-0.8 0.9-1.6 0.5-1 1-1.9 0.6-1 1.2-1.9 0.6-1 1.2-2 0.5-0.7 1-1.5 0.1-0.2 0.3-0.4 0.6-1 1.3-1.9 0.2-0.4 0.4-0.7 0.4-0.5 0.8-1 0.4-0.6 0.8-1.2 0.1-0.2 0.2-0.3 1-1.3 1.9-2.5 0.9-1 1.7-2.1 0.6-0.7 1.3-1.5 0.4-0.5 0.9-1.1 2.9-3.3 6-6.5 0.8-0.8 1.6-1.6 0.4-0.3 0.7-0.6 0.1-0.1 0.2-0.2 0.6-0.5 1.1-1 0.2-0.2 0.4-0.4 0.1-0.1 0.2-0.2 1.1-1 2.2-1.9 1.1-0.9 2.2-1.8 0-0.1 0-0.1 1.1-0.9 2.2-1.7 0.2-0.2 0.6-0.5 0.3-0.3 0.7-0.5 0.5-0.5 1.1-0.9 0.9-0.7 1.8-1.3 0.1 0 0.1-0.1 2-1.4 4.1-2.8 0.6-0.4 1.1-0.7 0.8-0.6 1.6-1 0.5-0.3 1-0.7 0.6-0.3 1.3-0.7 0.6-0.4 1.2-0.7 1-0.6 1.9-1.1 1.2-0.7 2.4-1.3 0.5-0.2 0.9-0.5 0.8-0.4 1.7-0.8 0 0 0 0 1.3-0.6 2.6-1.2 1.3-0.6 2.6-1.2 0.6-0.3 1.2-0.5 0.7-0.3 1.3-0.6 0 0 0.1 0 1.3-0.5 2.6-1.1 0.1 0 0.1 0 1.3-0.5 2.7-1 1.3-0.4 2.7-0.9 1.4-0.4 2.9-0.9 1-0.3 2.1-0.6 0.4-0.1 0.9-0.2 0.6-0.2 1.3-0.4 1-0.2 2-0.5 1-0.2 2-0.4 0.1-0.1 0.3-0.1 0.8-0.2 1.6-0.3 0.7-0.2 1.4-0.3 0.8-0.2 1.6-0.3 1.2-0.2 2.4-0.4 0.6-0.1 1.3-0.2 1.1-0.2 2.3-0.3 0.5-0.1 1.1-0.2 2-0.2 4-0.4 0.6 0 1.2-0.1 1.1-0.1 2.2-0.1 1.2-0.1 2.3-0.2 1.1 0 2.3 0 0.9 0 1.8 0h1.5q0.8 0 1.7 0 1.2 0 2.3 0 1.2 0.1 2.3 0.2 1.1 0 2.3 0.1 0.5 0.1 1.1 0.1 2 0.2 4 0.4 0.6 0.1 1.2 0.2 1.1 0.1 2.3 0.3 0.6 0.1 1.2 0.2 1.3 0.2 2.4 0.4 0.8 0.1 1.6 0.3 0.7 0.1 1.5 0.3 0.7 0.1 1.5 0.3 0.2 0 0.4 0.1 1 0.2 2 0.4 0.9 0.3 1.9 0.5 0.7 0.2 1.3 0.4 0.5 0.1 0.9 0.2 1.1 0.3 2.2 0.6 1.4 0.5 2.8 0.9 1.4 0.5 2.7 0.9 1.4 0.5 2.7 1 0.1 0 0.1 0 1.3 0.6 2.6 1.1 0.1 0 0.1 0 0.7 0.3 1.3 0.6 0.6 0.2 1.3 0.5 1.3 0.6 2.6 1.2 1.2 0.6 2.5 1.2 0 0 0.1 0 0.8 0.4 1.6 0.8 0.4 0.3 0.9 0.5 1.2 0.6 2.4 1.3 1 0.5 1.9 1.1 0.6 0.3 1.3 0.7 0.6 0.4 1.2 0.7 0.5 0.4 1 0.7 0.8 0.4 1.6 1 0.6 0.3 1.1 0.7 2.1 1.4 4.1 2.8 0.1 0.1 0.1 0.1 0.9 0.6 1.8 1.3 0.6 0.4 1.2 0.9 0.3 0.2 0.7 0.5 0.3 0.3 0.6 0.5 1 0.8 2.1 1.7 0 0 0.1 0.1 1.1 0.9 2.1 1.8 1.1 0.9 2.2 1.9 0.1 0.1 0.2 0.2 0.2 0.2 0.4 0.4 0.5 0.5 1.1 1 0.1 0.1 0.2 0.2 0.4 0.3 0.7 0.6 0.8 0.8 1.6 1.6 3.1 3.2 6 6.5 0.5 0.6 1 1.1 0.6 0.8 1.2 1.5 0.9 1.1 1.7 2.1 1 1.2 1.9 2.5 0.1 0.1 0.2 0.3 0.4 0.6 0.9 1.2 0.4 0.5 0.7 1 0.2 0.3 0.5 0.7 0.6 0.9 1.3 1.9 0.1 0.2 0.3 0.4 0.4 0.8 0.9 1.5 0.6 1 1.2 2 0.6 0.9 1.2 1.9 0.6 0.9 1.1 1.9 0.4 0.8 0.9 1.6 0.2 0.5 0.5 1 0.3 0.5 0.5 1 0.1 0.1 0.1 0.2 0.4 0.7 0.7 1.4 0.4 0.7 0.7 1.4 0.7 1.4 1.4 2.8 0.2 0.6 0.5 1.1 0.7 1.8 1.5 3.7 0.4 0.9 0.7 1.8 0.4 0.9 0.7 1.9 0.1 0.1 0.1 0.3 0.3 0.8 0.6 1.6 0.2 0.6 0.4 1.2 0.2 0.6 0.4 1.2 0.4 1.2 0.7 2.4 0 0.1 0.1 0.1 0.3 1.2 0.6 2.3 0.4 1.2 0.7 2.5 0.7 2.7 1.2 5.5 0.4 1.7 0.7 3.5 0.2 1 0.3 2 0 0 0.1 0.1 0.1 0.8 0.2 1.6 0 0.3 0.1 0.5 0 0.5 0.1 1 0 0.4 0.1 0.9 0.1 1 0.2 2 0.1 1 0.2 2 0 0 0 0.1 0.2 1.5 0.3 3 0 0.9 0.1 1.9 0 1 0 1.9 0.1 0.5 0.1 1 0 0.5 0 1 0 1 0 1.9zm-48.6 41.3l9.7-10.3 19.6 20.7q0-0.1 0.1-0.2 0.4-0.7 0.8-1.5 0.3-0.8 0.7-1.6 0.1-0.3 0.2-0.5 0.3-0.7 0.6-1.3 0.1-0.2 0.2-0.3 0.3-0.9 0.7-1.7c5.9-14.1 9-29.1 9-44.6 0-15.4-3.1-30.4-9-44.5-5.8-13.6-14-25.9-24.5-36.4-10.6-10.5-22.8-18.8-36.4-24.5q-1-0.4-2.1-0.8-0.6-0.3-1.2-0.5-1-0.4-2-0.8-0.1 0-0.1 0-0.9-0.4-1.8-0.7-0.4-0.1-0.8-0.3-1.4-0.4-2.7-0.8-1.2-0.4-2.3-0.7-0.6-0.2-1.3-0.4-0.6-0.1-1.3-0.3-0.5-0.2-1-0.3-1.2-0.3-2.4-0.6-1.2-0.2-2.4-0.5-0.5-0.1-0.9-0.2-0.7-0.1-1.4-0.2-0.5-0.1-1.1-0.2-1-0.2-2-0.3-0.4-0.1-0.9-0.2-1.3-0.2-2.6-0.3-0.9-0.2-1.9-0.2-0.1-0.1-0.2-0.1-1-0.1-1.9-0.2-0.8 0-1.6-0.1-1.4-0.1-2.7-0.2-0.4 0-0.9 0-1.1-0.1-2.2-0.1-1.3 0-2.7 0h-0.4c-15.4 0-30.3 3-44.3 9-13.7 5.7-25.9 14-36.4 24.5-10.5 10.5-18.8 22.8-24.6 36.4-5.9 14.1-9 29.1-9 44.5 0 15.5 3.1 30.5 9 44.6q0.4 0.8 0.8 1.7 0 0.1 0.1 0.3 0.3 0.6 0.6 1.3 0.1 0.2 0.2 0.5 0.4 0.8 0.8 1.6 0.4 0.8 0.8 1.5 0 0.1 0 0.2l19.6-20.7 9.8 10.3-10 10.4-12.5 12.5c0 0 6.6 9.1 12.5 14.8 0.5 0.6 1.3 1.4 1.9 2 8.9 8.9 19 16.2 30.2 21.7v-185.8h34v33.4h33.4v-33.4h34v185.8c11.2-5.5 21.4-12.8 30.3-21.7 0.5-0.6 1.3-1.4 1.9-2 5.8-5.7 12.5-14.8 12.5-14.8l-12.5-12.5zm-61.7-53.5q0-0.5-0.1-0.9 0-0.1 0-0.2 0-0.1 0-0.1 0-0.3-0.1-0.5 0-0.3-0.1-0.6 0-0.4-0.2-0.8 0-0.2-0.1-0.5-0.1-0.4-0.3-0.7-0.1-0.2-0.2-0.4-0.1-0.3-0.3-0.6-0.1-0.3-0.2-0.5-0.2-0.2-0.3-0.4-0.2-0.3-0.4-0.5-0.1-0.2-0.3-0.4-0.2-0.3-0.4-0.5-0.3-0.3-0.5-0.5-0.5-0.4-1-0.8-0.2-0.2-0.5-0.4-0.2-0.1-0.4-0.2-0.2-0.2-0.4-0.3-0.2-0.1-0.4-0.2-0.2-0.1-0.4-0.2 0 0 0 0-0.2-0.1-0.3-0.1-0.2-0.1-0.5-0.2-0.4-0.1-0.8-0.3-0.2 0-0.4-0.1-0.1 0-0.1 0 0 0-0.1 0-0.2 0-0.5-0.1-0.3 0-0.6-0.1-0.2 0-0.4 0-0.3 0-0.7 0-0.1-0.1-0.2-0.1-0.1 0-0.2 0.1-0.3 0-0.7 0-0.2 0-0.4 0-0.3 0.1-0.6 0.1-0.2 0.1-0.5 0.1 0 0 0 0-0.1 0-0.1 0-0.2 0.1-0.4 0.1-0.5 0.2-0.9 0.3-0.2 0.1-0.5 0.2-0.1 0-0.2 0.1-0.1 0-0.1 0-0.2 0.1-0.3 0.2-0.3 0.1-0.5 0.2-0.2 0.1-0.4 0.3-0.2 0.1-0.4 0.2-0.2 0.2-0.5 0.4-0.5 0.4-1 0.8-0.2 0.2-0.4 0.5-0.3 0.2-0.5 0.5-0.2 0.2-0.3 0.4-0.2 0.2-0.3 0.5-0.2 0.2-0.3 0.4-0.2 0.2-0.3 0.5-0.2 0.3-0.3 0.6-0.1 0.2-0.2 0.4-0.1 0.3-0.3 0.7 0 0.3-0.1 0.5-0.1 0.4-0.2 0.8-0.1 0.3-0.1 0.6-0.1 0.2-0.1 0.5 0 0 0 0.1 0 0.1 0 0.2 0 0.4 0 0.9v22.3h22.3z"/><path class="a" d="m128.1 225.1v16.9l-5.8-6.1-18.3 18v-14.5l9.9-10 9.2-9.2 5 4.9z"/><path class="a" d="m264.6 239.4v14.5l-18.3-18-5.8 6.1v-16.9l5-4.9 9.2 9.2 9.9 10z"/><path fill-rule="evenodd" class="b" d="m367.6 184.3c0 24.7-4.9 48.7-14.4 71.3-9.2 21.8-22.5 41.4-39.3 58.3-16.8 16.8-36.4 30-58.2 39.2-22.6 9.6-46.5 14.4-71.2 14.4h-0.4c-24.7 0-48.6-4.8-71.1-14.4-21.8-9.2-41.4-22.4-58.3-39.2-16.8-16.9-30-36.5-39.3-58.3-9.5-22.6-14.4-46.6-14.4-71.3 0-24.8 4.9-48.8 14.4-71.4q5-11.7 11.4-22.5 0.4-0.6 0.8-1.2c31.9-53.1 90.1-88.7 156.5-88.8h0.4c66.5 0.1 124.6 35.7 156.5 88.8q0.4 0.6 0.8 1.2c4.3 7.2 8.1 14.7 11.4 22.5 9.5 22.6 14.4 46.6 14.4 71.4zm-7.1 0c0-23.8-4.6-46.9-13.8-68.6q-4.8-11.3-11-21.7-0.3-0.6-0.7-1.2c-30.7-51-86.6-85.2-150.5-85.3h-0.4c-63.9 0.1-119.7 34.3-150.5 85.3q-0.3 0.6-0.7 1.2-6.2 10.4-11 21.7c-9.1 21.7-13.8 44.8-13.8 68.6 0 23.7 4.7 46.8 13.8 68.5 8.9 21 21.6 39.9 37.8 56.1 16.2 16.1 35 28.8 56 37.7 21.7 9.2 44.7 13.8 68.4 13.9h0.4c23.7-0.1 46.7-4.7 68.4-13.9 21-8.9 39.8-21.6 56-37.7 16.2-16.2 28.9-35.1 37.8-56.1 9.2-21.7 13.8-44.8 13.8-68.5z"/><path fill-rule="evenodd" class="b" d="m313 184.3c0 25.3-7.3 48.9-20 68.8-3.3 5.3-7.1 10.3-11.1 15.1-12 13.9-27 25.2-43.9 33q-7.4 3.4-15.3 5.9-1.8 0.6-3.6 1.1-0.2 0-0.4 0.1-1.2 0.3-2.4 0.6-1.4 0.4-2.9 0.7-1.1 0.3-2.3 0.5-1.2 0.3-2.4 0.5-1.2 0.2-2.3 0.4-2.4 0.5-4.9 0.8-1.2 0.1-2.4 0.3-1.2 0.1-2.4 0.2-1.2 0.2-2.5 0.2-0.9 0.1-1.8 0.2-1.2 0.1-2.3 0.1-0.8 0-1.6 0.1-0.7 0-1.5 0-0.7 0-1.5 0h-0.5q-0.3 0-0.5 0h-0.4q-0.2 0-0.4 0h-0.6q-0.7 0-1.5 0-0.8 0-1.5 0-0.8-0.1-1.5-0.1-1.2 0-2.3-0.1-1-0.1-1.9-0.2-1.2 0-2.5-0.2-1.2-0.1-2.4-0.2-1.2-0.2-2.4-0.3-2.4-0.3-4.8-0.8-1.2-0.2-2.4-0.4-1.2-0.2-2.4-0.5-1.1-0.2-2.3-0.5-1.4-0.3-2.9-0.7-1.2-0.3-2.4-0.6-0.2-0.1-0.4-0.1-1.8-0.5-3.5-1.1-8-2.5-15.4-5.9c-16.9-7.8-31.8-19.1-43.8-33-4.1-4.8-7.9-9.8-11.2-15.1-12.6-19.9-20-43.5-20-68.8q0-1.1 0.1-2.1 0-0.6 0-1.1 0-0.5 0-1 0-1 0.1-2.1 0-1 0.1-2 0.1-1.6 0.2-3.1 0-0.1 0-0.2 0.1-1 0.2-2 0.2-1.1 0.3-2.2l0.1-1q0.1-0.5 0.1-1 0.1-0.2 0.1-0.5 0.1-0.9 0.3-1.7 0-0.1 0-0.2 0.2-1 0.3-2.1 0.4-1.8 0.7-3.7 0.6-2.9 1.4-5.8 0.3-1.3 0.7-2.6 0.3-1.2 0.7-2.4 0-0.1 0-0.2 0.4-1.2 0.8-2.5 0.2-0.6 0.4-1.3 0.2-0.6 0.4-1.2 0.3-0.9 0.7-1.8 0-0.1 0.1-0.3 0.3-1 0.7-1.9 0.4-1 0.8-2 0.8-2 1.6-3.9 0.2-0.5 0.5-1.1 0.7-1.5 1.4-3 0.4-0.8 0.7-1.5 0.4-0.8 0.8-1.5 0-0.1 0.1-0.2 0.3-0.5 0.6-1.1 0.2-0.5 0.5-1 0.5-0.9 1-1.8 0.5-0.9 1.1-1.9 0.6-1 1.3-2.1 0.6-1 1.2-2.1 0.5-0.7 1.1-1.5 0.1-0.3 0.3-0.5 0.6-1 1.3-2 0.3-0.4 0.5-0.7 0.4-0.6 0.8-1.1 0.5-0.6 0.9-1.3 0.1-0.1 0.3-0.3 0.9-1.3 1.9-2.6 0.9-1.1 1.8-2.2 0.7-0.8 1.4-1.6 0.4-0.6 1-1.2 3-3.5 6.3-6.8 0.9-0.9 1.8-1.7 0.3-0.4 0.7-0.7 0.1-0.1 0.2-0.3 0.6-0.5 1.2-1 0.1-0.2 0.3-0.4 0.2-0.1 0.3-0.2 1.1-1 2.3-2 1.1-1 2.3-2 0 0 0.1 0 1.1-1 2.2-1.9 0.3-0.2 0.6-0.5 0.4-0.2 0.8-0.5 0.6-0.5 1.2-1 0.9-0.7 1.9-1.3 0.1-0.1 0.1-0.2 2.2-1.5 4.4-2.9 0.6-0.4 1.2-0.8 0.8-0.5 1.6-1.1 0.6-0.3 1.1-0.6 0.7-0.4 1.3-0.8 0.7-0.4 1.4-0.8 1-0.6 2-1.1 1.2-0.7 2.5-1.4 0.5-0.2 0.9-0.5 0.9-0.4 1.8-0.8 0-0.1 0.1-0.1 1.3-0.6 2.6-1.2 1.4-0.7 2.8-1.3 0.7-0.3 1.3-0.6 0.7-0.2 1.4-0.5 0 0 0.1-0.1 1.4-0.5 2.8-1.1 0 0 0 0 1.4-0.5 2.9-1 1.4-0.5 2.9-1 1.5-0.5 3-1 1.1-0.3 2.2-0.6 0.5-0.1 1-0.3 0.7-0.2 1.4-0.3 1-0.3 2.1-0.6 1-0.2 2.1-0.5 0.2 0 0.4 0 0.8-0.2 1.6-0.4 0.8-0.1 1.6-0.3 0.8-0.2 1.6-0.3 1.3-0.2 2.5-0.4 0.7-0.1 1.4-0.2 1.2-0.2 2.4-0.4 0.6 0 1.3-0.1 2.1-0.3 4.2-0.5 0.6 0 1.2 0 1.2-0.1 2.4-0.2 1.2-0.1 2.4-0.1 1.2-0.1 2.5-0.1 0.9 0 1.8 0h1.6q0.9 0 1.9 0 1.2 0 2.4 0.1 1.2 0 2.4 0.1 1.2 0.1 2.4 0.2 0.6 0 1.2 0 2.2 0.2 4.3 0.5 0.6 0.1 1.2 0.1 1.2 0.2 2.4 0.4 0.7 0.1 1.4 0.2 1.3 0.2 2.5 0.4 0.8 0.1 1.7 0.3 0.7 0.2 1.5 0.3 0.8 0.2 1.7 0.4 0.1 0 0.3 0 1.1 0.3 2.1 0.5 1.1 0.3 2.1 0.6 0.7 0.1 1.4 0.3 0.5 0.2 1 0.3 1.1 0.3 2.2 0.6 1.5 0.5 3 1 1.5 0.5 2.9 1 1.5 0.5 2.9 1 0 0 0 0 1.4 0.6 2.8 1.1 0.1 0.1 0.2 0.1 0.6 0.3 1.3 0.5 0.7 0.3 1.3 0.6 1.4 0.6 2.8 1.3 1.3 0.6 2.7 1.2 0 0 0 0.1 0.9 0.4 1.8 0.8 0.4 0.3 0.9 0.5 1.3 0.7 2.6 1.4 1 0.5 2 1.1 0.6 0.4 1.3 0.8 0.7 0.4 1.3 0.8 0.6 0.3 1.1 0.6 0.8 0.6 1.7 1.1 0.6 0.4 1.2 0.8 2.2 1.4 4.3 2.9 0.1 0.1 0.1 0.2 1 0.6 1.9 1.3 0.6 0.5 1.2 1 0.4 0.3 0.8 0.5 0.3 0.3 0.6 0.5 1.2 0.9 2.3 1.9 0 0 0.1 0 1.1 1 2.2 2 1.2 1 2.3 2 0.2 0.1 0.3 0.2 0.2 0.2 0.4 0.4 0.5 0.5 1.1 1 0.1 0.2 0.2 0.3 0.4 0.3 0.8 0.7 0.8 0.8 1.7 1.7 3.3 3.3 6.4 6.8 0.5 0.6 1 1.2 0.6 0.8 1.3 1.6 0.9 1.1 1.8 2.2 1 1.3 2 2.6 0.1 0.2 0.2 0.3 0.5 0.7 0.9 1.3 0.4 0.5 0.8 1.1 0.3 0.3 0.5 0.7 0.7 1 1.4 2 0.1 0.2 0.3 0.5 0.5 0.8 1 1.5 0.6 1.1 1.3 2.1 0.6 1.1 1.2 2.1 0.6 1 1.1 1.9 0.5 0.9 1 1.8 0.3 0.5 0.6 1 0.3 0.6 0.5 1.1 0.1 0.1 0.1 0.2 0.4 0.7 0.8 1.5 0.4 0.7 0.7 1.5 0.7 1.5 1.4 3 0.3 0.6 0.5 1.1 0.9 1.9 1.7 3.9 0.4 1 0.7 2 0.4 0.9 0.8 1.9 0 0.2 0.1 0.3 0.3 0.9 0.6 1.8 0.2 0.6 0.4 1.2 0.2 0.7 0.4 1.3 0.4 1.3 0.8 2.5 0 0.1 0.1 0.2 0.3 1.2 0.7 2.4 0.3 1.3 0.6 2.6 0.8 2.9 1.4 5.8 0.4 1.9 0.7 3.7 0.2 1.1 0.3 2.1 0 0.1 0.1 0.2 0.1 0.8 0.2 1.7 0.1 0.3 0.1 0.5 0.1 0.5 0.1 1 0.1 0.5 0.1 1 0.2 1.1 0.3 2.2 0.1 1 0.2 2 0 0.1 0 0.2 0.1 1.5 0.2 3.1 0.1 1 0.1 2 0.1 1.1 0.1 2.1 0 0.5 0.1 1 0 0.5 0 1.1 0 1 0 2zm-7.2 0q0-0.9 0-1.9 0-0.5 0-1 0-0.5-0.1-1 0-0.9 0-1.9-0.1-1-0.1-1.9-0.1-1.5-0.3-3 0-0.1 0-0.1-0.1-1-0.2-2-0.1-1-0.2-2-0.1-0.5-0.1-0.9-0.1-0.5-0.1-1-0.1-0.2-0.1-0.5-0.1-0.8-0.2-1.6-0.1-0.1-0.1-0.1-0.1-1-0.3-2-0.3-1.8-0.7-3.5-0.5-2.8-1.2-5.5-0.3-1.3-0.7-2.5-0.3-1.1-0.6-2.3-0.1 0-0.1-0.1-0.3-1.2-0.7-2.4-0.2-0.6-0.4-1.2-0.2-0.6-0.4-1.2-0.3-0.8-0.6-1.6 0-0.2-0.1-0.3-0.3-1-0.7-1.9-0.3-0.9-0.7-1.8-0.8-1.9-1.5-3.7-0.3-0.5-0.5-1.1-0.7-1.4-1.4-2.8-0.3-0.7-0.7-1.4-0.3-0.7-0.7-1.4 0-0.1-0.1-0.2-0.2-0.5-0.5-1-0.3-0.5-0.5-1-0.5-0.8-0.9-1.6-0.5-1-1.1-1.9-0.6-1-1.2-1.9-0.6-1-1.2-2-0.5-0.7-0.9-1.5-0.2-0.2-0.3-0.4-0.7-1-1.3-1.9-0.3-0.4-0.5-0.7-0.3-0.5-0.7-1-0.5-0.6-0.9-1.2-0.1-0.2-0.2-0.3-0.9-1.3-1.9-2.5-0.8-1-1.7-2.1-0.6-0.7-1.2-1.5-0.5-0.5-1-1.1-2.9-3.3-6-6.5-0.8-0.8-1.6-1.6-0.3-0.3-0.7-0.6-0.1-0.1-0.2-0.2-0.6-0.5-1.1-1-0.2-0.2-0.4-0.4-0.1-0.1-0.2-0.2-1.1-1-2.2-1.9-1-0.9-2.1-1.8-0.1-0.1-0.1-0.1-1.1-0.9-2.1-1.7-0.3-0.2-0.6-0.5-0.4-0.3-0.7-0.5-0.6-0.5-1.2-0.9-0.9-0.7-1.8-1.3 0 0-0.1-0.1-2-1.4-4.1-2.8-0.5-0.4-1.1-0.7-0.8-0.6-1.6-1-0.5-0.3-1-0.7-0.6-0.3-1.2-0.7-0.7-0.4-1.3-0.7-0.9-0.6-1.9-1.1-1.2-0.7-2.4-1.3-0.5-0.2-0.9-0.5-0.8-0.4-1.6-0.8-0.1 0-0.1 0-1.3-0.6-2.5-1.2-1.3-0.6-2.6-1.2-0.7-0.3-1.3-0.5-0.6-0.3-1.3-0.6 0 0-0.1 0-1.3-0.5-2.6-1.1 0 0-0.1 0-1.3-0.5-2.7-1-1.3-0.4-2.7-0.9-1.4-0.4-2.8-0.9-1.1-0.3-2.2-0.6-0.4-0.1-0.9-0.2-0.6-0.2-1.3-0.4-1-0.2-1.9-0.5-1-0.2-2-0.4-0.2-0.1-0.4-0.1-0.8-0.2-1.5-0.3-0.8-0.2-1.5-0.3-0.8-0.2-1.6-0.3-1.1-0.2-2.4-0.4-0.6-0.1-1.2-0.2-1.2-0.2-2.3-0.3-0.6-0.1-1.2-0.2-2-0.2-4-0.4-0.6 0-1.1-0.1-1.2-0.1-2.3-0.1-1.1-0.1-2.3-0.2-1.1 0-2.3 0-0.9 0-1.7 0h-1.5q-0.9 0-1.8 0-1.2 0-2.3 0-1.1 0.1-2.3 0.2-1.1 0-2.2 0.1-0.6 0.1-1.2 0.1-2 0.2-4 0.4-0.6 0.1-1.1 0.2-1.2 0.1-2.3 0.3-0.7 0.1-1.3 0.2-1.2 0.2-2.4 0.4-0.8 0.1-1.6 0.3-0.7 0.1-1.4 0.3-0.8 0.1-1.6 0.3-0.2 0-0.3 0.1-1 0.2-2 0.4-1 0.3-2 0.5-0.7 0.2-1.3 0.4-0.5 0.1-0.9 0.2-1.1 0.3-2.1 0.6-1.5 0.5-2.9 0.9-1.4 0.5-2.7 0.9-1.4 0.5-2.7 1 0 0-0.1 0-1.3 0.6-2.6 1.1-0.1 0-0.1 0-0.6 0.3-1.3 0.6-0.6 0.2-1.2 0.5-1.3 0.6-2.6 1.2-1.3 0.6-2.6 1.2 0 0 0 0-0.9 0.4-1.7 0.8-0.4 0.3-0.9 0.5-1.2 0.6-2.4 1.3-0.9 0.5-1.9 1.1-0.6 0.3-1.2 0.7-0.7 0.4-1.3 0.7-0.5 0.4-1 0.7-0.8 0.4-1.6 1-0.5 0.3-1.1 0.7-2.1 1.4-4.1 2.8 0 0.1-0.1 0.1-0.9 0.6-1.8 1.3-0.6 0.4-1.1 0.9-0.4 0.2-0.7 0.5-0.4 0.3-0.6 0.5-1.1 0.8-2.2 1.7 0 0 0 0.1-1.1 0.9-2.2 1.8-1.1 0.9-2.2 1.9-0.1 0.1-0.2 0.2-0.2 0.2-0.4 0.4-0.5 0.5-1.1 1-0.1 0.1-0.2 0.2-0.3 0.3-0.7 0.6-0.8 0.8-1.6 1.6-3.1 3.2-6 6.5-0.5 0.6-0.9 1.1-0.7 0.8-1.3 1.5-0.8 1.1-1.7 2.1-0.9 1.2-1.9 2.5-0.1 0.1-0.2 0.3-0.4 0.6-0.8 1.2-0.4 0.5-0.8 1-0.2 0.3-0.4 0.7-0.7 0.9-1.3 1.9-0.2 0.2-0.3 0.4-0.5 0.8-1 1.5-0.6 1-1.2 2-0.6 0.9-1.2 1.9-0.5 0.9-1 1.9-0.5 0.8-0.9 1.6-0.3 0.5-0.6 1-0.2 0.5-0.5 1-0.1 0.1-0.1 0.2-0.4 0.7-0.7 1.4-0.4 0.7-0.7 1.4-0.7 1.4-1.3 2.8-0.3 0.6-0.5 1.1-0.8 1.8-1.6 3.7-0.3 0.9-0.7 1.8-0.3 0.9-0.7 1.9 0 0.1-0.1 0.3-0.3 0.8-0.6 1.6-0.2 0.6-0.4 1.2-0.2 0.6-0.4 1.2-0.3 1.2-0.7 2.4 0 0.1-0.1 0.1-0.3 1.2-0.6 2.3-0.3 1.2-0.6 2.5-0.7 2.7-1.3 5.5-0.4 1.7-0.7 3.5-0.1 1-0.3 2 0 0 0 0.1-0.1 0.8-0.3 1.6 0 0.3 0 0.5-0.1 0.5-0.2 1 0 0.4-0.1 0.9-0.1 1-0.2 2-0.1 1-0.2 2 0 0 0 0.1-0.1 1.5-0.2 3-0.1 0.9-0.1 1.9-0.1 1-0.1 1.9 0 0.5 0 1-0.1 0.5-0.1 1 0 1 0 2c0 23.9 6.9 46.2 18.9 65 3.1 5 6.7 9.7 10.5 14.2 11.3 13.1 25.4 23.8 41.4 31.2q7 3.2 14.5 5.6 1.7 0.5 3.4 1 0.1 0 0.3 0 1.2 0.4 2.3 0.7 1.4 0.3 2.7 0.6 1.1 0.3 2.2 0.5 1.1 0.2 2.3 0.5 1.1 0.2 2.2 0.4 2.2 0.4 4.5 0.7 1.2 0.1 2.3 0.3 1.2 0.1 2.3 0.2 1.2 0.1 2.3 0.2 0.9 0.1 1.8 0.1 1.1 0.1 2.2 0.1 0.7 0 1.4 0.1 0.7 0 1.5 0 0.7 0 1.4 0h0.5q0.2 0 0.4 0h0.4q0.2 0 0.4 0h0.5q0.8 0 1.5 0 0.7 0 1.4 0 0.7 0 1.5-0.1 1 0 2.1-0.1 0.9 0 1.8-0.1 1.1-0.1 2.3-0.2 1.1-0.1 2.3-0.2 1.1-0.2 2.3-0.3 2.3-0.3 4.5-0.7 1.1-0.2 2.3-0.4 1.1-0.3 2.2-0.5 1.1-0.2 2.2-0.5 1.4-0.3 2.7-0.6 1.2-0.3 2.3-0.7 0.2 0 0.4 0 1.7-0.5 3.3-1 7.5-2.4 14.5-5.6c16-7.4 30.1-18.1 41.4-31.2 3.9-4.5 7.4-9.2 10.6-14.3 11.9-18.7 18.8-41 18.8-65z"/><path class="b" d="m195.5 172v22.3h-22.3v-22.3q0-0.4 0-0.9 0-0.1 0-0.2 0 0 0-0.1 0.1-0.2 0.1-0.5 0-0.2 0.1-0.5 0.1-0.4 0.2-0.8 0.1-0.3 0.1-0.5 0.2-0.4 0.3-0.8 0.1-0.2 0.2-0.4 0.1-0.3 0.3-0.6 0.1-0.2 0.3-0.4 0.1-0.3 0.3-0.5 0.1-0.2 0.3-0.4 0.1-0.2 0.3-0.5 0.2-0.2 0.5-0.5 0.2-0.2 0.4-0.4 0.5-0.5 1-0.9 0.3-0.2 0.5-0.3 0.2-0.2 0.4-0.3 0.2-0.1 0.4-0.2 0.2-0.1 0.5-0.3 0.1 0 0.3-0.1 0 0 0.1-0.1 0.1 0 0.2-0.1 0.3-0.1 0.5-0.1 0.4-0.2 0.9-0.3 0.2-0.1 0.4-0.1 0 0 0 0 0.1 0 0.1-0.1 0.3 0 0.5 0 0.3-0.1 0.6-0.1 0.2-0.1 0.4-0.1 0.4 0 0.7 0 0.1 0 0.2 0 0.1 0 0.2 0 0.4 0 0.7 0 0.2 0 0.4 0.1 0.3 0 0.6 0.1 0.3 0 0.5 0 0 0.1 0.1 0.1 0 0 0.1 0 0.2 0 0.4 0.1 0.4 0.1 0.8 0.3 0.3 0 0.5 0.1 0.1 0.1 0.3 0.1 0 0.1 0 0.1 0.2 0.1 0.4 0.1 0.2 0.2 0.4 0.3 0.2 0.1 0.4 0.2 0.2 0.1 0.4 0.3 0.3 0.1 0.5 0.3 0.5 0.4 1 0.9 0.2 0.2 0.5 0.4 0.2 0.3 0.4 0.5 0.2 0.3 0.3 0.5 0.2 0.2 0.4 0.4 0.1 0.2 0.2 0.5 0.2 0.2 0.3 0.4 0.2 0.3 0.3 0.6 0.1 0.2 0.2 0.4 0.2 0.4 0.3 0.8 0.1 0.2 0.1 0.5 0.2 0.4 0.2 0.8 0.1 0.3 0.1 0.5 0.1 0.3 0.1 0.5 0 0.1 0 0.1 0 0.1 0 0.2 0.1 0.5 0.1 0.9z"/><path fill-rule="evenodd" class="b" d="m298.8 184.3c0 15.4-3.1 30.4-9 44.5q-0.4 0.8-0.7 1.7-0.1 0.1-0.2 0.3-0.3 0.6-0.6 1.3-0.1 0.2-0.2 0.5-0.4 0.8-0.7 1.6-0.4 0.8-0.8 1.5l-0.1 0.2-19.6-20.7-9.7 10.3 9.9 10.4 12.6 12.5c0 0-6.7 9.1-12.6 14.8-0.5 0.6-1.3 1.4-1.8 2-9 8.9-19.1 16.2-30.3 21.7v-185.8h-34v33.4h-33.4v-33.4h-34v185.8c-11.2-5.5-21.3-12.8-30.2-21.7-0.6-0.6-1.4-1.4-1.9-2-5.9-5.7-12.5-14.8-12.5-14.8l12.5-12.5 10-10.4-9.8-10.3-19.6 20.7v-0.2q-0.4-0.7-0.8-1.5-0.4-0.8-0.8-1.6-0.1-0.3-0.2-0.5-0.3-0.7-0.6-1.3-0.1-0.2-0.1-0.3-0.4-0.9-0.8-1.7c-5.9-14.1-9-29.1-9-44.6 0-15.4 3.1-30.4 9-44.5 5.8-13.6 14.1-25.9 24.6-36.4 10.5-10.5 22.7-18.7 36.4-24.5 14-6 28.9-9 44.3-9h0.4q1.4 0 2.7 0 1.1 0 2.2 0.1 0.5 0 0.9 0 1.3 0.1 2.7 0.2 0.8 0.1 1.6 0.1 0.9 0.1 1.9 0.2 0.1 0 0.2 0.1 1 0 1.9 0.2 1.3 0.1 2.6 0.3 0.5 0.1 0.9 0.2 1 0.1 2 0.3 0.6 0.1 1.1 0.2 0.7 0.1 1.4 0.2 0.4 0.1 0.9 0.2 1.2 0.3 2.4 0.5 1.2 0.3 2.4 0.6 0.5 0.2 1 0.3 0.7 0.2 1.3 0.4 0.7 0.1 1.3 0.3 1.1 0.3 2.3 0.7 1.3 0.4 2.7 0.9 0.4 0.1 0.8 0.2 0.9 0.3 1.8 0.7 0 0 0.1 0 1 0.4 2 0.8 0.6 0.2 1.2 0.5 1.1 0.4 2.1 0.8c13.6 5.8 25.8 14 36.4 24.5 10.5 10.5 18.7 22.8 24.5 36.4 5.9 14.1 9 29.1 9 44.6zm-170.7 40.8l-5-4.9-9.2 9.2-9.9 10v14.5l18.3-18 5.8 6.1zm126.6 4.3l-9.2-9.2-5 4.9v16.8l5.8-6 18.3 17.9v-14.5z"/><path class="b" d="m57.7 78.4l5.7-6.1 16 15 10.4-11.1 3.9 5-15.5 16.5z"/><path fill-rule="evenodd" class="b" d="m102.2 67.8l1.4 5.8-7.1 4.6-6.1-29.6 9-5.9 25 17.4-7.5 4.8-4.8-3.5zm4.7-10.4c-4.9-3.6-7.5-5.6-9.4-7.2v0.1c0.7 2.2 1.8 6.3 2.9 11.3z"/><path class="b" d="m163.2 38.5c-1-4.5-2-9.6-2.5-12.8-0.3 5.6-0.7 13.3-1.5 23.9l-6.9 1.4c-4.2-8.6-7.9-16.2-10.5-21.4v0.1c0.8 3.1 2.2 8.4 3.2 13.1l2 9.3-7.3 1.6-5.8-27.6 11.7-2.4c3.7 6.8 7 13.1 8.7 17.3h0.1c0.1-5 0.6-11.8 1.2-19.4l11.8-2.5 5.7 27.5-7.9 1.7z"/><path class="b" d="m204.9 36.8l-15.2-0.9-0.3 5.2 17 0.9-1.3 6.2-24.3-1.4 1.6-28.1 24.2 1.4-0.3 6.2-16-0.9-0.3 4.3 15.2 0.8z"/><path class="b" d="m211.9 43.7l20.1-11.3-14.6-4.3 1.7-5.8 24.6 7.2-1.7 5.8-19.6 10.9 16.4 4.9-2.6 5.6-25.8-7.7z"/><path class="b" d="m243.3 53.7l22.1-6.3-13.2-7.6 3-5.3 22.2 12.8-3 5.2-21.5 6.1 14.8 8.5-3.8 4.8-23.4-13.4z"/><path fill-rule="evenodd" class="b" d="m278.7 77.3l-5.3 2.6-6-5.9 27.4-12.6 7.7 7.5-11.3 28.3-6.4-6.3 2.3-5.4zm11.3 2.2c2.4-5.5 3.8-8.6 4.9-10.7l-0.1-0.1c-2 1.2-5.8 3.2-10.3 5.4z"/><path class="b" d="m20.2 192.1v-0.1c0-2.9 1.1-5.3 4.7-8.5 2-1.8 2.6-2.5 2.6-4 0-1.3-0.5-2-1.7-2-1.4 0-1.8 1-1.9 2.7h-3.7c0.1-2.9 1.5-5.7 5.7-5.7 3.7 0 5.5 2.2 5.5 5.1 0 2.1-0.7 3.3-3.4 5.6-1.6 1.4-2.8 2.6-3.2 3.8h7l-0.5 3.1z"/><path fill-rule="evenodd" class="b" d="m45.1 183.2c0 5.9-1.6 9.2-5.9 9.2-4.3 0-5.9-3.3-5.9-9.1 0-6 2.1-8.8 6-8.8 3.9 0 5.8 2.7 5.8 8.7zm-7.9 0c0 4.2 0.3 6.3 2 6.3 1.8 0 2-2.2 2-6.3 0-4.1-0.4-5.7-2-5.7-1.5 0-2 1.5-2 5.7z"/><path class="b" d="m330.2 192.1v-13.1c-0.5 0-1.5 0-2-0.1v-2.7c1.3-0.1 2.5-0.7 3.2-1.4h2.6v17.3z"/><path fill-rule="evenodd" class="b" d="m343.5 192.1v-3.9h-6.9v-3.1l5.6-10.3h4.8v10.4h1.7l-0.3 3h-1.4v3.9zm0-10.1c0-2 0-3.1 0.1-4.4-0.7 1.8-2.5 5.4-3.6 7.6h3.5z"/><path class="b" d="m112.2 310.1l-8.3-4.4 2.9-5.4 23.8 12.6-2.9 5.4-8.2-4.4-10.2 19.2-7.2-3.9z"/><path fill-rule="evenodd" class="b" d="m160.7 335.7c-2 7.5-8.7 12.8-19 10.2-9.4-2.5-13.1-10.1-11-18 1.9-7.4 8.9-12.6 18.7-10 9.7 2.5 13.2 10.3 11.3 17.8zm-21.6-5.7c-1.3 4.8-0.1 9 4.6 10.2 4.8 1.2 7.5-2.6 8.6-6.6 1.2-4.6 0.3-8.8-4.6-10-4.6-1.2-7.5 2.1-8.6 6.4z"/><path fill-rule="evenodd" class="b" d="m178.8 340.3l-0.2 10.3-8.1-0.1 0.4-27.8 16.2 0.3c6.8 0.1 10.4 3.5 10.3 8.2-0.1 3.6-2.2 5.6-4.9 6.5 1.2 0.6 4 1.8 3.9 6.6v1.5c0 1.7-0.1 3.8 0.3 5.1l-8.3-0.1c-0.4-1.2-0.5-2.8-0.5-5.8v-0.9c0.1-2.6-0.8-3.6-4.4-3.7zm0.1-5.6l6 0.1c2.7 0 4.1-1 4.1-3 0.1-2-1.2-3.1-4-3.1l-6-0.1z"/><path fill-rule="evenodd" class="b" d="m216.5 337.2l2.4 10.1-7.9 1.8-6.4-27 15.8-3.7c6.6-1.6 10.9 0.8 11.9 5.4 0.8 3.5-0.7 6-3.1 7.5 1.3 0.3 4.3 0.8 5.4 5.5l0.4 1.4c0.4 1.7 0.8 3.7 1.5 4.9l-8.1 1.9c-0.7-1-1.2-2.6-1.9-5.5l-0.2-0.9c-0.6-2.5-1.6-3.3-5.2-2.5zm-1.3-5.4l5.9-1.4c2.7-0.6 3.7-1.9 3.2-3.9-0.4-1.9-1.9-2.7-4.6-2.1l-5.9 1.4z"/><path class="b" d="m265.1 317.8l-13.4 6.7 2.2 4.5 15.1-7.5 1.9 6-21.5 10.7-12.4-24.9 21.5-10.7 2.7 5.5-14.2 7.1 1.9 3.8 13.5-6.8z"/></svg>