<svg version="1.2" xmlns="http://www.w3.org/2000/svg" viewBox="0 0 367 368" width="312" height="313">
	<title>logo-oro-svg</title>
	<style>
		.s0 { fill: #1d1d1b } 
		.s1 { fill: #c4b49b } 
	</style>
	<path id="Layer" fill-rule="evenodd" class="s0" d="m359.5 184.3c0 23.7-4.7 46.8-13.9 68.5-8.9 21-21.6 39.9-37.7 56.1-16.2 16.1-35.1 28.8-56.1 37.7-21.6 9.2-44.6 13.8-68.3 13.9h-0.5c-23.7-0.1-46.7-4.7-68.3-13.9-21-8.9-39.9-21.6-56.1-37.7-16.1-16.2-28.8-35.1-37.7-56.1-9.2-21.7-13.9-44.8-13.9-68.6 0-23.7 4.7-46.8 13.9-68.5q4.7-11.3 11-21.7 0.3-0.6 0.7-1.2c30.7-51 86.6-85.2 150.4-85.3h0.5c63.8 0.1 119.7 34.3 150.4 85.3q0.4 0.6 0.8 1.2 6.2 10.4 10.9 21.7c9.2 21.7 13.9 44.8 13.9 68.5zm-67.5 68.9c12.6-19.9 19.9-43.5 19.9-68.9q0-1 0-2 0-0.6 0-1.1 0-0.5 0-1-0.1-1-0.1-2.1-0.1-1-0.1-2-0.1-1.6-0.3-3.1 0-0.1 0-0.2-0.1-1-0.2-2-0.1-1.1-0.2-2.2-0.1-0.5-0.1-1-0.1-0.5-0.2-1 0-0.2-0.1-0.5-0.1-0.9-0.2-1.7 0-0.1 0-0.2-0.2-1-0.4-2.1-0.3-1.8-0.7-3.7-0.6-2.9-1.3-5.8-0.3-1.3-0.7-2.6-0.3-1.2-0.7-2.4 0-0.1 0-0.2-0.4-1.2-0.8-2.5-0.2-0.6-0.4-1.3-0.3-0.6-0.5-1.2-0.3-0.9-0.6-1.8 0-0.1-0.1-0.3-0.4-1-0.7-1.9-0.4-1-0.8-2-0.8-2-1.6-3.9-0.3-0.5-0.5-1.1-0.7-1.5-1.4-3-0.4-0.8-0.8-1.5-0.4-0.8-0.7-1.5-0.1-0.1-0.1-0.2-0.3-0.5-0.6-1.1-0.3-0.5-0.6-1-0.4-0.9-0.9-1.8-0.6-0.9-1.1-1.9-0.6-1-1.3-2.1-0.6-1-1.3-2.1-0.5-0.7-1-1.5-0.2-0.3-0.3-0.5-0.7-1-1.4-2-0.2-0.4-0.5-0.7-0.3-0.6-0.7-1.1-0.5-0.6-1-1.3-0.1-0.1-0.2-0.3-1-1.3-2-2.6-0.9-1.1-1.8-2.2-0.6-0.8-1.3-1.6-0.5-0.6-1-1.2-3-3.5-6.4-6.8-0.8-0.9-1.7-1.7-0.3-0.4-0.7-0.7-0.1-0.1-0.2-0.3-0.6-0.5-1.2-1-0.2-0.2-0.4-0.4-0.1-0.1-0.2-0.2-1.2-1-2.3-2-1.2-1-2.3-2-0.1 0-0.1 0-1.1-1-2.2-1.9-0.4-0.2-0.7-0.5-0.4-0.2-0.7-0.5-0.6-0.5-1.3-1-0.9-0.7-1.8-1.3-0.1-0.1-0.2-0.2-2.1-1.5-4.3-2.9-0.6-0.4-1.2-0.8-0.8-0.5-1.7-1.1-0.5-0.3-1-0.6-0.7-0.4-1.4-0.8-0.6-0.4-1.3-0.8-1-0.6-2-1.1-1.3-0.7-2.6-1.4-0.4-0.2-0.9-0.5-0.8-0.4-1.7-0.8-0.1-0.1-0.1-0.1-1.3-0.6-2.7-1.2-1.3-0.7-2.7-1.3-0.7-0.3-1.4-0.6-0.6-0.2-1.3-0.5-0.1 0-0.1-0.1-1.4-0.5-2.8-1.1 0 0-0.1 0-1.4-0.5-2.8-1-1.5-0.5-2.9-1-1.5-0.5-3-1-1.2-0.3-2.3-0.6-0.5-0.1-1-0.3-0.6-0.2-1.3-0.3-1.1-0.3-2.1-0.6-1.1-0.2-2.1-0.5-0.2 0-0.4 0-0.8-0.2-1.6-0.4-0.8-0.1-1.6-0.3-0.8-0.2-1.6-0.3-1.3-0.2-2.6-0.4-0.7-0.1-1.3-0.2-1.2-0.2-2.5-0.4-0.6 0-1.2-0.1-2.1-0.3-4.2-0.5-0.6 0-1.2 0-1.2-0.1-2.5-0.2-1.2-0.1-2.4-0.1-1.2-0.1-2.4-0.1-0.9 0-1.9 0h-1.5q-1 0-1.9 0-1.2 0-2.4 0.1-1.2 0-2.5 0.1-1.1 0.1-2.3 0.2-0.7 0-1.3 0-2.1 0.2-4.2 0.5-0.6 0.1-1.2 0.1-1.3 0.2-2.5 0.4-0.6 0.1-1.3 0.2-1.3 0.2-2.6 0.4-0.8 0.1-1.6 0.3-0.8 0.2-1.6 0.3-0.8 0.2-1.6 0.4-0.2 0-0.4 0-1 0.3-2.1 0.5-1 0.3-2.1 0.6-0.7 0.1-1.3 0.3-0.5 0.2-1 0.3-1.1 0.3-2.3 0.6-1.5 0.5-3 1-1.4 0.5-2.9 1-1.4 0.5-2.8 1-0.1 0-0.1 0-1.4 0.6-2.8 1.1 0 0.1-0.1 0.1-0.7 0.3-1.3 0.5-0.7 0.3-1.4 0.6-1.4 0.6-2.7 1.3-1.4 0.6-2.7 1.2 0 0-0.1 0.1-0.9 0.4-1.7 0.8-0.5 0.3-0.9 0.5-1.3 0.7-2.6 1.4-1 0.5-2 1.1-0.7 0.4-1.3 0.8-0.7 0.4-1.4 0.8-0.5 0.3-1 0.6-0.9 0.6-1.7 1.1-0.6 0.4-1.2 0.8-2.2 1.4-4.3 2.9-0.1 0.1-0.2 0.2-0.9 0.6-1.8 1.3-0.7 0.5-1.3 1-0.3 0.3-0.7 0.5-0.3 0.3-0.7 0.5-1.1 0.9-2.2 1.9 0 0-0.1 0-1.1 1-2.3 2-1.1 1-2.3 2-0.1 0.1-0.2 0.2-0.2 0.2-0.4 0.4-0.6 0.5-1.2 1-0.1 0.2-0.2 0.3-0.4 0.3-0.7 0.7-0.9 0.8-1.7 1.7-3.4 3.3-6.4 6.8-0.5 0.6-1 1.2-0.7 0.8-1.3 1.6-0.9 1.1-1.8 2.2-1 1.3-2 2.6-0.1 0.2-0.2 0.3-0.5 0.7-1 1.3-0.4 0.5-0.7 1.1-0.3 0.3-0.5 0.7-0.7 1-1.4 2-0.1 0.2-0.3 0.5-0.5 0.8-1 1.5-0.7 1.1-1.3 2.1-0.7 1.1-1.3 2.1-0.5 1-1.1 1.9-0.5 0.9-0.9 1.8-0.3 0.5-0.6 1-0.3 0.6-0.6 1.1 0 0.1-0.1 0.2-0.3 0.7-0.7 1.5-0.4 0.7-0.7 1.5-0.8 1.5-1.5 3-0.2 0.6-0.5 1.1-0.8 1.9-1.6 3.9-0.4 1-0.8 2-0.3 0.9-0.7 1.9-0.1 0.2-0.1 0.3-0.3 0.9-0.6 1.8-0.2 0.6-0.4 1.2-0.3 0.7-0.5 1.3-0.4 1.3-0.8 2.5 0 0.1 0 0.2-0.4 1.2-0.7 2.4-0.4 1.3-0.7 2.6-0.7 2.9-1.3 5.8-0.4 1.9-0.7 3.7-0.2 1.1-0.4 2.1 0 0.1 0 0.2-0.1 0.8-0.2 1.7-0.1 0.3-0.1 0.5-0.1 0.5-0.1 1l-0.2 1q-0.1 1.1-0.2 2.2-0.1 1-0.2 2 0 0.1 0 0.2-0.2 1.5-0.3 3.1 0 1-0.1 2 0 1.1-0.1 2.1 0 0.5 0 1 0 0.5 0 1.1 0 1 0 2c0 25.4 7.3 49 19.9 68.9 3.4 5.3 7.1 10.3 11.2 15.1 12 13.9 26.9 25.2 43.8 33q7.5 3.4 15.4 5.9 1.8 0.6 3.5 1.1 0.2 0 0.4 0.1 1.2 0.3 2.5 0.6 1.4 0.4 2.8 0.7 1.2 0.3 2.4 0.5 1.1 0.3 2.3 0.5 1.2 0.2 2.4 0.4 2.4 0.5 4.8 0.8 1.2 0.1 2.4 0.3 1.3 0.1 2.5 0.2 1.2 0.2 2.4 0.2 1 0.1 1.9 0.2 1.1 0.1 2.3 0.1 0.8 0 1.5 0.1 0.8 0 1.6 0 0.7 0 1.5 0h0.5q0.2 0 0.4 0h0.5q0.2 0 0.4 0h0.5q0.8 0 1.5 0 0.8 0 1.6 0 0.7-0.1 1.5-0.1 1.1 0 2.3-0.1 0.9-0.1 1.9-0.2 1.2 0 2.4-0.2 1.2-0.1 2.5-0.2 1.2-0.2 2.4-0.3 2.4-0.3 4.8-0.8 1.2-0.2 2.4-0.4 1.2-0.2 2.3-0.5 1.2-0.2 2.4-0.5 1.4-0.3 2.8-0.7 1.3-0.3 2.5-0.6 0.2-0.1 0.4-0.1 1.7-0.5 3.5-1.1 7.9-2.5 15.4-5.9c16.9-7.8 31.8-19.1 43.8-33 4.1-4.8 7.8-9.8 11.2-15.1z"/>
	<g id="Layer">
		<path id="Layer" fill-rule="evenodd" class="s0" d="m304.7 184.3c0 23.9-6.9 46.2-18.8 64.9-3.2 5.1-6.7 9.8-10.5 14.3-11.4 13.1-25.5 23.8-41.4 31.2q-7.1 3.2-14.5 5.5-1.7 0.6-3.4 1-0.2 0.1-0.3 0.1-1.2 0.4-2.4 0.7-1.3 0.3-2.7 0.6-1 0.3-2.2 0.5-1.1 0.2-2.2 0.5-1.1 0.2-2.2 0.4-2.3 0.4-4.6 0.7-1.1 0.1-2.3 0.3-1.1 0.1-2.3 0.2-1.1 0.1-2.3 0.2-0.9 0.1-1.8 0.1-1 0.1-2.1 0.1-0.7 0.1-1.5 0.1-0.7 0-1.4 0-0.7 0-1.4 0h-0.5q-0.2 0-0.4 0h-0.5q-0.2 0-0.4 0h-0.5q-0.7 0-1.4 0-0.7 0-1.4 0-0.8-0.1-1.5-0.1-1.1 0-2.1-0.1-0.9 0-1.8-0.1-1.2-0.1-2.3-0.2-1.2-0.1-2.3-0.2-1.2-0.2-2.3-0.3-2.3-0.3-4.6-0.7-1.1-0.2-2.2-0.4-1.1-0.3-2.2-0.5-1.2-0.2-2.3-0.5-1.3-0.3-2.6-0.6-1.2-0.3-2.4-0.7-0.1 0-0.3-0.1-1.7-0.4-3.4-1-7.4-2.3-14.5-5.5c-15.9-7.4-30-18.1-41.3-31.2-3.9-4.5-7.4-9.2-10.6-14.3-11.9-18.7-18.8-41-18.8-65q0-0.9 0-1.9 0-0.5 0-1 0-0.5 0-1 0.1-0.9 0.1-1.9 0-1 0.1-1.9 0.1-1.5 0.2-3 0-0.1 0-0.1 0.1-1 0.2-2 0.1-1 0.3-2 0-0.5 0.1-0.9 0-0.5 0.1-1 0-0.2 0.1-0.5 0.1-0.8 0.2-1.6 0-0.1 0-0.1 0.2-1 0.4-2 0.3-1.8 0.6-3.5 0.6-2.8 1.3-5.5 0.3-1.3 0.6-2.5 0.4-1.1 0.7-2.3 0 0 0-0.1 0.4-1.2 0.8-2.4 0.2-0.6 0.4-1.2 0.2-0.6 0.4-1.2 0.3-0.8 0.5-1.6 0.1-0.2 0.2-0.3 0.3-1 0.7-1.9 0.3-0.9 0.7-1.8 0.7-1.9 1.5-3.7 0.2-0.5 0.5-1.1 0.6-1.4 1.3-2.8 0.4-0.7 0.7-1.4 0.4-0.7 0.7-1.4 0.1-0.1 0.1-0.2 0.3-0.5 0.6-1 0.2-0.5 0.5-1 0.4-0.8 0.9-1.6 0.5-1 1.1-1.9 0.5-1 1.1-1.9 0.6-1 1.2-2 0.5-0.7 1-1.5 0.2-0.2 0.3-0.4 0.6-1 1.3-1.9 0.2-0.4 0.5-0.7 0.3-0.5 0.7-1 0.4-0.6 0.8-1.2 0.2-0.2 0.3-0.3 0.9-1.3 1.8-2.5 0.9-1 1.8-2.1 0.6-0.7 1.2-1.5 0.5-0.5 0.9-1.1 2.9-3.3 6-6.5 0.9-0.8 1.7-1.6 0.3-0.3 0.7-0.6 0.1-0.1 0.2-0.2 0.5-0.5 1.1-1 0.1-0.2 0.3-0.4 0.1-0.1 0.3-0.2 1-1 2.1-1.9 1.1-0.9 2.2-1.8 0-0.1 0.1-0.1 1-0.9 2.1-1.7 0.3-0.2 0.6-0.5 0.3-0.3 0.7-0.5 0.6-0.5 1.2-0.9 0.8-0.7 1.7-1.3 0.1 0 0.2-0.1 2-1.4 4-2.8 0.6-0.4 1.2-0.7 0.8-0.6 1.6-1 0.5-0.3 1-0.7 0.6-0.3 1.2-0.7 0.6-0.4 1.3-0.7 0.9-0.6 1.9-1.1 1.2-0.7 2.4-1.3 0.4-0.2 0.8-0.5 0.9-0.4 1.7-0.8 0 0 0.1 0 1.2-0.6 2.5-1.2 1.3-0.6 2.6-1.2 0.6-0.3 1.3-0.5 0.6-0.3 1.2-0.6 0.1 0 0.1 0 1.4-0.5 2.7-1.1 0 0 0 0 1.4-0.5 2.7-1 1.4-0.4 2.8-0.9 1.4-0.4 2.8-0.9 1.1-0.3 2.1-0.6 0.5-0.1 0.9-0.2 0.7-0.2 1.3-0.4 1-0.2 2-0.5 1-0.2 2-0.4 0.2-0.1 0.4-0.1 0.7-0.2 1.5-0.3 0.7-0.2 1.5-0.3 0.8-0.2 1.5-0.3 1.2-0.2 2.4-0.4 0.7-0.1 1.3-0.2 1.1-0.2 2.3-0.3 0.6-0.1 1.1-0.2 2-0.2 4-0.4 0.6 0 1.2-0.1 1.1-0.1 2.3-0.1 1.1-0.1 2.2-0.2 1.2 0 2.3 0 0.9 0 1.8 0h1.5q0.9 0 1.8 0 1.1 0 2.3 0 1.1 0.1 2.2 0.2 1.2 0 2.3 0.1 0.6 0.1 1.1 0.1 2.1 0.2 4 0.4 0.6 0.1 1.2 0.2 1.2 0.1 2.3 0.3 0.6 0.1 1.3 0.2 1.2 0.2 2.4 0.4 0.7 0.1 1.5 0.3 0.8 0.1 1.5 0.3 0.8 0.1 1.5 0.3 0.2 0 0.4 0.1 1 0.2 2 0.4 1 0.3 2 0.5 0.6 0.2 1.3 0.4 0.4 0.1 0.9 0.2 1 0.3 2.1 0.6 1.4 0.5 2.8 0.9 1.4 0.5 2.8 0.9 1.3 0.5 2.7 1 0 0 0 0 1.3 0.6 2.7 1.1 0 0 0.1 0 0.6 0.3 1.2 0.6 0.7 0.2 1.3 0.5 1.3 0.6 2.6 1.2 1.3 0.6 2.5 1.2 0.1 0 0.1 0 0.8 0.4 1.7 0.8 0.4 0.3 0.8 0.5 1.2 0.6 2.4 1.3 1 0.5 1.9 1.1 0.7 0.3 1.3 0.7 0.6 0.4 1.2 0.7 0.5 0.4 1 0.7 0.8 0.4 1.6 1 0.6 0.3 1.2 0.7 2 1.4 4 2.8 0.1 0.1 0.2 0.1 0.9 0.6 1.7 1.3 0.6 0.4 1.2 0.9 0.4 0.2 0.7 0.5 0.3 0.3 0.6 0.5 1.1 0.8 2.1 1.7 0.1 0 0.1 0.1 1.1 0.9 2.1 1.8 1.2 0.9 2.2 1.9 0.2 0.1 0.3 0.2 0.2 0.2 0.3 0.4 0.6 0.5 1.1 1 0.1 0.1 0.2 0.2 0.4 0.3 0.7 0.6 0.8 0.8 1.7 1.6 3.1 3.2 6 6.5 0.4 0.6 0.9 1.1 0.6 0.8 1.3 1.5 0.8 1.1 1.7 2.1 0.9 1.2 1.8 2.5 0.1 0.1 0.3 0.3 0.4 0.6 0.8 1.2 0.4 0.5 0.7 1 0.3 0.3 0.5 0.7 0.7 0.9 1.3 1.9 0.1 0.2 0.3 0.4 0.5 0.8 0.9 1.5 0.7 1 1.3 2 0.6 0.9 1.2 1.9 0.5 0.9 1 1.9 0.5 0.8 0.9 1.6 0.3 0.5 0.5 1 0.3 0.5 0.6 1 0 0.1 0.1 0.2 0.3 0.7 0.7 1.4 0.3 0.7 0.7 1.4 0.7 1.4 1.3 2.8 0.3 0.6 0.5 1.1 0.8 1.8 1.5 3.7 0.4 0.9 0.7 1.8 0.4 0.9 0.7 1.9 0.1 0.1 0.2 0.3 0.2 0.8 0.5 1.6 0.2 0.6 0.4 1.2 0.2 0.6 0.4 1.2 0.4 1.2 0.8 2.4 0 0.1 0 0.1 0.3 1.2 0.7 2.3 0.3 1.2 0.6 2.5 0.7 2.7 1.3 5.5 0.3 1.7 0.6 3.5 0.2 1 0.4 2 0 0 0 0.1 0.1 0.8 0.2 1.6 0.1 0.3 0.1 0.5 0.1 0.5 0.1 1 0.1 0.4 0.1 0.9 0.2 1 0.3 2 0.1 1 0.2 2 0 0 0 0.1 0.1 1.5 0.2 3 0.1 0.9 0.1 1.9 0 1 0.1 1.9 0 0.5 0 1 0 0.5 0 1 0 1 0 1.9zm-48.6 41.3l9.8-10.3 19.5 20.7q0.1-0.1 0.1-0.2 0.4-0.7 0.8-1.5 0.4-0.8 0.7-1.6 0.1-0.3 0.2-0.5 0.4-0.7 0.7-1.3 0-0.2 0.1-0.3 0.4-0.9 0.7-1.7c6-14.1 9-29.1 9-44.6 0-15.4-3-30.4-9-44.5-5.8-13.6-14-25.9-24.5-36.4-10.5-10.5-22.8-18.8-36.4-24.5q-1-0.4-2-0.8-0.6-0.3-1.3-0.5-1-0.4-2-0.8 0 0 0 0-1-0.4-1.9-0.7-0.4-0.1-0.8-0.3-1.3-0.4-2.7-0.8-1.1-0.4-2.3-0.7-0.6-0.2-1.2-0.4-0.7-0.1-1.3-0.3-0.6-0.2-1.1-0.3-1.2-0.3-2.4-0.6-1.2-0.2-2.3-0.5-0.5-0.1-1-0.2-0.7-0.1-1.3-0.2-0.6-0.1-1.2-0.2-0.9-0.2-1.9-0.3-0.5-0.1-0.9-0.2-1.3-0.2-2.6-0.3-1-0.2-1.9-0.2-0.2-0.1-0.3-0.1-0.9-0.1-1.9-0.2-0.8 0-1.6-0.1-1.3-0.1-2.6-0.2-0.5 0-0.9 0-1.1-0.1-2.3-0.1-1.3 0-2.6 0h-0.5c-15.3 0-30.3 3-44.3 9-13.6 5.7-25.9 14-36.4 24.5-10.5 10.5-18.7 22.8-24.5 36.4-6 14.1-9 29.1-9 44.5 0 15.5 3 30.5 9 44.6q0.3 0.8 0.7 1.7 0.1 0.1 0.1 0.3 0.3 0.6 0.6 1.3 0.2 0.2 0.3 0.5 0.3 0.8 0.7 1.6 0.4 0.8 0.8 1.5 0 0.1 0.1 0.2l19.6-20.7 9.7 10.3-10 10.4-12.5 12.5c0 0 6.7 9.1 12.5 14.8 0.6 0.6 1.3 1.4 1.9 2 8.9 8.9 19.1 16.2 30.2 21.7v-185.8h34v33.4h33.5v-33.4h34v185.8c11.2-5.5 21.3-12.8 30.2-21.7 0.5-0.6 1.3-1.4 1.9-2 5.8-5.7 12.5-14.8 12.5-14.8l-12.5-12.5zm-61.7-53.5q0-0.5 0-0.9 0-0.1-0.1-0.2 0-0.1 0-0.1 0-0.3 0-0.5-0.1-0.3-0.1-0.6-0.1-0.4-0.2-0.8-0.1-0.2-0.2-0.5-0.1-0.4-0.3-0.7-0.1-0.2-0.1-0.4-0.2-0.3-0.3-0.6-0.2-0.3-0.3-0.5-0.1-0.2-0.3-0.4-0.1-0.3-0.3-0.5-0.2-0.2-0.3-0.4-0.3-0.3-0.5-0.5-0.2-0.3-0.5-0.5-0.5-0.4-1-0.8-0.2-0.2-0.4-0.4-0.2-0.1-0.5-0.2-0.2-0.2-0.3-0.3-0.3-0.1-0.5-0.2-0.2-0.1-0.3-0.2-0.1 0-0.1 0-0.1-0.1-0.3-0.1-0.2-0.1-0.4-0.2-0.4-0.1-0.9-0.3-0.2 0-0.4-0.1 0 0-0.1 0 0 0 0 0-0.3 0-0.5-0.1-0.3 0-0.6-0.1-0.2 0-0.4 0h-0.1q-0.3 0-0.6 0-0.1-0.1-0.3-0.1-0.1 0-0.2 0.1-0.3 0-0.6 0h-0.1q-0.2 0-0.4 0-0.3 0.1-0.6 0.1-0.2 0.1-0.5 0.1 0 0 0 0-0.1 0-0.1 0-0.2 0.1-0.4 0.1-0.5 0.2-0.9 0.3-0.2 0.1-0.4 0.2-0.2 0-0.3 0.1 0 0-0.1 0-0.1 0.1-0.3 0.2-0.2 0.1-0.5 0.2-0.2 0.1-0.3 0.3-0.3 0.1-0.5 0.2-0.2 0.2-0.4 0.4-0.5 0.4-1 0.8-0.3 0.2-0.5 0.5-0.2 0.2-0.4 0.5-0.2 0.2-0.4 0.4-0.2 0.2-0.3 0.5-0.2 0.2-0.3 0.4-0.1 0.2-0.3 0.5-0.1 0.3-0.3 0.6 0 0.2-0.1 0.4-0.2 0.3-0.3 0.7-0.1 0.3-0.2 0.5-0.1 0.4-0.2 0.8 0 0.3-0.1 0.6 0 0.2 0 0.5 0 0 0 0.1-0.1 0.1 0 0.2-0.1 0.4-0.1 0.9v22.3h22.3z"/>
		<path id="Layer" class="s0" d="m127 225.1v16.9l-5.8-6.1-18.3 18v-14.5l10-10 9.1-9.2 5 4.9z"/>
		<path id="Layer" class="s0" d="m263.6 239.4v14.5l-18.3-18-5.8 6.1v-16.9l5-4.9 9.1 9.2 10 10z"/>
	</g>
	<g id="Layer">
		<path id="Layer" fill-rule="evenodd" class="s1" d="m366.5 184.3c0 24.7-4.8 48.7-14.4 71.3-9.2 21.8-22.4 41.4-39.2 58.3-16.9 16.8-36.5 30-58.3 39.2-22.5 9.6-46.5 14.4-71.1 14.4h-0.5c-24.6 0-48.6-4.8-71.1-14.4-21.8-9.2-41.4-22.4-58.2-39.2-16.9-16.9-30.1-36.5-39.3-58.3-9.6-22.6-14.4-46.6-14.4-71.3 0-24.8 4.8-48.8 14.4-71.4q4.9-11.7 11.4-22.5 0.4-0.6 0.7-1.2c32-53.1 90.1-88.7 156.5-88.8h0.5c66.4 0.1 124.5 35.7 156.5 88.8q0.3 0.6 0.7 1.2c4.3 7.2 8.1 14.7 11.4 22.5 9.6 22.6 14.4 46.6 14.4 71.4zm-7 0c0-23.8-4.7-46.9-13.9-68.6q-4.7-11.3-10.9-21.7-0.4-0.6-0.8-1.2c-30.7-51-86.6-85.2-150.4-85.3h-0.5c-63.8 0.1-119.7 34.3-150.4 85.3q-0.4 0.6-0.7 1.2-6.3 10.4-11 21.7c-9.2 21.7-13.9 44.8-13.9 68.6 0 23.7 4.7 46.8 13.9 68.5 8.9 21 21.6 39.9 37.7 56.1 16.2 16.1 35.1 28.8 56.1 37.7 21.6 9.2 44.6 13.8 68.3 13.9h0.5c23.7-0.1 46.7-4.7 68.3-13.9 21-8.9 39.9-21.6 56.1-37.7 16.1-16.2 28.8-35.1 37.7-56.1 9.2-21.7 13.9-44.8 13.9-68.5z"/>
		<path id="Layer" fill-rule="evenodd" class="s1" d="m311.9 184.3c0 25.3-7.3 48.9-19.9 68.8-3.4 5.3-7.1 10.3-11.2 15.1-12 13.9-26.9 25.2-43.8 33q-7.5 3.4-15.4 5.9-1.8 0.6-3.5 1.1-0.2 0-0.4 0.1-1.2 0.3-2.5 0.6-1.4 0.4-2.8 0.7-1.2 0.3-2.4 0.5-1.1 0.3-2.3 0.5-1.2 0.2-2.4 0.4-2.4 0.5-4.8 0.8-1.2 0.1-2.4 0.3-1.3 0.1-2.5 0.2-1.2 0.2-2.4 0.2-1 0.1-1.9 0.2-1.2 0.1-2.3 0.1-0.8 0-1.5 0.1-0.8 0-1.6 0-0.7 0-1.5 0h-0.5q-0.2 0-0.4 0h-0.5q-0.2 0-0.4 0h-0.5q-0.8 0-1.5 0-0.8 0-1.6 0-0.7-0.1-1.5-0.1-1.2 0-2.3-0.1-0.9-0.1-1.9-0.2-1.2 0-2.4-0.2-1.2-0.1-2.5-0.2-1.2-0.2-2.4-0.3-2.4-0.3-4.8-0.8-1.2-0.2-2.4-0.4-1.2-0.2-2.3-0.5-1.2-0.2-2.4-0.5-1.4-0.3-2.8-0.7-1.3-0.3-2.5-0.6-0.2-0.1-0.4-0.1-1.7-0.5-3.5-1.1-7.9-2.5-15.4-5.9c-16.9-7.8-31.8-19.1-43.8-33-4.1-4.8-7.8-9.8-11.2-15.1-12.6-19.9-19.9-43.5-19.9-68.9q0-1 0-2 0-0.6 0-1.1 0-0.5 0-1 0.1-1 0.1-2.1 0.1-1 0.1-2 0.1-1.6 0.3-3.1 0-0.1 0-0.2 0.1-1 0.2-2 0.1-1.1 0.2-2.2l0.2-1q0-0.5 0.1-1 0-0.2 0.1-0.5 0.1-0.9 0.2-1.7 0-0.1 0-0.2 0.2-1 0.4-2.1 0.3-1.8 0.7-3.7 0.6-2.9 1.3-5.8 0.3-1.3 0.7-2.6 0.3-1.2 0.7-2.4 0-0.1 0-0.2 0.4-1.2 0.8-2.5 0.2-0.6 0.5-1.3 0.2-0.6 0.4-1.2 0.3-0.9 0.6-1.8 0-0.1 0.1-0.3 0.4-1 0.7-1.9 0.4-1 0.8-2 0.8-2 1.6-3.9 0.3-0.5 0.5-1.1 0.7-1.5 1.5-3 0.3-0.8 0.7-1.5 0.4-0.8 0.7-1.5 0.1-0.1 0.1-0.2 0.3-0.5 0.6-1.1 0.3-0.5 0.6-1 0.4-0.9 0.9-1.8 0.6-0.9 1.1-1.9 0.6-1 1.3-2.1 0.6-1 1.3-2.1 0.5-0.7 1-1.5 0.2-0.3 0.3-0.5 0.7-1 1.4-2 0.2-0.4 0.5-0.7 0.3-0.6 0.7-1.1 0.5-0.6 1-1.3 0.1-0.1 0.2-0.3 1-1.3 2-2.6 0.9-1.1 1.8-2.2 0.6-0.8 1.3-1.6 0.5-0.6 1-1.2 3-3.5 6.4-6.8 0.8-0.9 1.7-1.7 0.3-0.4 0.7-0.7 0.1-0.1 0.2-0.3 0.6-0.5 1.2-1 0.2-0.2 0.4-0.4 0.1-0.1 0.2-0.2 1.2-1 2.3-2 1.2-1 2.3-2 0.1 0 0.1 0 1.1-1 2.2-1.9 0.4-0.2 0.7-0.5 0.4-0.2 0.7-0.5 0.6-0.5 1.3-1 0.9-0.7 1.8-1.3 0.1-0.1 0.2-0.2 2.1-1.5 4.3-2.9 0.6-0.4 1.2-0.8 0.8-0.5 1.7-1.1 0.5-0.3 1-0.6 0.7-0.4 1.4-0.8 0.6-0.4 1.3-0.8 1-0.6 2-1.1 1.3-0.7 2.6-1.4 0.4-0.2 0.9-0.5 0.8-0.4 1.7-0.8 0.1-0.1 0.1-0.1 1.3-0.6 2.7-1.2 1.3-0.7 2.7-1.3 0.7-0.3 1.4-0.6 0.6-0.2 1.3-0.5 0.1 0 0.1-0.1 1.4-0.5 2.8-1.1 0 0 0.1 0 1.4-0.5 2.8-1 1.5-0.5 2.9-1 1.5-0.5 3-1 1.2-0.3 2.3-0.6 0.5-0.1 1-0.3 0.6-0.2 1.3-0.3 1.1-0.3 2.1-0.6 1.1-0.2 2.1-0.5 0.2 0 0.4 0 0.8-0.2 1.6-0.4 0.8-0.1 1.6-0.3 0.8-0.2 1.6-0.3 1.3-0.2 2.6-0.4 0.7-0.1 1.3-0.2 1.2-0.2 2.5-0.4 0.6 0 1.2-0.1 2.1-0.3 4.2-0.5 0.6 0 1.3 0 1.2-0.1 2.3-0.2 1.3-0.1 2.5-0.1 1.2-0.1 2.4-0.1 0.9 0 1.9 0h1.5q1 0 1.9 0 1.2 0 2.4 0.1 1.2 0 2.4 0.1 1.3 0.1 2.5 0.2 0.6 0 1.2 0 2.1 0.2 4.2 0.5 0.6 0.1 1.2 0.1 1.3 0.2 2.5 0.4 0.6 0.1 1.3 0.2 1.3 0.2 2.6 0.4 0.8 0.1 1.6 0.3 0.8 0.2 1.6 0.3 0.8 0.2 1.6 0.4 0.2 0 0.4 0 1 0.3 2.1 0.5 1 0.3 2.1 0.6 0.7 0.1 1.3 0.3 0.5 0.2 1 0.3 1.1 0.3 2.3 0.6 1.5 0.5 3 1 1.4 0.5 2.9 1 1.4 0.5 2.8 1 0.1 0 0.1 0 1.4 0.6 2.8 1.1 0 0.1 0.1 0.1 0.7 0.3 1.3 0.5 0.7 0.3 1.4 0.6 1.4 0.6 2.7 1.3 1.4 0.6 2.7 1.2 0 0 0.1 0.1 0.9 0.4 1.7 0.8 0.5 0.3 0.9 0.5 1.3 0.7 2.6 1.4 1 0.5 2 1.1 0.7 0.4 1.3 0.8 0.7 0.4 1.4 0.8 0.5 0.3 1 0.6 0.9 0.6 1.7 1.1 0.6 0.4 1.2 0.8 2.2 1.4 4.3 2.9 0.1 0.1 0.2 0.2 0.9 0.6 1.8 1.3 0.7 0.5 1.3 1 0.3 0.3 0.7 0.5 0.3 0.3 0.7 0.5 1.1 0.9 2.2 1.9 0 0 0.1 0 1.1 1 2.3 2 1.1 1 2.3 2 0.1 0.1 0.2 0.2 0.2 0.2 0.4 0.4 0.6 0.5 1.2 1 0.1 0.2 0.2 0.3 0.4 0.3 0.7 0.7 0.9 0.8 1.7 1.7 3.4 3.3 6.4 6.8 0.5 0.6 1 1.2 0.7 0.8 1.3 1.6 0.9 1.1 1.8 2.2 1 1.3 2 2.6 0.1 0.2 0.2 0.3 0.5 0.7 1 1.3 0.4 0.5 0.7 1.1 0.3 0.3 0.5 0.7 0.7 1 1.4 2 0.1 0.2 0.3 0.5 0.5 0.8 1 1.5 0.7 1.1 1.3 2.1 0.7 1.1 1.3 2.1 0.5 1 1.1 1.9 0.5 0.9 0.9 1.8 0.3 0.5 0.6 1 0.3 0.6 0.6 1.1 0 0.1 0.1 0.2 0.3 0.7 0.7 1.5 0.4 0.7 0.8 1.5 0.7 1.5 1.4 3 0.2 0.6 0.5 1.1 0.8 1.9 1.6 3.9 0.4 1 0.8 2 0.3 0.9 0.7 1.9 0.1 0.2 0.1 0.3 0.3 0.9 0.6 1.8 0.2 0.6 0.5 1.2 0.2 0.7 0.4 1.3 0.4 1.3 0.8 2.5 0 0.1 0 0.2 0.4 1.2 0.7 2.4 0.4 1.3 0.7 2.6 0.7 2.9 1.3 5.8 0.4 1.9 0.7 3.7 0.2 1.1 0.4 2.1 0 0.1 0 0.2 0.1 0.8 0.2 1.7 0.1 0.3 0.1 0.5 0.1 0.5 0.2 1 0 0.5 0.1 1 0.1 1.1 0.2 2.2 0.1 1 0.2 2 0 0.1 0 0.2 0.2 1.5 0.3 3.1 0 1 0.1 2 0 1.1 0.1 2.1 0 0.5 0 1 0 0.5 0 1.1 0 1 0 2zm-7.2 0q0-0.9 0-1.9 0-0.5 0-1 0-0.5 0-1-0.1-0.9-0.1-1.9 0-1-0.1-1.9-0.1-1.5-0.2-3 0-0.1 0-0.1-0.1-1-0.2-2-0.1-1-0.3-2 0-0.5-0.1-0.9 0-0.5-0.1-1 0-0.2-0.1-0.5-0.1-0.8-0.2-1.6 0-0.1 0-0.1-0.2-1-0.4-2-0.3-1.8-0.6-3.5-0.6-2.8-1.3-5.5-0.3-1.3-0.6-2.5-0.4-1.1-0.7-2.3 0 0 0-0.1-0.4-1.2-0.8-2.4-0.2-0.6-0.4-1.2-0.2-0.6-0.4-1.2-0.3-0.8-0.5-1.6-0.1-0.2-0.2-0.3-0.3-1-0.7-1.9-0.3-0.9-0.7-1.8-0.7-1.9-1.5-3.7-0.2-0.5-0.5-1.1-0.6-1.4-1.3-2.8-0.4-0.7-0.7-1.4-0.4-0.7-0.7-1.4-0.1-0.1-0.1-0.2-0.3-0.5-0.6-1-0.2-0.5-0.5-1-0.4-0.8-0.9-1.6-0.5-1-1-1.9-0.6-1-1.2-1.9-0.6-1-1.3-2-0.4-0.7-0.9-1.5-0.2-0.2-0.3-0.4-0.6-1-1.3-1.9-0.2-0.4-0.5-0.7-0.3-0.5-0.7-1-0.4-0.6-0.8-1.2-0.2-0.2-0.3-0.3-0.9-1.3-1.8-2.5-0.9-1-1.7-2.1-0.7-0.7-1.3-1.5-0.5-0.5-0.9-1.1-2.9-3.3-6-6.5-0.9-0.8-1.7-1.6-0.3-0.3-0.7-0.6-0.1-0.1-0.2-0.2-0.5-0.5-1.1-1-0.1-0.2-0.3-0.4-0.1-0.1-0.3-0.2-1-1-2.2-1.9-1-0.9-2.1-1.8 0-0.1-0.1-0.1-1-0.9-2.1-1.7-0.3-0.2-0.6-0.5-0.3-0.3-0.7-0.5-0.6-0.5-1.2-0.9-0.8-0.7-1.7-1.3-0.1 0-0.2-0.1-2-1.4-4-2.8-0.6-0.4-1.2-0.7-0.8-0.6-1.6-1-0.5-0.3-1-0.7-0.6-0.3-1.2-0.7-0.6-0.4-1.3-0.7-0.9-0.6-1.9-1.1-1.2-0.7-2.4-1.3-0.4-0.2-0.8-0.5-0.9-0.4-1.7-0.8 0 0-0.1 0-1.2-0.6-2.5-1.2-1.3-0.6-2.6-1.2-0.6-0.3-1.3-0.5-0.6-0.3-1.2-0.6-0.1 0-0.1 0-1.4-0.5-2.7-1.1 0 0 0 0-1.4-0.5-2.7-1-1.4-0.4-2.8-0.9-1.4-0.4-2.8-0.9-1.1-0.3-2.1-0.6-0.5-0.1-0.9-0.2-0.7-0.2-1.3-0.4-1-0.2-2-0.5-1-0.2-2-0.4-0.2-0.1-0.4-0.1-0.7-0.2-1.5-0.3-0.7-0.2-1.5-0.3-0.8-0.2-1.5-0.3-1.2-0.2-2.4-0.4-0.7-0.1-1.3-0.2-1.1-0.2-2.3-0.3-0.6-0.1-1.2-0.2-1.9-0.2-4-0.4-0.5 0-1.1-0.1-1.1-0.1-2.3-0.1-1.1-0.1-2.2-0.2-1.2 0-2.3 0-0.9 0-1.8 0h-1.5q-0.9 0-1.8 0-1.1 0-2.3 0-1.1 0.1-2.2 0.2-1.2 0-2.3 0.1-0.6 0.1-1.2 0.1-2 0.2-4 0.4-0.5 0.1-1.1 0.2-1.2 0.1-2.3 0.3-0.6 0.1-1.3 0.2-1.2 0.2-2.4 0.4-0.7 0.1-1.5 0.3-0.8 0.1-1.5 0.3-0.8 0.1-1.5 0.3-0.2 0-0.4 0.1-1 0.2-2 0.4-1 0.3-2 0.5-0.6 0.2-1.3 0.4-0.4 0.1-0.9 0.2-1 0.3-2.1 0.6-1.4 0.5-2.8 0.9-1.4 0.5-2.8 0.9-1.3 0.5-2.7 1 0 0 0 0-1.3 0.6-2.7 1.1 0 0-0.1 0-0.6 0.3-1.2 0.6-0.7 0.2-1.3 0.5-1.3 0.6-2.6 1.2-1.3 0.6-2.5 1.2-0.1 0-0.1 0-0.8 0.4-1.7 0.8-0.4 0.3-0.8 0.5-1.2 0.6-2.4 1.3-1 0.5-1.9 1.1-0.7 0.3-1.3 0.7-0.6 0.4-1.2 0.7-0.5 0.4-1 0.7-0.8 0.4-1.6 1-0.6 0.3-1.2 0.7-2 1.4-4 2.8-0.1 0.1-0.2 0.1-0.9 0.6-1.7 1.3-0.6 0.4-1.2 0.9-0.4 0.2-0.7 0.5-0.3 0.3-0.6 0.5-1.1 0.8-2.1 1.7-0.1 0-0.1 0.1-1.1 0.9-2.2 1.8-1.1 0.9-2.1 1.9-0.2 0.1-0.3 0.2-0.2 0.2-0.3 0.4-0.6 0.5-1.1 1-0.1 0.1-0.2 0.2-0.4 0.3-0.7 0.6-0.8 0.8-1.7 1.6-3.1 3.2-6 6.5-0.4 0.6-0.9 1.1-0.6 0.8-1.2 1.5-0.9 1.1-1.8 2.1-0.9 1.2-1.8 2.5-0.1 0.1-0.3 0.3-0.4 0.6-0.8 1.2-0.4 0.5-0.7 1-0.3 0.3-0.5 0.7-0.7 0.9-1.3 1.9-0.1 0.2-0.3 0.4-0.5 0.8-1 1.5-0.6 1-1.2 2-0.6 0.9-1.1 1.9-0.6 0.9-1.1 1.9-0.5 0.8-0.9 1.6-0.3 0.5-0.5 1-0.3 0.5-0.6 1 0 0.1-0.1 0.2-0.3 0.7-0.7 1.4-0.3 0.7-0.7 1.4-0.7 1.4-1.3 2.8-0.3 0.6-0.5 1.1-0.8 1.8-1.5 3.7-0.4 0.9-0.7 1.8-0.4 0.9-0.7 1.9-0.1 0.1-0.2 0.3-0.2 0.8-0.5 1.6-0.2 0.6-0.4 1.2-0.2 0.6-0.4 1.2-0.4 1.2-0.8 2.4 0 0.1 0 0.1-0.3 1.2-0.7 2.3-0.3 1.2-0.6 2.5-0.7 2.7-1.3 5.5-0.3 1.7-0.6 3.5-0.2 1-0.4 2 0 0 0 0.1-0.1 0.8-0.2 1.6-0.1 0.3-0.1 0.5-0.1 0.5-0.1 1-0.1 0.4-0.1 0.9-0.2 1-0.3 2-0.1 1-0.2 2 0 0 0 0.1-0.1 1.5-0.2 3-0.1 0.9-0.1 1.9 0 1-0.1 1.9 0 0.5 0 1 0 0.5 0 1 0 1 0 1.9c0 24 6.9 46.3 18.8 65 3.2 5.1 6.7 9.8 10.6 14.3 11.3 13.1 25.4 23.8 41.3 31.2q7.1 3.2 14.5 5.5 1.7 0.6 3.4 1 0.2 0.1 0.3 0.1 1.2 0.4 2.4 0.7 1.3 0.3 2.6 0.6 1.1 0.3 2.3 0.5 1.1 0.2 2.2 0.5 1.1 0.2 2.2 0.4 2.3 0.4 4.6 0.7 1.1 0.1 2.3 0.3 1.1 0.1 2.3 0.2 1.1 0.1 2.3 0.2 0.9 0.1 1.8 0.1 1 0.1 2.1 0.1 0.7 0 1.5 0.1 0.7 0 1.4 0 0.7 0 1.4 0h0.5q0.2 0 0.4 0h0.5q0.2 0 0.4 0h0.5q0.7 0 1.4 0 0.7 0 1.4 0 0.8 0 1.5-0.1 1.1 0 2.1-0.1 0.9 0 1.8-0.1 1.2-0.1 2.3-0.2 1.2-0.1 2.3-0.2 1.2-0.2 2.3-0.3 2.3-0.3 4.6-0.7 1.1-0.2 2.2-0.4 1.1-0.3 2.2-0.5 1.2-0.2 2.2-0.5 1.4-0.3 2.7-0.6 1.2-0.3 2.4-0.7 0.1 0 0.3-0.1 1.7-0.4 3.4-1 7.4-2.3 14.5-5.5c15.9-7.4 30-18.1 41.4-31.2 3.8-4.5 7.3-9.2 10.5-14.3 11.9-18.7 18.8-41 18.8-65z"/>
		<g id="Layer">
			<path id="Layer" class="s1" d="m194.4 172v22.3h-22.3v-22.3q0-0.4 0-0.9 0-0.1 0.1-0.2 0 0 0-0.1 0-0.2 0-0.5 0.1-0.2 0.1-0.5 0.1-0.4 0.2-0.8 0.1-0.3 0.2-0.5 0.1-0.4 0.3-0.8 0.1-0.2 0.1-0.4 0.2-0.3 0.3-0.6 0.2-0.2 0.3-0.4 0.1-0.3 0.3-0.5 0.1-0.2 0.3-0.4 0.2-0.2 0.3-0.5 0.3-0.2 0.5-0.5 0.2-0.2 0.5-0.4 0.4-0.5 1-0.9 0.2-0.2 0.4-0.3 0.2-0.2 0.5-0.3 0.1-0.1 0.3-0.2 0.3-0.1 0.5-0.3 0.2 0 0.3-0.1 0.1 0 0.1-0.1 0.1 0 0.3-0.1 0.2-0.1 0.4-0.1 0.4-0.2 0.9-0.3 0.2-0.1 0.4-0.1 0 0 0.1 0 0 0 0-0.1 0.3 0 0.5 0 0.3-0.1 0.6-0.1 0.2-0.1 0.4-0.1h0.1q0.3 0 0.6 0 0.1 0 0.3 0 0.1 0 0.2 0 0.3 0 0.6 0h0.1q0.2 0 0.4 0.1 0.3 0 0.6 0.1 0.2 0 0.5 0 0 0.1 0 0.1 0.1 0 0.1 0 0.2 0 0.4 0.1 0.5 0.1 0.9 0.3 0.2 0 0.4 0.1 0.2 0.1 0.3 0.1 0 0.1 0.1 0.1 0.1 0.1 0.3 0.1 0.2 0.2 0.5 0.3 0.2 0.1 0.3 0.2 0.3 0.1 0.5 0.3 0.2 0.1 0.4 0.3 0.6 0.4 1 0.9 0.3 0.2 0.5 0.4 0.2 0.3 0.5 0.5 0.1 0.3 0.3 0.5 0.2 0.2 0.3 0.4 0.2 0.2 0.3 0.5 0.1 0.2 0.3 0.4 0.1 0.3 0.3 0.6 0 0.2 0.1 0.4 0.2 0.4 0.3 0.8 0.1 0.2 0.2 0.5 0.1 0.4 0.2 0.8 0 0.3 0.1 0.5 0 0.3 0 0.5 0 0.1 0 0.1 0.1 0.1 0.1 0.2 0 0.5 0 0.9z"/>
			<path id="Layer" fill-rule="evenodd" class="s1" d="m297.7 184.3c0 15.4-3 30.4-9 44.5q-0.3 0.8-0.7 1.7-0.1 0.1-0.1 0.3-0.3 0.6-0.6 1.3-0.2 0.2-0.3 0.5-0.3 0.8-0.7 1.6-0.4 0.8-0.8 1.5l-0.1 0.2-19.5-20.7-9.8 10.3 10 10.4 12.5 12.5c0 0-6.7 9.1-12.5 14.8-0.6 0.6-1.4 1.4-1.9 2-8.9 8.9-19.1 16.2-30.2 21.7v-185.8h-34v33.4h-33.5v-33.4h-34v185.8c-11.1-5.5-21.3-12.8-30.2-21.7-0.5-0.6-1.3-1.4-1.9-2-5.8-5.7-12.5-14.8-12.5-14.8l12.5-12.5 10-10.4-9.8-10.3-19.5 20.7-0.1-0.2q-0.4-0.7-0.8-1.5-0.4-0.8-0.7-1.6-0.1-0.3-0.3-0.5-0.3-0.7-0.6-1.3 0-0.2-0.1-0.3-0.4-0.9-0.7-1.7c-6-14.1-9-29.1-9-44.6 0-15.4 3-30.4 9-44.5 5.8-13.6 14-25.9 24.5-36.4 10.5-10.5 22.8-18.7 36.4-24.5 14-6 29-9 44.3-9h0.5q1.3 0 2.6 0 1.2 0 2.3 0.1 0.4 0 0.9 0 1.3 0.1 2.6 0.2 0.8 0.1 1.6 0.1 0.9 0.1 1.9 0.2 0.1 0 0.3 0.1 0.9 0 1.9 0.2 1.3 0.1 2.6 0.3 0.4 0.1 0.9 0.2 1 0.1 1.9 0.3 0.6 0.1 1.2 0.2 0.6 0.1 1.3 0.2 0.5 0.1 1 0.2 1.1 0.3 2.3 0.5 1.2 0.3 2.4 0.6 0.5 0.2 1.1 0.3 0.6 0.2 1.3 0.4 0.6 0.1 1.2 0.3 1.2 0.3 2.3 0.7 1.4 0.4 2.7 0.9 0.4 0.1 0.8 0.2 0.9 0.3 1.9 0.7 0 0 0 0 1 0.4 2 0.8 0.7 0.2 1.3 0.5 1 0.4 2 0.8c13.6 5.8 25.9 14 36.4 24.5 10.5 10.5 18.7 22.8 24.5 36.4 6 14.1 9 29.1 9 44.6zm-170.7 40.8l-5-4.9-9.1 9.2-10 10v14.5l18.3-18 5.8 6.1zm126.6 4.3l-9.1-9.2-5 4.9v16.8l5.8-6 18.3 17.9v-14.5z"/>
		</g>
		<g id="Layer">
			<path id="Layer" class="s1" d="m56.6 78.4l5.8-6.1 15.9 15 10.5-11.1 3.8 5-15.5 16.5z"/>
			<path id="Layer" fill-rule="evenodd" class="s1" d="m101.2 67.8l1.4 5.8-7.1 4.6-6.2-29.6 9.1-5.9 25 17.4-7.6 4.8-4.8-3.5zm4.7-10.4c-4.8-3.6-7.5-5.6-9.3-7.2l-0.1 0.1c0.7 2.2 1.8 6.3 2.9 11.3z"/>
			<path id="Layer" class="s1" d="m162.1 38.5c-0.9-4.5-1.9-9.6-2.4-12.8h-0.1c-0.2 5.6-0.6 13.3-1.4 23.9l-7 1.4c-4.2-8.6-7.9-16.2-10.5-21.4v0.1c0.9 3.1 2.3 8.4 3.2 13.1l2 9.3-7.3 1.6-5.8-27.6 11.8-2.4c3.6 6.8 6.9 13.1 8.6 17.3h0.1c0.1-5 0.6-11.8 1.3-19.4l11.7-2.5 5.8 27.5-7.9 1.7z"/>
			<path id="Layer" class="s1" d="m203.8 36.8l-15.2-0.9-0.3 5.2 17 0.9-1.3 6.2-24.3-1.4 1.6-28.1 24.3 1.4-0.4 6.2-16-0.9-0.2 4.3 15.2 0.8z"/>
			<path id="Layer" class="s1" d="m210.9 43.7l20-11.3-14.6-4.3 1.8-5.8 24.5 7.2-1.7 5.8-19.6 10.9 16.4 4.9-2.6 5.6-25.8-7.7z"/>
			<path id="Layer" class="s1" d="m242.2 53.7l22.1-6.3-13.2-7.6 3-5.3 22.3 12.8-3 5.2-21.6 6.1 14.8 8.5-3.8 4.8-23.3-13.4z"/>
			<path id="Layer" fill-rule="evenodd" class="s1" d="m277.7 77.3l-5.3 2.6-6.1-5.9 27.4-12.6 7.8 7.5-11.3 28.3-6.5-6.3 2.4-5.4zm11.2 2.2c2.4-5.5 3.8-8.6 4.9-10.7l-0.1-0.1c-2 1.2-5.8 3.2-10.3 5.4z"/>
		</g>
		<g id="Layer">
			<path id="Layer" class="s1" d="m19.2 192.1v-0.1c0-2.9 1-5.3 4.6-8.5 2-1.8 2.6-2.5 2.6-4 0-1.3-0.5-2-1.7-2-1.3 0-1.8 1-1.9 2.7h-3.6c0-2.9 1.5-5.7 5.6-5.7 3.7 0 5.5 2.2 5.5 5.1 0 2.1-0.6 3.3-3.4 5.6-1.5 1.4-2.8 2.6-3.2 3.8h7l-0.4 3.1z"/>
			<path id="Layer" fill-rule="evenodd" class="s1" d="m44 183.2c0 5.9-1.5 9.2-5.9 9.2-4.3 0-5.9-3.3-5.9-9.1 0-6 2.2-8.8 6-8.8 3.9 0 5.8 2.7 5.8 8.7zm-7.9 0c0 4.2 0.4 6.3 2 6.3 1.8 0 2.1-2.2 2.1-6.3 0-4.1-0.4-5.7-2-5.7-1.5 0-2.1 1.5-2.1 5.7z"/>
		</g>
		<g id="Layer">
			<path id="Layer" class="s1" d="m329.1 192.1v-13.1c-0.5 0-1.5 0-1.9-0.1v-2.7c1.3-0.1 2.5-0.7 3.2-1.4h2.5v17.3z"/>
			<path id="Layer" fill-rule="evenodd" class="s1" d="m342.4 192.1v-3.9h-6.9v-3.1l5.6-10.3h4.8v10.4h1.7l-0.3 3h-1.4v3.9zm0-10.1c0-2 0.1-3.1 0.1-4.4-0.7 1.8-2.5 5.4-3.5 7.6h3.4z"/>
		</g>
		<g id="Layer">
			<path id="Layer" class="s1" d="m111.2 310.1l-8.3-4.4 2.9-5.4 23.8 12.6-2.9 5.4-8.3-4.4-10.1 19.2-7.3-3.9z"/>
			<path id="Layer" fill-rule="evenodd" class="s1" d="m159.6 335.7c-1.9 7.5-8.6 12.8-18.9 10.2-9.5-2.5-13.2-10.1-11.1-18 1.9-7.4 9-12.6 18.8-10 9.6 2.5 13.2 10.3 11.2 17.8zm-21.6-5.7c-1.2 4.8 0 9 4.6 10.2 4.8 1.2 7.5-2.6 8.6-6.6 1.2-4.6 0.3-8.8-4.5-10-4.7-1.2-7.5 2.1-8.7 6.4z"/>
			<path id="Layer" fill-rule="evenodd" class="s1" d="m177.7 340.3l-0.2 10.3-8.1-0.1 0.5-27.8 16.2 0.3c6.7 0.1 10.3 3.5 10.2 8.2 0 3.6-2.2 5.6-4.9 6.5 1.3 0.6 4.1 1.8 4 6.6v1.5c-0.1 1.7-0.1 3.8 0.2 5.1l-8.3-0.1c-0.4-1.2-0.5-2.8-0.4-5.8v-0.9c0-2.6-0.8-3.6-4.5-3.7zm0.1-5.6l6 0.1c2.8 0 4.1-1 4.2-3 0-2-1.3-3.1-4-3.1l-6.1-0.1z"/>
			<path id="Layer" fill-rule="evenodd" class="s1" d="m215.5 337.2l2.3 10.1-7.9 1.8-6.3-27 15.7-3.7c6.6-1.6 10.9 0.8 12 5.4 0.8 3.5-0.8 6-3.2 7.5 1.4 0.3 4.4 0.8 5.5 5.5l0.3 1.4c0.4 1.7 0.9 3.7 1.5 4.9l-8.1 1.9c-0.7-1-1.1-2.6-1.8-5.5l-0.2-0.9c-0.6-2.5-1.7-3.3-5.3-2.5zm-1.3-5.4l5.9-1.4c2.7-0.6 3.8-1.9 3.3-3.9-0.5-1.9-2-2.7-4.6-2.1l-6 1.4z"/>
			<path id="Layer" class="s1" d="m264.1 317.8l-13.5 6.7 2.3 4.5 15-7.5 1.9 6-21.5 10.7-12.4-24.9 21.5-10.7 2.8 5.5-14.2 7.1 1.9 3.8 13.4-6.8z"/>
		</g>
	</g>
</svg>