<?xml version="1.0" encoding="UTF-8" standalone="no"?>
<svg
   version="1.0"
   width="500.000000pt"
   height="500.000000pt"
   viewBox="0 0 500.000000 500.000000"
   preserveAspectRatio="xMidYMid meet"
   id="svg11"
   sodipodi:docname="logo-min.svg"
   inkscape:version="1.3 (0e150ed6c4, 2023-07-21)"
   xmlns:inkscape="http://www.inkscape.org/namespaces/inkscape"
   xmlns:sodipodi="http://sodipodi.sourceforge.net/DTD/sodipodi-0.dtd"
   xmlns="http://www.w3.org/2000/svg"
   xmlns:svg="http://www.w3.org/2000/svg">
  <defs
     id="defs11" />
  <sodipodi:namedview
     id="namedview11"
     pagecolor="#505050"
     bordercolor="#ffffff"
     borderopacity="1"
     inkscape:showpageshadow="0"
     inkscape:pageopacity="0"
     inkscape:pagecheckerboard="1"
     inkscape:deskcolor="#505050"
     inkscape:document-units="pt"
     inkscape:zoom="1"
     inkscape:cx="201.5"
     inkscape:cy="341.5"
     inkscape:window-width="2560"
     inkscape:window-height="1011"
     inkscape:window-x="0"
     inkscape:window-y="0"
     inkscape:window-maximized="1"
     inkscape:current-layer="svg11" />
  <g
     transform="translate(0.000000,500.000000) scale(0.100000,-0.100000)"
     fill="#000000"
     stroke="none"
     id="g11"
     style="fill:#000000;fill-opacity:1">
    <path
       d="m 2320,4994 c -19,-2 -78,-9 -130,-15 -112.2526,-12.7703 -223.6602,-34.0911 -333.2547,-63.355 -209.8206,-56.0263 -412.9958,-141.1671 -602.7331,-251.1598 -144.31,-83.6581 -280.84648,-181.6926 -406.62086,-292.2281 C 677.04444,4222.5496 526.43907,4049.9108 403,3859 358.38174,3789.9171 317.41064,3719.1269 280.12175,3646.8933 216.01333,3522.7067 162.78867,3394.2541 120.62589,3262.8776 72.592251,3113.208 38.915535,2959.7436 19.859098,2804.469 -4.579651,2605.3386 -4.9730964,2403.2311 19.234234,2202.3324 39.366926,2035.2495 76.515668,1869.0027 131,1706 183.9612,1547.5401 249.48831,1399.8509 328.95036,1260.6508 383.06551,1165.8529 443.6435,1074.9922 511.11674,987.34779 578.40972,899.93757 652.56116,815.72661 734,734 862.15755,606.16938 998.01082,495.11968 1142.3985,400.53642 1297.7237,298.78832 1462.9252,216.09585 1639.0472,152.06751 1799.9811,93.560687 1970.0332,50.637757 2150,23 c 163,-25 538,-25 705,1 356.9967,54.423267 690.0609,179.39745 983.3845,364.96473 254.2393,160.84103 478.623,367.20329 662.8577,612.60267 28.922,38.5239 56.8545,78.0098 83.7578,118.4326 86.1617,129.4612 160.8458,270.3998 222.3792,418.8001 48.258,116.3839 88.4274,237.357 119.7013,360.9824 20.0239,79.1547 36.4011,159.3967 48.9195,240.2175 15.9031,99.6999 22.0789,282.8292 18.7564,446.8701 -2.1095,104.1506 -8.0478,200.6065 -17.7564,263.1299 -34.6439,221.8767 -94.5919,432.8439 -178.6643,630.5423 C 4666.4266,3790.73 4475.1293,4068.2533 4229,4304 c -85.556,81.9441 -175.9022,157.1107 -270.6359,225.2926 -174.2996,125.4473 -363.4519,227.2502 -564.9492,304.1191 C 3219.2894,4899.8385 3035.945,4947.6454 2845,4976 c -96,14 -452,27 -525,18 z m 530,-119 c 187.4361,-27.5723 369.2098,-77.0185 542.1023,-146.3079 172.2838,-69.0454 335.7489,-157.7946 487.2101,-264.2381 142.27,-99.9842 273.9489,-215.5804 392.397,-345.1233 C 4354.9852,4028.2546 4431.7212,3930.2848 4501,3826 4587.7102,3695.2608 4660.6947,3557.8605 4720.0442,3413.2551 4792.7951,3235.9972 4845.058,3047.9129 4877,2848 c 10.8494,-69.5167 17.0163,-173.103 18.5655,-283.5732 C 4897.8716,2399.9795 4889.9451,2220.2778 4872,2115 4844.3497,1952.7629 4801.6062,1795.8527 4744.6199,1646.0072 4630.5458,1346.0498 4459.3989,1074.4013 4238,845 4112.4724,714.24206 3976.5324,599.95465 3831.374,502.63287 3504.7269,283.63152 3131.4002,150.54006 2725,109 2675.4981,104.2205 2608.8634,101.88853 2536.8736,101.80515 2397.9925,101.64428 2239.1808,109.85203 2145,125 1986.6554,149.81069 1833.0712,189.43184 1685.9629,242.62416 1528.1553,299.68521 1377.7998,372.36329 1237.0138,459.12855 1013.1449,597.09717 813.47297,770.68571 646.51178,973.74305 565.89845,1071.7846 492.91071,1176.6959 428.50685,1287.7847 400.71364,1335.7246 374.51902,1384.8149 350,1435 280.16187,1577.0437 227.48769,1712.0816 188.03847,1852.5528 160.83344,1949.4247 139.91791,2048.8806 124,2155 c -14.78061,96.6424 -21.15866,252.7491 -19.13417,399.9761 1.53672,111.7543 7.91478,218.3924 19.13417,290.0239 27.6948,180.1872 72.57438,351.6066 134.51881,514.0184 64.49412,169.0969 147.48683,328.4294 248.84278,477.727 C 593.37679,3963.4459 692.61717,4082.9193 805,4195 c 137.95487,138.3015 289.4862,257.7401 451.8871,357.0249 185.4585,113.3812 385.0923,200.4795 594.8698,259.372 136.4903,38.3181 277.2748,64.6956 421.2431,78.6031 52.6344,5.1837 133.7293,6.8694 220.7146,5.818 131.1623,-1.5854 275.7172,-9.3942 356.2854,-20.818 z"
       id="path1"
       style="fill:#000000;fill-opacity:1"
       sodipodi:nodetypes="ccssscsssscsscssccsscsscscscsscccssscscscscscscsssscscscsscsscsc" />
    <path
       d="m 2205,4814 c -145.489,-19.6838 -285.9323,-51.4119 -420.8426,-94.8825 -128.5596,-41.4243 -252.0947,-93.5116 -370.1835,-156.0007 -101.8613,-53.9019 -199.6702,-115.5434 -293.1561,-184.7567 C 1037.7339,4316.8481 958.06467,4249.3555 882,4176 818.81713,4114.6846 761.73731,4053.8536 709.19266,3991.3662 655.40973,3927.4061 606.37825,3861.7107 560.41685,3791.9842 507.01214,3710.9658 457.75241,3624.5048 410,3529 383.55717,3475.6247 359.35237,3422.0628 337.3595,3368.1971 296.11128,3267.1704 262.64375,3165.0746 236.78477,3061.1351 216.81234,2980.8564 201.37872,2899.4778 190.40457,2816.6425 176.7506,2713.5793 170,2608.2609 170,2500 c 0,-72.5675 3.06861,-144.0994 9.21647,-214.6355 6.98694,-80.1632 17.95103,-159.0403 32.90786,-236.6896 21.04022,-109.2316 49.98163,-216.0338 86.86764,-320.5692 34.70147,-98.3444 76.43439,-194.6826 125.23489,-289.1502 32.52941,-62.9702 68.19914,-125.1091 107.01991,-186.4571 C 569.15634,1192.5904 610.07076,1133.4367 654,1075 699.12445,1015.0245 780.13799,926.01139 862.3775,843.74206 924.11584,781.98134 986.5451,724.0212 1035,685 c 116.4359,-93.67971 240.4957,-175.42022 371.3609,-244.89419 85.862,-45.58256 174.6536,-85.88462 266.1436,-120.81373 64.9418,-24.79346 131.2431,-46.87977 198.8215,-66.22586 C 1946.0275,231.68092 2022.2894,213.64396 2100,199 2209.3094,178.84799 2381.6413,169.13757 2543.4401,171.00739 2646.5955,172.1995 2745.4694,178.09868 2821,189 c 161.6935,23.5476 316.9796,61.78301 465.0845,114.30387 92.4548,32.78628 182.1112,71.13946 268.7809,114.96168 96.993,49.0419 190.2454,104.93326 279.4935,167.53691 C 3944.5036,663.06411 4048.5492,750.54925 4146,848 c 136.572,136.57202 255.003,288.377 353.2315,451.2407 83.1947,137.9373 151.8977,283.8074 204.8567,435.0742 52.5418,150.0752 89.5867,305.4624 109.9118,463.6851 12.9678,102.4457 17.9478,258.7039 14.3949,398.1739 -1.9267,75.6317 -6.3627,146.3266 -13.3949,200.8261 -13.585,106.3288 -35.565,213.3401 -65.1732,319.1618 -36.0474,128.836 -83.402,255.9086 -140.6799,377.839 -37.8134,80.4951 -79.9516,158.7492 -126.0166,233.79 C 4436.9066,3803.09 4386.7291,3875.1538 4333,3943 c -45.4016,57.6723 -128.4456,146.9642 -207.7922,225.6121 -49.9803,49.5402 -98.4936,94.8571 -135.2078,125.3879 -60.8315,50.8416 -125.1318,98.7236 -192.2309,143.3565 -100.0067,66.5222 -206.2307,125.8268 -316.4542,176.9554 -118.3398,54.8934 -241.2897,100.3623 -366.1051,135.2203 -52.6937,14.7161 -105.72,27.541 -158.8721,38.3856 -66.0502,13.476 -132.2949,23.8939 -198.3377,31.0822 -66.1907,7.5791 -175.272,10.5628 -282.869,9.467 C 2369.7798,4827.3942 2265.8514,4822.4104 2205,4814 Z m 492,-70 c 8.7498,-1.6827 15.2346,-3.5918 20.2927,-6.7947 4.1104,-2.6026 7.2787,-6.0596 9.9549,-10.9434 3.8166,-6.965 6.6324,-16.832 9.7524,-31.2619 l 3.75,-16.1249 6.25,-26.8751 -28,10 c -7.5553,2.5184 -18.6623,4.5294 -30.6376,5.6497 -11.8002,1.1039 -24.4434,1.3429 -35.3624,0.3503 -9.5737,-0.6382 -16.9069,-1.582 -22.4547,-3.0913 -6.7719,-1.8423 -10.8834,-4.5272 -13.1621,-8.5276 -1.7042,-2.992 -2.3832,-6.7197 -2.3832,-11.3811 0,-7.1654 1.066,-11.8436 4.6955,-14.7834 3.1254,-2.5315 8.1516,-3.7739 16.0349,-4.2055 4.6819,-0.2564 10.3717,-0.2267 17.2696,-0.011 7.6251,0.1906 13.9057,0.1632 18.9941,-0.4217 5.2419,-0.6025 9.2186,-1.7966 12.0968,-3.9533 1.861,-1.3945 3.2627,-3.1914 4.2502,-5.491 1.1567,-2.6936 1.7451,-6.0768 1.8377,-10.3109 0.09,-4.1239 -0.2901,-9.055 -1.0738,-14.9421 -0.5001,-3.7558 -1.1643,-7.9007 -1.9755,-12.4734 -0.8783,-4.9513 -1.9288,-10.4041 -3.1295,-16.4076 -1.1163,-5.2093 -2.0941,-9.4841 -3.1331,-12.9402 -1.0207,-3.3951 -2.1004,-6.0002 -3.4284,-7.9251 -1.9085,-2.7665 -4.3298,-4.1283 -7.8257,-4.4115 -2.2119,-0.1792 -4.8539,0.073 -8.0683,0.6751 -3.9139,0.7327 -8.6765,1.9829 -14.5445,3.6017 -9.3028,2.5841 -17.8042,4.9011 -23.9859,6.5369 -3.725,0.9857 -6.6077,1.724 -8.3157,2.1243 -0.942,0.2208 -1.5267,0.3388 -1.6984,0.3388 -0.2965,0 -0.571,-0.3516 -0.8235,-1.0158 -0.5164,-1.3579 -0.9408,-4.0224 -1.2734,-7.6592 -0.3485,-3.8102 -0.5961,-8.6878 -0.7429,-14.2484 C 2610.0534,4523.0301 2610,4518.6219 2610,4514 V 4501.3587 4478 l 69,4 22.0979,1.2999 L 2747,4486 l -15,-43 -6.463,-17.3693 L 2716,4400 H 2673.6103 2620 c -21.6058,0 -42.521,0.6905 -60.02,1.7847 -9.0585,0.5664 -17.2015,1.241 -24.051,1.9839 -11.7642,1.2761 -19.7125,2.7537 -21.929,4.2314 -3.4126,2.4375 -5.3991,9.866 -5.9597,22.7488 -0.3185,7.3196 -0.1767,16.3999 0.4254,27.326 0.512,9.29 1.3568,19.9143 2.5343,31.9252 2.1518,22.0555 4.3035,54.2393 5.8326,87.2113 0.694,14.9654 1.2598,30.0932 1.639,44.5101 0.3385,12.866 0.5284,25.1658 0.5284,36.2786 l 0.6142,56.5072 L 2520,4750 h 74 c 16.7244,0 34.6725,-0.5244 51.0668,-1.3541 22.8163,-1.1546 42.623,-2.9002 51.9332,-4.6459 z m -477,-28 c 0,-4.972 1.0265,-14.1141 2.8167,-26.1722 2.1006,-14.1478 5.2525,-32.3098 9.0316,-52.4607 7.092,-37.8155 16.3927,-82.635 25.0979,-121.0721 5.0394,-22.2511 9.8792,-42.3633 13.9755,-57.7398 3.8196,-14.3376 6.9927,-24.5577 9.0783,-28.5552 4.9774,-9.5993 8.3116,-15.6594 8.3398,-20.0677 0.051,-7.9909 -10.7608,-10.5542 -42.3398,-18.9323 -39.7167,-9.4564 -55.5873,-12.9512 -61.8934,-6.2252 -3.6968,3.9431 -4.1066,11.3988 -4.1066,23.2252 0,14.3262 -3.1483,39.2966 -7.5293,65.1012 -1.8798,11.072 -3.9865,22.2975 -6.1688,32.9017 -5.8676,28.511 -12.2818,52.5304 -16.3019,56.9971 -2.0703,2.0703 -6.0159,-8.7182 -10.7275,-27.6513 C 2134.881,4517.7021 2129.8242,4492.9801 2125,4465 l -10.3962,-61.2218 -2.7031,-15.9186 L 2107,4359 2086.0242,4390.8133 2047,4450 c -33,50 -62,89 -64,86 -5,-5 27,-146 38,-168 3.4085,-6.1972 5.2807,-10.8582 4.635,-14.6078 -0.5566,-3.2315 -2.9834,-5.7859 -7.9088,-8.0634 -7.8037,-3.6082 -21.8793,-6.521 -44.7262,-10.3288 -21.2504,-3.1098 -32.0239,-4.3392 -37.4723,-1.5995 -5.0636,2.5461 -5.5277,8.5204 -5.5277,19.5995 0,3.7048 -0.6302,10.0815 -1.7646,18.5132 -1.2057,8.9618 -2.9811,20.2452 -5.1749,33.1093 -4.2072,24.6701 -9.9532,55.1539 -16.1717,86.2272 -7.2527,36.2409 -15.148,73.2837 -21.9942,102.84 -3.4236,14.7807 -6.5849,27.6891 -9.2721,37.6888 -2.8034,10.4316 -5.091,17.6977 -6.6225,20.6215 -2.4208,4.8417 -3.2869,8.4873 -1.6054,11.5574 1.5035,2.7451 5.0436,5.03 11.3299,7.2982 7.0127,2.5303 17.4428,5.0399 32.2755,8.1444 14.2748,3.1722 28.8291,6.0648 40.4117,8.0868 10.3254,1.8026 18.2892,2.9132 21.5883,2.9132 2.3456,0 6.5999,-3.3684 12.1235,-9.2399 6.5668,-6.9806 14.9276,-17.4992 24.0075,-30.1016 6.0751,-8.4319 12.472,-17.7965 18.869,-27.6585 6.0809,-9.7823 11.8822,-18.9356 17.1267,-27.0531 7.7668,-12.0216 14.3123,-21.7717 18.7363,-27.9298 3.8877,-5.4116 6.137,-8.0493 6.137,-7.0171 0,1.6489 0.571,6.1257 1.5471,12.529 0.9072,5.9514 2.1643,13.5669 3.6382,22.1232 2.7945,16.2226 6.3682,35.8269 9.8132,53.8816 4.6391,24.3122 9.0451,45.8145 11.0015,52.4662 1.0665,3.5549 4.155,7.2363 8.8162,10.7295 8.4508,6.3331 22.0712,12.048 38.1838,15.2705 9.8676,2.2881 18.4876,4.2081 26.0152,5.7425 7.2434,1.4764 13.4752,2.5957 18.8335,3.3423 8.3528,1.1638 14.5829,1.4218 19.2137,0.7148 4.994,-0.7625 8.1277,-2.6473 10.0575,-5.7287 2.2816,-3.6433 2.8801,-8.9593 2.8801,-16.0709 z m 922,-57 c 3.7583,-1.1173 7.4546,-2.2656 11.0628,-3.4343 5.8147,-1.8834 11.4005,-3.82 16.6479,-5.7659 6.9036,-2.5601 13.2215,-5.1362 18.7039,-7.6286 6.3927,-2.9063 11.6495,-5.6987 15.3744,-8.2189 1.8926,-1.2804 3.3897,-2.4906 4.4395,-3.6097 1.1578,-1.2342 1.7715,-2.3577 1.7715,-3.3426 0,-3.5656 0.7784,-8.9473 1.9386,-14.8237 1.1176,-5.6602 2.5895,-11.7793 4.0614,-17.1763 0.3894,-1.5575 0.5608,-3.1435 0.4829,-4.793 -0.1053,-2.2302 -0.6664,-4.5766 -1.7609,-7.1257 -2.4749,-5.7638 -7.6766,-12.5641 -16.5017,-21.4027 -6.8478,-6.8583 -15.8772,-14.9438 -27.5069,-24.7246 -12.21,-10.2688 -27.2862,-22.4062 -45.7134,-36.954 -19.8152,-15.6235 -38.3236,-30.6662 -53.6437,-43.4681 -16.4772,-13.7687 -29.2664,-24.9454 -36.0271,-31.4647 C 3031.88,4421.7411 3030,4419.6273 3030,4419 c 0,-1.7083 2.9544,-3.813 7.9604,-6.1019 5.8871,-2.6918 14.6116,-5.6385 24.7053,-8.4953 14.0299,-3.9709 30.7052,-7.7681 46.0832,-10.4658 13.7142,-2.4058 26.3967,-3.937 35.2511,-3.937 6.0874,0 11.0168,-0.036 14.7951,-0.4252 3.7113,-0.3822 6.3119,-1.1048 7.8083,-2.468 1.849,-1.6844 2.0122,-4.3467 0.5021,-8.5532 -2.5642,-7.1424 -9.9527,-18.7364 -22.1055,-37.5536 l -26,-38 -62.3694,17.2905 L 3018,4331 c -27.9286,7.6169 -53.7943,14.9759 -72.6217,20.6368 -10.3054,3.0986 -18.502,5.6883 -23.774,7.5331 -4.064,1.4222 -6.39,2.4016 -6.6043,2.8301 -0.5686,0.5686 -1.2988,2.3494 -2.1447,5.0438 -2.1296,6.7835 -4.9924,19.3576 -7.8553,32.9562 -1.7053,9.6631 -2.8451,16.7415 -1.4452,23.5996 0.8781,4.3018 2.7555,8.517 6.1195,13.2292 3.1094,4.3555 7.4888,9.1355 13.5231,14.8011 6.0618,5.6914 13.7937,12.2763 23.5858,20.222 6.0024,4.8707 12.779,10.2527 20.4196,16.2537 7.9606,6.2523 16.8592,13.1766 26.7972,20.8944 5.403,4.26 10.6872,8.4769 15.8168,12.6181 6.229,5.0286 12.2299,9.9457 17.9385,14.6928 10.3733,8.6263 19.7814,16.6915 27.8386,23.8463 10.5732,9.389 18.8201,17.21 23.8691,22.6732 1.7446,1.8878 3.1074,3.494 4.0524,4.7862 0.7698,1.0524 1.2623,1.8965 1.4583,2.5146 0.1184,0.3733 0.1286,0.6642 0.026,0.8688 -0.5321,0.7982 -1.4049,1.6184 -2.5759,2.4523 -2.1449,1.5274 -5.2906,3.1003 -9.1766,4.6664 -5.3011,2.1364 -11.98,4.2601 -19.3755,6.2378 -10.4839,2.8037 -22.408,5.3142 -33.8892,7.1523 -8.1979,1.3125 -16.1699,2.2821 -23.2305,2.7708 -3.7615,0.2604 -7.2642,0.3842 -10.4047,0.3508 -3.1838,-0.034 -5.9953,-0.2296 -8.3263,-0.6088 -1.5691,-0.2552 -2.9205,-0.5935 -4.0213,-1.0216 -2.6429,-0.9737 -4.8795,-1.6959 -6.6747,-2.0804 -1.4858,-0.3182 -2.6693,-0.4051 -3.5307,-0.212 -1.3843,0.3104 -1.9368,1.3442 -1.575,3.3041 0.3975,2.1532 1.8984,5.4241 4.612,10.0814 4.773,8.1921 13.2978,20.6736 26.1684,38.9069 2.4849,3.7274 4.7657,7.021 7.0312,9.8794 2.6971,3.4031 5.3725,6.1894 8.3447,8.3563 3.7869,2.7608 8.0555,4.5163 13.4648,5.2614 3.0802,0.4243 6.5303,0.521 10.472,0.2891 6.6223,-0.3895 14.632,-1.7065 24.6061,-3.9552 9.5268,-2.1479 20.8457,-5.1459 34.4595,-8.9978 14.1906,-4.0151 30.8747,-8.9581 50.6217,-14.8332 z m 429,-176 c 19.2268,-10.529 34.3148,-18.8575 46.1512,-25.8131 13.3385,-7.8382 22.5479,-13.9329 28.8981,-19.4681 7.804,-6.8024 11.2899,-12.7599 12.8146,-20.0701 0.9437,-4.5244 1.1361,-9.5669 1.1361,-15.6487 0,-9.1162 -0.1526,-15.8666 -2.6503,-21.9168 -2.8732,-6.9598 -8.8496,-12.9929 -21.2666,-20.6346 -8.4858,-5.2222 -19.9796,-11.1957 -35.5465,-18.7295 -13.5336,-6.5498 -30.1458,-14.2789 -50.5366,-23.7191 -24.5237,-11.4444 -47.3768,-22.7217 -65.828,-32.2615 -19.2926,-9.9748 -33.7728,-18.05 -40.3183,-22.4303 -2.5104,-1.68 -3.8537,-2.8165 -3.8537,-3.3082 0,-1.1021 0.6625,-2.4551 1.8899,-4.0068 1.9444,-2.4579 5.3063,-5.4143 9.698,-8.6613 9.1781,-6.7857 22.854,-14.8406 37.4887,-22.2675 9.0091,-4.572 18.3815,-8.906 27.2916,-12.5594 8.9575,-3.6727 17.4477,-6.6577 24.6318,-8.505 l 30,-8 -36,-35 -36,-35 -95,49 -34.2669,17.8625 L 3310,4223 v 39 39 l 110,51 c 26.4176,12.1261 50.5845,23.8771 69.4954,33.6285 14.5402,7.4976 25.9732,13.8131 32.933,18.2081 4.8898,3.0878 7.5716,5.2276 7.5716,6.1634 0,0.8224 -0.7348,1.912 -2.0845,3.213 -4.8212,4.6473 -17.4886,11.9929 -32.5435,19.4987 -17.2355,8.5929 -37.6001,17.3957 -52.9028,22.5998 -8.5417,2.9049 -15.5063,4.6885 -19.4692,4.6885 -3.6047,0 -5.8255,0.692 -6.6196,2.2465 -1.0908,2.1354 0.5102,5.8983 4.9136,11.7308 3.9517,5.2343 10.1604,12.1353 18.706,21.0227 19,19 36,35 38,35 0.3865,0 2.2672,-0.7844 5.4038,-2.2377 7.1705,-3.3225 20.9046,-10.1408 38.3559,-19.075 14.4125,-7.3784 31.3604,-16.2 49.2403,-25.6873 z m -2141,-16 c 0,-4.7215 18.461,-26.859 47.16,-57.3673 19.928,-21.1843 44.7923,-46.4047 71.84,-72.6327 l 54.3977,-53.4757 L 1667,4221 l -48,-30 -49,-30 -15,29 c -3.5604,7.1208 -6.7687,12.8722 -9.9653,17.3007 -2.6058,3.6099 -5.2038,6.3407 -7.9785,8.2176 -4.233,2.8634 -8.8773,3.7395 -14.5876,2.7177 -9.1699,-1.641 -21.0889,-8.1762 -38.4686,-19.236 -18.6562,-11.2919 -28.8761,-19.6914 -31.8433,-29.1035 -3.0766,-9.7591 1.6442,-20.607 12.8433,-36.8965 15,-21 14,-23 -24,-48 -49,-30 -61,-31 -61,-4 0,5.3605 -2.8222,19.2607 -7.4771,38.3397 -5.436,22.2801 -13.3713,51.6224 -22.2305,82.6747 -11.6357,40.7842 -24.8651,84.518 -36.1184,119.0744 -11.166,34.2882 -20.3864,59.5409 -24.174,63.9112 -8,9 7,23 57,53 75,45 83,48 83,29 z m 1335,-162 c 199,-30 357,-80 540,-170 586,-287 973,-863 1014,-1507 34,-542 -151,-1038 -529,-1419 -312,-315 -736,-506 -1169,-527 -341,-17 -618,35 -901,169 -497,237 -860,680 -989,1205 -44,184 -55,289 -48,507 5.34079,176.2461 24.06324,314.4602 65.98906,453.3021 28.7252,95.1266 68.34256,190.548 122.01094,298.6979 263,530 766,898 1355,989 123,19 414,20 539,1 z m 1227,-116 59,-52 -11.7384,-12.3254 L 4031,4116 c -1.6488,-1.8639 -3.7859,-4.7967 -6.3327,-8.6434 -4.1433,-6.2581 -9.3711,-14.9348 -15.3455,-25.3624 -15.2456,-26.6093 -35.3528,-64.6196 -54.7069,-102.9333 -14.1161,-27.9443 -27.8316,-56.0501 -38.968,-80.0113 -9.0945,-19.5679 -16.469,-36.3718 -20.9369,-48.0667 -1.5427,-4.0378 -2.7388,-7.4665 -3.5397,-10.1897 -0.7659,-2.6047 -1.1703,-4.5639 -1.1703,-5.7932 0,-2.8972 -0.1214,-5.3608 -0.4418,-7.3612 -0.3003,-1.8744 -0.7753,-3.3421 -1.489,-4.3786 -1.1343,-1.6473 -2.8714,-2.2055 -5.4678,-1.5766 -2.8752,0.6965 -6.8042,2.8489 -12.1353,6.5903 -3.8997,2.7368 -8.5495,6.3238 -14.0859,10.8132 -6.0201,4.8817 -13.0884,10.8303 -21.3802,17.9129 l -43,38 25,29 24,29 -22,23 c -11.4329,12.4723 -21.7856,20.9836 -31.5985,25.7003 -7.4872,3.5988 -14.6603,4.9885 -21.7592,4.2431 -5.5619,-0.584 -11.0784,-2.4787 -16.6648,-5.6484 -4.9122,-2.7872 -9.8785,-6.5602 -14.9775,-11.295 l -23,-22 -29.9945,26.2452 L 3671,4002 c -23.1857,21.3552 -32.2246,30.0528 -30.9784,35.8602 0.7963,3.7106 5.7915,6.2413 13.9784,10.1398 5.3728,2.4422 15.3845,8.3039 28.4469,16.4846 13.8469,8.6721 31.122,19.95 49.9332,32.5229 33.0149,22.0662 70.7616,48.1212 103.0124,71.0776 12.371,8.8058 23.9333,17.1557 34.1097,24.6496 12.7886,9.4176 23.3884,17.4835 30.6537,23.4038 4.9498,4.0334 8.3519,7.0709 9.8441,8.8615 2.8127,3.2145 5.7869,6.2676 8.4684,8.77 3.9919,3.7252 7.3352,6.23 8.5316,6.23 0.6335,0 2.4264,-1.0256 5.1716,-2.9074 4.9786,-3.4127 13.0892,-9.6414 23.096,-17.6748 10.6048,-8.5135 23.3391,-19.0538 36.7324,-30.4178 z M 1271,3957 1237.7126,3926.4486 1198,3890 c -9.1357,-8.4923 -17.1289,-15.9085 -24.1524,-22.34 -22.9091,-20.9787 -35.4999,-31.4822 -43.7606,-34.6896 -8.889,-3.4515 -12.7642,1.5454 -19.087,11.0296 -5.0643,7.2926 -15.9556,20.248 -30.2799,36.3726 -16.4976,18.571 -37.549,41.3457 -59.4967,64.5144 -29.7278,31.3815 -61.10001,63.4856 -85.02812,86.8452 -18.7869,18.3405 -32.98493,31.2905 -38.19528,34.2678 -6.17612,3.2506 -10.13331,5.7615 -11.28767,8.838 -0.90115,2.4016 -0.0943,5.1479 2.69843,8.8597 4.63539,6.1609 14.74174,14.9819 31.58924,29.3023 26.76831,23.1181 42.80329,34.7626 51.25727,36.2846 1.45963,0.2628 2.69326,0.2238 3.71713,-0.11 1.5439,-0.5033 2.61085,-1.6769 3.25647,-3.497 C 979.75346,4144.2044 980,4142.3077 980,4140 c 0,-6 37,-48 81,-95 27.2772,-28.1765 46.9172,-48.0868 62.2865,-60.3234 9.3185,-7.4191 17.0671,-12.0173 23.9961,-13.9267 6.3746,-1.7566 12.0555,-1.2375 17.6271,1.4546 5.944,2.8721 11.7634,8.2175 18.1678,15.9112 6.2089,7.4589 12.9676,17.1249 20.9225,28.8843 l 25,36 21,-48 M 833,3737 c -1.3641,-1.9097 -5.03555,-7.3177 -10.48639,-15.4117 -6.4438,-9.5684 -15.37433,-22.8906 -25.91934,-38.6245 C 783.36351,3663.2225 767.59113,3639.6844 751,3615 c -22.64613,-33.9692 -44.51048,-69.2541 -65.4693,-105.5465 -6.06503,-10.5023 -12.05423,-21.0889 -17.9646,-31.7525 -21.88479,-39.4848 -42.68881,-80.024 -62.25982,-121.2388 -9.83997,-20.7221 -19.36825,-41.615 -28.56548,-62.6305 -21.3868,-48.8683 -40.98356,-98.3996 -58.54698,-147.9882 -17.8833,-50.4917 -33.65852,-101.0428 -47.06883,-151.0139 C 452.05463,2923.7673 437.76677,2853.8779 429,2787 c -3.66533,-28.5081 -6.99894,-49.8843 -10.33857,-65.2092 -2.62949,-12.0663 -5.26271,-20.3811 -8.06451,-25.4722 C 408.21956,2691.9988 405.72082,2690 403,2690 c -5.30243,0 -8.56185,3.3077 -9.44446,13.4432 -0.62943,7.228 -0.0501,17.9284 1.85911,33.3778 3.9968,32.3426 13.82169,85.4981 30.58535,171.179 15.11054,76.0249 34.0117,148.7052 57.96696,221.3048 C 510.74238,3210.4514 543.83195,3291.4971 585,3377 c 27.99365,58.2659 61.49697,120.0282 94.71578,176.3544 35.79216,60.6896 71.25402,115.0682 99.1378,151.9621 5.93457,7.8522 11.52587,14.9123 16.70402,21.0728 10.06326,11.9722 18.56616,20.5463 24.99581,24.9316 4.61204,3.1456 8.15733,4.1359 10.44659,2.6791 5,-3 6,-11 2,-17 z m 3385,-101 c 24.0403,-35.9849 47.0291,-72.9528 68.8902,-110.7239 31.4561,-54.3493 60.5775,-110.3616 87.1377,-167.5016 31.8986,-68.6248 60.1029,-138.876 84.2204,-209.8262 18.9482,-55.7426 35.3738,-111.9166 49.0865,-168.0722 11.0003,-45.048 20.2548,-90.0841 27.6652,-134.8761 8,-49 18,-105 21,-122 1.7737,-11.0856 2.171,-18.8285 1.0176,-24.0136 -0.6592,-2.9636 -1.8251,-5.0915 -3.5301,-6.5303 -2.0393,-1.721 -4.8499,-2.4561 -8.4875,-2.4561 -5.1062,0 -8.9087,2.6073 -11.4076,7.9551 -2.3949,5.1254 -3.5924,12.7679 -3.5924,23.0449 0,9.0551 -1.2431,22.1807 -3.4933,38.3455 -2.1056,15.1257 -5.093,32.9125 -8.769,52.5155 -7.885,42.0488 -18.938,92.454 -31.2513,142.877 -15.1062,61.8595 -32.1091,123.7457 -47.4864,170.262 -13.0836,40.0203 -29.8527,83.9236 -49.1592,129.4306 -27.0273,63.7054 -59.0274,130.5536 -92.8504,194.2915 -15.2212,28.6837 -30.8117,56.7375 -46.4843,83.5915 -21.5964,37.0041 -43.3489,71.73 -64.5061,102.6864 -21.0727,30.8381 -39.5038,59.8271 -52.0347,81.4003 -7.8471,13.5096 -13.3805,24.111 -15.7999,30.4373 -1.234,3.2269 -1.6579,5.3415 -1.1654,6.1624 1.6285,2.8498 3.9199,4.0007 7.1188,3.1492 4.1858,-1.1142 9.9255,-5.6569 17.7669,-14.3083 7.291,-8.0441 16.399,-19.6401 27.7645,-35.3351 12.9623,-17.9 28.8611,-41.1316 48.3498,-70.5058 z M 383,2598 c 8.77041,-10.3366 14.00877,-19.692 15.13119,-29.6951 1.17931,-10.51 -2.18509,-21.735 -10.77046,-35.5641 -4.68497,-7.5465 -10.92462,-15.8684 -18.82903,-25.2727 C 360.69377,2498.1428 351.21896,2487.7532 340,2476 c -10.26293,-10.8849 -19.94555,-21.2863 -28.41617,-30.5422 -9.23289,-10.089 -17.02585,-18.8171 -22.56085,-25.3275 C 283.30783,2413.4079 280,2409.0501 280,2408 c 0,-2.3338 6.11891,-3.39 15.41004,-3.4999 9.88351,-0.1169 23.35665,0.837 36.87237,2.4629 10.715,1.289 21.45677,3.0003 30.45794,4.9354 10.13256,2.1782 18.05946,4.6399 21.25965,7.1016 10,8 12,3 12,-24 l -1,-35 H 354.42547 308 c -33.10704,0 -58.69642,1.5035 -73.5418,4.0497 C 225.08969,2365.6565 220,2367.6786 220,2370 c 0,2.8857 5.78287,12.4796 15.12359,25.7778 10.08059,14.3515 24.30497,33.0174 39.87641,52.2222 48,57 55,72 53,102 -2,28 -8,36 -26,38 -13,2 -30,-2 -38,-8 -6.66382,-6.058 -10.39167,-8.0791 -12.29519,-5.8409 C 250.46618,2575.6156 250,2578.8754 250,2584 c 0,22 57,47 90,40 14,-2 33,-14 43,-26 z m 4337,-53 c 0,-31.1801 0.6126,-51.5376 2.3915,-64.4867 0.904,-6.5811 2.1094,-11.2486 3.6886,-14.4507 0.9805,-1.9881 2.1051,-3.4112 3.3913,-4.3768 1.5863,-1.191 3.4183,-1.6858 5.5286,-1.6858 4.8206,0 9.2781,-1.4524 12.0598,-3.9196 1.8346,-1.6272 2.9402,-3.6958 2.9402,-6.0804 0,-1.843 -0.9511,-3.686 -2.5527,-5.2786 -2.7436,-2.7281 -7.3961,-4.7214 -12.4473,-4.7214 -3.1529,0 -5.7307,-0.9037 -7.804,-2.8759 -2.1726,-2.0666 -3.7912,-5.3062 -4.9373,-9.9087 C 4720.6824,2420.8856 4720,2411.9782 4720,2400 c 0,-9.7368 -0.1313,-17.11 -0.7977,-22.6916 -0.4903,-4.107 -1.2703,-7.2441 -2.5008,-9.639 -0.933,-1.8159 -2.1251,-3.2051 -3.6463,-4.267 -2.2365,-1.5612 -5.1843,-2.4149 -9.0664,-2.8767 -3.7331,-0.444 -8.3299,-0.5257 -13.9888,-0.5257 -5.3076,0 -9.6809,0.072 -13.2835,0.4472 -6.5966,0.6872 -10.609,2.3917 -13.0408,6.5353 -2.2032,3.7542 -3.1089,9.5104 -3.4635,18.326 -0.1679,4.1739 -0.2122,9.0337 -0.2122,14.6915 v 40 h -50 c -27,0 -50,2 -50,5 0,3 19,32 42,63 10.5713,14.2483 22.4102,30.6092 33.3804,45.8783 12.8977,17.952 24.5947,34.3949 31.6196,44.1217 9.1796,12.538 16.9055,21.6673 23.3684,27.1971 5.2125,4.4598 9.6035,6.5783 13.2731,6.2554 4.0163,-0.3534 7.1684,-3.6313 9.5877,-9.9649 2.3942,-6.268 4.0706,-15.5287 5.1564,-27.9093 1.1232,-12.8072 1.6144,-28.953 1.6144,-48.5783 z m -4140,53 c 11.02118,-11.9029 19.66162,-26.5266 25.88918,-42.6717 5.47006,-14.1812 9.07855,-29.5362 10.80368,-45.2521 2.60454,-23.7274 0.9162,-48.2773 -5.13995,-70.8526 C 605.46881,2416.5441 594.9765,2395.8575 580,2380 c -16.45016,-17.3902 -30.91218,-26.8278 -45.77406,-28.209 -11.28895,-1.0492 -22.80861,2.55 -35.60556,10.843 -6.20057,4.0183 -12.70101,9.1386 -19.62038,15.366 -13.92867,12.381 -22.26864,21.8347 -27.6284,34.6762 -5.02986,12.0511 -7.43511,27.0859 -9.3716,50.3238 -1.07182,14.3623 -1.63816,26.9326 -1.59069,38.1638 0.0376,8.9054 0.4612,16.9689 1.32469,24.4165 1.20678,10.4085 3.27284,19.6139 6.34563,28.2329 4.89115,13.7193 12.33305,25.9526 22.92037,39.1868 4.90262,6.3552 10.6295,11.6225 16.89928,15.7956 6.77806,4.5116 14.19061,7.7445 21.88212,9.6912 12.4099,3.141 25.54603,2.9339 37.91518,-0.6532 C 559.62381,2614.3746 570.83789,2607.7729 580,2598 Z m 3932,-108 3,-130 h -44 c -23.5804,0 -34.4514,1.3617 -36.2828,5.0026 -0.8869,1.7632 0.3463,4.0609 3.2828,6.9974 2.8824,2.8824 5.2455,11.8659 7.0893,24.7524 3.023,21.1274 4.6503,52.746 4.8819,85.1681 0.173,24.2195 -0.4329,48.8875 -1.8176,69.9657 -0.9306,14.1648 -2.2128,26.7085 -3.8468,36.4056 -1.7149,10.1769 -3.8171,17.2185 -6.3068,19.7082 -4.1968,4.1968 -5.1319,7.089 -1.6899,8.9806 3.9393,2.1649 13.6119,3.0194 30.6899,3.0194 h 42 z M 420,2224 c 0,-9.9785 1.37298,-24.6194 3.82869,-42.5827 4.76226,-34.8355 13.59635,-82.1656 24.3854,-132.2174 C 464.75693,1972.4555 485.89587,1889.3124 504,1835 535.39495,1741.0954 571.66155,1652.1411 613.35043,1567.1899 672.43124,1446.7984 742.40221,1334.4468 824.83061,1227.4394 891.73425,1140.5861 966.8447,1057.2534 1051,976 c 17.1899,-16.52878 33.5542,-32.52331 48.5897,-47.45908 24.6353,-24.47192 45.7035,-46.10152 60.9916,-62.58176 17.7195,-19.1013 27.6743,-31.28507 26.4187,-32.95916 -3.343,-3.0391 -9.4568,-2.10667 -19.324,3.49903 -16.8541,9.57514 -44.6588,32.78518 -88.3103,73.12731 C 1064.4837,923.38008 1047.7598,939.1251 1029,957 c -78.19723,75.1807 -149.77187,154.7227 -214.49903,238.226 -83.99057,108.3548 -156.45143,223.3797 -216.89123,344.2014 -54.304,108.556 -98.90379,221.7914 -133.44299,339.0728 -15.50535,52.65 -28.98319,106.1154 -40.40128,160.3388 -7.0409,33.4366 -13.29857,67.1614 -18.76547,101.161 -4.19891,26.1138 -7.42007,46.5488 -9.69001,62.5392 -2.20428,15.5278 -3.51157,26.8643 -3.94616,35.1394 -0.48575,9.249 0.1187,14.6737 1.77941,17.8517 2.17153,4.1555 6.14906,4.4697 11.85676,4.4697 3.8044,0 6.77149,-1.3158 9.02538,-4.0714 2.07296,-2.5344 3.54263,-6.2868 4.50557,-11.3538 C 419.54827,2239.2217 420,2232.4014 420,2224 Z m 4135,-11 c -5.8509,-42.5522 -12.7314,-84.4992 -20.6434,-125.8446 -8.7334,-45.6376 -18.7237,-90.5421 -29.9738,-134.7182 -14.0342,-55.109 -30.0288,-109.0845 -47.9893,-161.9356 -11.323,-33.3192 -23.4272,-66.1916 -36.3142,-98.6193 -21.9203,-55.1586 -46.1052,-109.0308 -72.5614,-161.6278 -23.8461,-47.4079 -49.5374,-93.7799 -77.0789,-139.124 -26.5468,-43.7065 -54.8126,-86.4581 -84.8016,-128.2622 -49.9523,-69.6322 -104.6859,-136.6356 -164.2214,-201.044 -19.6171,-21.2228 -39.7555,-42.1638 -60.416,-62.8243 -26.7097,-26.70966 -50.3674,-49.88082 -71.215,-69.72744 -24.1257,-22.96736 -44.4882,-41.48245 -61.4621,-55.87685 -10.4832,-8.89 -19.6739,-16.20825 -27.6604,-22.03284 -11.532,-8.41039 -20.5534,-13.70656 -27.33,-16.12369 -3.3317,-1.18838 -6.1208,-1.68084 -8.3988,-1.50531 -1.5422,0.11882 -2.8501,0.54375 -3.9337,1.26613 -0.8256,0.4128 -1.0453,1.31787 -0.7139,2.65529 0.4881,1.96931 2.1711,4.87603 4.8745,8.52885 3.4477,4.65852 8.5549,10.53055 14.9594,17.21927 9.9489,10.39052 23.0283,22.75187 37.88,35.59659 24.812,21.38965 54.5855,49.28622 85.8178,80.00141 33.4043,32.85109 68.4773,68.92649 100.9336,103.71369 43.602,46.7334 82.4816,91.1419 106.2486,122.2849 30.6849,39.9324 60.2703,81.9457 88.5529,125.5448 31.2742,48.211 60.9552,98.3611 88.7679,149.7807 35.2651,65.1976 67.5264,132.4363 96.2229,200.3516 26.9978,63.895 50.8403,128.3888 71.0605,192.345 21.4901,67.9732 38.8885,135.3392 51.6344,200.7338 8.2573,42.3658 14.562,83.9041 18.7614,124.2441 1.3211,11.6257 2.712,21.4363 4.2281,29.5793 1.867,10.0279 3.9238,17.5269 6.2737,22.7726 2.9639,6.6164 6.3942,9.6481 10.4982,9.6481 4.5677,0 7.5836,-1.7243 9.1908,-6.3902 1.0361,-3.0081 1.4868,-7.239 1.3903,-13.0187 -0.1143,-6.8444 -0.9959,-15.8609 -2.5811,-27.5911 z M 1606,827 l 99,-54 -3,-39 c -2.2608,-29.84242 -4.3171,-46.8047 -9.4969,-53.19788 -2.4442,-3.01668 -5.5838,-3.68014 -9.7684,-2.2332 C 1676.1742,680.83738 1667.045,688.29293 1654,700 l -36,32 -25,-44 c -23.097,-40.65081 -44.2044,-79.79542 -60.3601,-112.18868 -9.9204,-19.8911 -18.0112,-37.21521 -23.656,-50.71857 -2.8953,-6.92618 -5.1471,-12.84716 -6.6721,-17.59376 C 1500.7977,502.78664 1500,499.23179 1500,497 c 0,-4.22728 -0.4412,-8.23394 -1.2201,-11.29463 C 1497.9006,482.24976 1496.5909,480 1495,480 c -1.1304,0 -7.2184,2.5044 -16.0341,6.45016 -24.3473,10.89746 -69.4999,32.7891 -88.4788,43.2808 -4.5456,2.51286 -7.5898,4.37177 -8.4871,5.26904 -1.0449,1.04488 0.9126,4.81918 4.8743,10.18213 3.6214,4.90228 8.9174,11.13201 15.1257,17.81787 3.038,3.32283 6.5898,7.86244 10.5235,13.36811 3.2029,4.48276 6.659,9.60596 10.2972,15.23427 13.8255,21.38812 30.2807,50.07038 45.4621,78.6204 19.8672,37.36186 37.5531,74.49725 44.31,94.76271 2.6298,7.88728 3.6041,13.21918 2.4072,15.01451 -1.4695,2.44924 -7.2582,5.61832 -15.3678,8.56695 -8.4457,3.07085 -19.4088,5.90259 -30.6322,7.43305 l -20.8902,3.65578 L 1429,803 l 37,38 c 21,22 39,39 39,39 1,0 46,-24 101,-53 z m 1879,-46 c -20.6957,-8.71398 -35.1625,-16.53811 -44.0465,-23.95703 C 3433.5253,750.83979 3430,744.91989 3430,739 c 0,-12.84199 3.9219,-20.78158 10.9842,-23.6451 8.8859,-3.60293 22.7434,0.83012 40.0158,13.6451 l 28,21 21,-39 c 2.3119,-4.6238 4.5355,-9.15925 6.6057,-13.4671 C 3544.3856,681.34403 3550,668.36948 3550,666 c 0,-2 -13,-9 -30,-15 -6.6812,-2.22707 -12.1737,-4.65908 -16.5106,-7.36245 -6.2716,-3.90928 -10.1269,-8.38598 -11.6661,-13.63086 -1.2823,-4.36948 -0.9572,-9.27212 0.9172,-14.82399 2.0047,-5.93764 5.7815,-12.61787 11.2595,-20.1827 6.2447,-8.64657 9.7205,-13.13964 15.8586,-12.92496 6.6399,0.23223 16.3953,5.97336 36.1414,17.92496 11.5187,7.13062 25.1434,16.06641 37.2436,24.49702 9.96,6.93943 18.887,13.53658 24.7564,18.50298 l 22,20 V 651.87501 638 c 0,-7.35526 0.8281,-17.74675 2.0491,-28.27417 1.1032,-9.51045 2.527,-19.13185 3.9509,-26.72583 1.7714,-8.56178 2.7583,-14.77016 0.9279,-20.50368 -1.7202,-5.38788 -5.9282,-10.35644 -14.3113,-16.46453 -5.7949,-4.2223 -13.5848,-8.98912 -23.9269,-14.81539 C 3595.9874,524.06047 3579.435,515.30635 3558,504 3521.1226,484.47665 3487.3822,467.04471 3470.0115,458.13139 3463.3592,454.71795 3459.1077,452.55383 3458,452 c -0.9053,-0.36211 -1.745,-0.46197 -2.5132,-0.32333 -0.9692,0.17493 -1.8246,0.72949 -2.5543,1.61603 -1.0128,1.23042 -1.7833,3.10031 -2.2798,5.48219 -0.4283,2.05466 -0.6527,4.4903 -0.6527,7.22511 0,2.115 -1.5241,6.96844 -4.2661,13.96171 -2.9755,7.58854 -7.3849,17.69669 -12.8372,29.55957 -6.6102,14.38203 -14.753,31.34319 -23.7314,49.5205 -15.0869,30.54422 -32.533,64.52234 -49.0305,95.46768 C 3334.9682,701.71588 3312.0091,741.86477 3303,752 c -4.5104,5.20429 -7.0948,9.08444 -6.9178,12.85164 0.1202,2.55904 1.5146,5.06597 4.445,7.90042 5.1894,5.01941 15.1956,11.06595 31.4728,20.24794 24,14 66,36 93,50 l 50,25 33,-31 33,-32 z M 2055,655 c 24.4392,-6.66522 38.389,-12.09641 48.8752,-21.77698 C 2112.2683,625.4748 2118.4424,615.00433 2126,599 l 9.127,-18.71036 L 2146,558 2138.47,528.99553 2119,454 c -3.7733,-14.08705 -7.4834,-27.79443 -10.9709,-40.50131 C 2097.6525,375.69213 2089.2453,346.74223 2087,343 c -1.4279,-1.90382 -6.4803,-5.84643 -13.4321,-10.53401 C 2065.9137,327.30478 2055.9569,321.24045 2046,316 c -6.7774,-3.67918 -12.355,-6.64592 -17.5023,-8.90748 -9.3945,-4.12765 -17.3558,-5.90626 -28.5632,-5.38 -14.3633,0.67445 -34.0582,5.13459 -68.9345,13.28748 -27.1651,5.99749 -45.2444,10.2525 -58.1898,15.00442 -11.4148,4.19011 -18.8379,8.76659 -24.9786,15.26475 -6.6351,7.02121 -11.773,16.28591 -18.8316,29.73083 l -22,42 14.4433,58.84321 L 1834,527 c 7.1346,29.06682 12.572,50.53895 17.4261,66.84371 4.1963,14.0956 7.9568,24.32926 12.0009,32.26929 8.1848,16.06975 17.6291,22.72064 34.573,32.887 12.681,7.60861 24.2565,12.70459 36.9568,15.25608 11.0576,2.22148 22.9679,2.51412 37.2029,0.85688 C 1993.1473,672.6696 2019.1881,665.98774 2055,655 Z m 1030,2 c 11.6028,-6.52658 20.3133,-12.39581 27.2278,-19.13312 12.1554,-11.84386 18.7607,-26.3704 25.7722,-51.86688 6.1008,-20.64869 9.1183,-33.58928 9.0525,-44.09272 C 3146.9782,530.0291 3142.9607,521.26779 3135,508 c -5.675,-9.55793 -9.3874,-16.97475 -10.1244,-24.80853 -0.702,-7.4604 1.2945,-15.29897 6.8639,-25.72515 C 3139.9016,442.18655 3155.7375,421.34925 3182,388 l 29,-37 -43,-11 c -11.4004,-2.85009 -22.8007,-5.92582 -32.2718,-8.58409 C 3125.2608,328.47799 3117.1499,326.04997 3114,325 c -2.7955,-0.93184 -8.6302,3.56337 -15.8857,11.66506 -8.317,9.28686 -18.5009,23.31256 -28.1143,39.33494 -11.669,19.38245 -22.3601,33.13206 -31.6246,41.8368 -10.4294,9.79931 -19.0508,13.20526 -25.2241,11.05671 -6.5398,-2.27615 -10.3321,-10.78611 -10.6158,-24.53253 -0.2243,-10.87347 1.7466,-25.02333 6.2897,-41.95598 3.8258,-14.2597 9.4758,-30.49297 17.1748,-48.405 2.0429,-4.59654 -22.5201,-15.19246 -47.8445,-23.39493 C 2953.895,282.74715 2928.9356,277.08582 2926,281 c -0.6972,1.39431 -8.6847,33.40806 -19.5577,78.76079 -4.7233,19.70143 -9.9911,41.92002 -15.4423,65.23921 -11.4768,49.09515 -24.5797,97.78376 -34.3839,130.77274 -5.5725,18.75038 -10.0793,32.42885 -12.6161,38.22726 -3.3003,6.60068 -6.0901,12.86097 -8.1587,18.00856 -2.9456,7.33014 -4.4288,12.40398 -3.8413,12.99144 0.4772,0.31816 5.7626,1.851 14.3626,4.21207 20.0685,5.50967 58.1867,15.52942 95.3761,25.14837 36.3074,9.39082 71.7295,18.39964 88.6065,22.45677 4.9963,1.20109 8.3673,1.96821 9.6548,2.18279 3,0 23,-9 45,-22 z m -466,-92 c 12.1058,-13.87743 20.8116,-29.06258 26.1173,-44.70598 4.7672,-14.05547 6.7895,-28.48088 6.067,-42.66007 -0.5923,-11.62253 -3.0287,-23.07963 -7.3094,-34.03196 C 2639.5051,432.42166 2633.2134,421.76733 2625,412 L 2613.0646,397.67756 2600,382 2606.8192,362.56518 2620,325 c 11,-32 25.4683,-63.62436 31,-71 3.2968,-4.39577 4.3125,-7.44968 1.8673,-9.55496 C 2648.6373,240.80312 2634.0506,240 2603,240 h -60 l -17,60 c -8.4624,29.86726 -13.549,45.0948 -20.4798,52.68949 -5.5818,6.1165 -12.26,7.31051 -22.5202,7.31051 -12.5635,0 -19.0659,-0.25255 -21.6647,-7.99185 -2.5725,-7.66102 -1.3201,-22.6581 1.6647,-52.00815 l 1.1635,-13.96177 L 2468,240 h -58 -58 l 6.5035,29.26569 L 2362,285 c 2.0802,10.40123 3.8143,30.49587 4.9861,55.74688 1.6447,35.44138 2.1818,81.04075 1.0139,124.25312 L 2365.4216,581.02789 2365,600 h 62.2545 48.7455 112 z"
       id="path2"
       style="fill:#000000;fill-opacity:1"
       sodipodi:nodetypes="cssscsscssssssssscscssscscsssssscscssscscsssscsccssccccscssssscsssssscsssscssssssscccccccccssscsscsscccsscssssscscsssscsccccccccsscssssssscsscsssscsssssscscssssscssssssscsssscssssssssssccccsscscssssscsssssscssssssscsssscssssssccssssssscsssssssccccccccccssssssssscssscscccccccssscsccsssscssccccccccscccccccsssssssssssscccccsssccccscssssscssssccccsscssscsscsssscsssscccccscsssssscssssscscssssccccsssccsssssssscssscsscsssccssscssssssccccssssccccssccscssssssssssssssssssscsssscsssssccsscsscscssscsssccsssssssssssccscsscsscsscsscsssssssssssccssssssssssssscssscsscssssscssssscccccssccssssssssscscsssscscccccccsscccsscssscscscccsscssscscsssssssscssccccccccscccccscscsscsscccssscsscccscsscccssscsssscscssscscsssccccssscccccssccsscscccccccsccccccc" />
    <path
       d="m 1390,4363 c 0,-0.5219 0.2118,-1.77 0.6144,-3.6286 0.3444,-1.5898 0.8284,-3.6263 1.4387,-6.0369 1.3823,-5.4591 3.4127,-12.8372 5.9384,-21.2923 1.2822,-4.2924 2.692,-8.8623 4.2094,-13.5998 1.5009,-4.6858 3.1071,-9.5355 4.7991,-14.4424 3.3698,-11.008 6.134,-19.6945 8.61,-26.4335 2.8032,-7.6294 5.237,-12.7628 7.7621,-15.9431 2.1046,-2.6505 4.2725,-3.9444 6.7706,-4.1959 3.642,-0.3667 7.9856,1.4821 13.8573,4.5725 7.1639,3.582 13.9714,7.1639 18.7204,9.8948 3.2058,1.8435 5.4736,3.2992 6.2796,4.1052 0.7565,0.7565 -1.2055,4.3747 -5.1825,9.9344 -3.34,4.6692 -8.1012,10.7079 -13.8669,17.571 -5.5185,6.5689 -11.9572,13.8931 -18.9506,21.4946 -2.7294,2.9775 -5.4126,5.8627 -8.0191,8.625 -3.6383,3.8557 -7.1271,7.472 -10.3833,10.7657 -3.8419,3.8861 -7.3599,7.3232 -10.4177,10.1747 -3.6867,3.4381 -6.7044,6.025 -8.8138,7.5216 -2.1586,1.5316 -3.3661,1.9214 -3.3661,0.913 z"
       id="path3"
       style="fill:#000000;fill-opacity:1"
       sodipodi:nodetypes="ssssscssscsssscsssss" />
    <path
       d="M 2320,4214 C 1554,4119 958,3569 808,2819 c -30,-150 -32,-471 -5,-616 30,-161 128,-450 158,-469 6,-3 76,63 157,147 l 148,153 90,-49 c 49,-26 91,-49 93,-51 2,-2 -40,-49 -93,-106 l -96,-102 v -212 -211 l 53,-49 c 92,-87 194,-164 303,-230 59,-35 111,-64 115,-64 5,0 9,233 9,517 v 517 l -177,-175 -178,-174 -3,44 -3,44 180,181 181,181 v 828 827 h 255 255 v -255 -255 l 248,2 247,3 3,253 2,252 h 255 255 v -827 -828 l 181,-181 180,-181 -3,-43 -3,-43 -177,172 -178,173 v -517 c 0,-488 1,-517 18,-510 81,31 264,157 382,263 l 80,73 v 210 210 l -102,105 c -55,57 -99,106 -97,108 2,2 46,25 97,51 l 92,47 133,-137 c 72,-76 138,-146 145,-156 7,-11 17,-19 21,-19 24,0 127,284 162,450 20,92 23,134 23,330 0,196 -3,238 -23,330 -65.4439,304.2493 -200.576,574.3119 -389.1956,793.9059 C 3555.2185,3910.9853 3217.218,4111.8097 2824,4190 c -82,17 -154,23 -289,25 -99,2 -196,1 -215,-1 z"
       id="path4"
       style="fill:#000000;fill-opacity:1"
       sodipodi:nodetypes="cscccccsccccccsscccccccccccccccccccccccccccsccccccsccccscscsccc" />
    <path
       d="m 2425,2831 c -17.5156,-10.7482 -32.8126,-22.9226 -45.5756,-36.1447 C 2360.126,2774.8627 2346.6211,2752.4748 2340,2729 c -6,-19 -10,-112 -10,-206 v -173 h 170 170 v 182 c 0,164 -2,186 -21,225 -8.115,16.8542 -19.4339,31.8467 -32.9206,44.6171 -13.2921,12.5861 -28.69,23.0138 -45.2017,30.9381 -23.3867,11.2237 -49.008,17.4254 -74.0459,17.625 -25.5495,0.2037 -50.4916,-5.8425 -71.8318,-19.1802 z"
       id="path5"
       style="fill:#000000;fill-opacity:1"
       sodipodi:nodetypes="cscscccscsssc" />
    <path
       d="m 3877,4096 c -16.3673,-11.9035 -26.923,-19.6558 -32.8509,-25.5218 -2.3208,-2.2965 -3.9322,-4.3039 -4.9054,-6.1581 -1.5384,-2.931 -1.4818,-5.4792 -0.1109,-8.1813 1.5017,-2.9597 4.5804,-6.1041 8.8672,-10.1388 10,-9 21,-16 24,-16 1.5872,0 5.5395,4.7301 10.6444,12.0918 6.1613,8.8852 14.0016,21.604 21.3893,34.4669 7.2581,12.6372 14.0793,25.4137 18.4423,34.8307 3.7438,8.0807 5.6776,13.6877 4.524,14.6106 -0.9269,0.9269 -6.1492,-1.5826 -14.0745,-6.3341 -9.1759,-5.5013 -21.9749,-14.0078 -35.9255,-23.6659 z"
       id="path6"
       style="fill:#000000;fill-opacity:1"
       sodipodi:nodetypes="cssscsssscsc" />
    <path
       d="M 4627,2504 4611.5248,2481.6469 4600,2465 4611.991,2463.6164 4626,2462 c 9.9247,-1.1676 17.1228,-1.7388 22.2409,-0.8678 4.2727,0.7271 7.0958,2.4592 8.8456,5.6883 1.6887,3.1163 2.3777,7.627 2.4052,13.9742 0.027,6.187 -0.5748,14.1189 -1.4917,24.2053 l -1.7817,22.5679 L 4655,2543 l -10.505,-14.6319 z"
       id="path7"
       style="fill:#000000;fill-opacity:1"
       sodipodi:nodetypes="cccccsssccccc" />
    <path
       d="m 506,2574 c -1.26619,-3.7986 -2.53237,-13.4756 -3.573,-26.6253 C 501.00204,2529.3687 500,2504.8513 500,2480 c 0,-29.3542 1.02457,-49.7433 3.46263,-63.8898 2.37922,-13.8051 6.10454,-21.6652 11.53737,-26.1102 12,-10 19,-10 28,-1 5.38375,5.3837 9.6081,24.809 12.21071,49.121 1.86863,17.4556 2.90125,37.4303 2.92673,56.5359 0.0225,16.8954 -0.74255,33.111 -2.41358,46.3037 -1.14025,9.0022 -2.70234,16.5968 -4.72386,22.0394 -5.02726,12.5682 -11.98513,20.9241 -19.10894,24.5531 -4.95566,2.5245 -9.99162,2.7615 -14.51382,0.5378 C 512.88305,2585.881 508.89628,2581.2407 506,2574 Z"
       id="path8"
       style="fill:#000000;fill-opacity:1"
       sodipodi:nodetypes="cssscsssscssc" />
    <path
       d="m 1960,576 c -3.7253,-4.87157 -8.6003,-15.98415 -13.6601,-30.1609 -5.571,-15.60901 -11.3661,-34.93261 -16.0975,-53.73053 C 1924.2752,468.4009 1920,445.52936 1920,432 c 0,-14 9,-26 25,-34 18.5955,-8.26467 33.7224,-5.58991 46.2076,8.7134 6.1708,7.06934 11.6963,16.97929 16.6763,29.81303 4.4506,11.4695 8.4655,25.27423 12.1161,41.47357 7,31 14,62 17,68 0.516,1.37593 0.7657,2.84061 0.7772,4.36859 0.038,5.03609 -2.5123,10.75987 -6.6487,16.26053 -4.3844,5.83046 -10.551,11.41026 -17.3066,15.65477 C 2006.3982,586.94819 1998.2631,590 1991,590 c -10,0 -24,-6 -31,-14 z"
       id="path9"
       style="fill:#000000;fill-opacity:1"
       sodipodi:nodetypes="cssscssccssssc" />
    <path
       d="m 2981,582 c -11.5518,-1.65026 -17.3543,-3.9057 -19.405,-10.76121 -1.6772,-5.6071 -0.8446,-14.29145 1.405,-28.23879 2.2315,-12.83093 4.0739,-22.2385 6.352,-28.80865 2.145,-6.18632 4.6763,-9.85708 8.2822,-11.50141 2.5287,-1.15309 5.5859,-1.30967 9.4089,-0.63842 5.6928,0.99955 13.0838,3.83469 22.9569,7.94848 10.0295,4.19417 17.4653,9.58546 22.5499,15.53716 3.5476,4.15268 5.9506,8.57818 7.2914,13.06024 2.8268,9.44972 0.9318,19.15081 -4.9128,27.07636 -4.9571,6.72208 -12.7555,12.16691 -22.924,15.0978 -8.6987,2.50724 -19.1318,3.17478 -31.0045,1.22844 z"
       id="path10"
       style="fill:#000000;fill-opacity:1"
       sodipodi:nodetypes="cscssscssssc" />
    <path
       d="m 2464,506 c -2.4008,-6.24198 -3.8937,-12.18137 -4.5879,-17.74033 -0.8646,-6.92311 -0.4901,-13.25618 0.9128,-18.84885 1.473,-5.87216 4.0799,-10.92808 7.5769,-14.99372 4.222,-4.90842 9.7414,-8.37347 16.1297,-10.08891 5.0167,-1.34713 10.5691,-1.61528 16.4497,-0.65615 5.4933,0.89598 11.2729,2.86291 17.1696,6.02171 4.0791,2.18509 8.2141,4.9405 12.3492,8.30625 4.9066,4.13191 8.6796,7.59692 11.4048,10.77392 3.6575,4.26372 5.3145,7.70694 5.52,12.15081 0.2783,6.01822 -1.973,9.9621 -5.9248,17.07527 -2.2006,4.08679 -5.3894,7.65474 -9.2365,10.67666 -4.7793,3.75425 -10.5745,6.66576 -16.7525,8.68238 -13.9183,4.5432 -29.78,4.54454 -40.3476,-0.59197 C 2469.6765,514.34311 2465.8685,510.77496 2464,506 Z"
       id="path11"
       style="fill:#000000;fill-opacity:1"
       sodipodi:nodetypes="csssssscsacsssc" />
    <path
       d="M 2320,4214 C 1986.85,4172.6824 1685.8566,4045.2985 1439.7261,3852.8266 1291.7211,3737.0882 1163.5543,3597.8143 1060.1626,3439.5665 940.15961,3255.8941 853.53224,3046.6612 808,2819 c -30,-150 -32,-471 -5,-616 30,-161 128,-450 158,-469 6,-3 76,63 157,147 l 148,153 90,-49 c 49,-26 91,-49 93,-51 2,-2 -40,-49 -93,-106 l -96,-102 v -212 -211 l 53,-49 c 92,-87 194,-164 303,-230 59,-35 111,-64 115,-64 5,0 9,233 9,517 v 517 l -177,-175 -178,-174 -3,44 -3,44 180,181 181,181 v 828 827 h 255 255 v -255 -255 l 248,2 247,3 3,253 2,252 h 255 255 v -827 -828 l 181,-181 180,-181 -3,-43 -3,-43 -177,172 -178,173 v -517 c 0,-488 1,-517 18,-510 81,31 264,157 382,263 l 80,73 v 210 210 l -102,105 c -55,57 -99,106 -97,108 2,2 46,25 97,51 l 92,47 133,-137 c 72,-76 138,-146 145,-156 7,-11 17,-19 21,-19 24,0 127,284 162,450 20,92 23,134 23,330 0,196 -3,238 -23,330 -151,702 -673,1222 -1367,1360 -82,17 -154,23 -289,25 -99,2 -196,1 -215,-1 z"
       id="path12"
       style="fill:#000000;fill-opacity:1"
       sodipodi:nodetypes="cssscccccsccccccsscccccccccccccccccccccccccccsccccccsccccscscccc" />
  </g>
  <path
     style="fill:#df81b3;fill-opacity:1;stroke-width:0.707107"
     d="m 330.69948,90.958515 c -21.31226,-0.162365 -42.6819,2.132782 -63.15081,8.241008 -42.50767,11.955907 -81.67805,35.714057 -111.5787,68.256437 -23.23936,24.32774 -40.341,54.14173 -52.13828,85.52709 -12.312361,32.2918 -14.076053,67.45989 -12.410016,101.64331 3.104809,43.45615 19.324446,85.70413 44.715716,120.99272 40.25783,55.94455 105.15015,93.71499 173.97506,99.62472 18.3347,1.65233 36.83709,0.65512 55.14631,-0.86581 69.23014,-8.19541 133.18482,-49.09025 171.22509,-107.27802 22.81641,-34.50268 36.84205,-75.00816 39.17061,-116.35981 0.85062,-23.43577 0.74485,-47.16092 -4.82889,-70.08575 C 557.09519,218.13708 517.57504,161.55762 462.98921,127.94213 427.76818,106.00927 387.112,91.522117 345.32738,91.118141 c -4.87385,-0.144006 -9.75166,-0.185901 -14.6279,-0.159626 z m -4.69149,13.828635 c 20.1112,0.2497 40.50272,-0.0707 60.00484,5.42267 55.04002,12.93416 105.0731,46.78402 136.57735,93.90992 19.81479,29.45609 33.29336,63.28946 38.33608,98.43081 0.80594,21.02459 1.04334,42.15262 -0.13258,63.16452 -3.72441,22.57477 -10.56061,44.72013 -19.85979,65.61294 -1.13607,1.75352 -1.6383,4.70907 -3.72609,5.47201 -10.93653,-9.79194 -20.19923,-21.33812 -30.72463,-31.58509 -3.15814,-2.97385 -5.95083,-6.64446 -9.336,-9.18542 -7.87374,4.2941 -16.48174,7.64055 -23.88005,12.62711 0.38246,3.68985 4.60109,5.95091 6.60426,8.86369 6.17174,6.55069 12.39447,13.05263 18.59194,19.5794 0,18.80462 0,37.60924 0,56.41386 -17.81198,16.15652 -36.66124,31.71599 -57.93303,42.97884 -1.48799,0.62113 -5.29002,2.68328 -4.70945,-0.61458 -1.19225,-41.24765 -0.55696,-82.57005 -0.90916,-123.84703 0.76629,-2.47557 -1.73086,-12.69769 1.4823,-9.36505 14.88478,14.63235 29.89071,29.14034 44.86676,43.68022 1.14629,-2.67517 2.51872,-8.46554 0.55395,-11.27093 -15.44729,-16.09094 -31.00868,-32.07102 -46.89706,-47.72692 0,-73.37245 0,-146.74491 0,-220.11737 -9.93696,-0.9344 -20.59267,-0.13359 -30.80611,-0.40051 -12.28951,0.21579 -24.88798,-0.43213 -36.985,0.32179 -1.51057,11.85278 -0.53712,23.9364 -0.89217,35.876 0,10.32579 0,20.65157 0,30.97735 -22.12851,-0.087 -44.25164,0.4968 -66.37412,0.9267 0,-22.5671 0,-45.13422 0,-67.70133 -9.93695,-0.9344 -20.59266,-0.13359 -30.8061,-0.40051 -12.25652,0 -24.51304,0 -36.76955,0 -0.93441,9.93696 -0.1336,20.59267 -0.40052,30.8061 0,63.22852 0,126.45703 0,189.68554 -16.03273,16.18418 -32.42572,32.14389 -48.23517,48.4672 1.10737,2.763 -0.29364,10.22408 2.4634,10.18349 15.30949,-14.94187 30.31769,-30.19398 45.89746,-44.85382 -0.3722,45.35819 0.1754,90.75161 -1.04271,136.08629 -0.0434,2.21813 -3.07064,-0.441 -4.25369,-0.72368 -21.51218,-11.34315 -40.80868,-26.36061 -58.3736,-43.09623 -0.001,-19.11121 -0.002,-38.22243 -0.001,-57.33365 7.98831,-8.87218 17.01387,-16.99059 24.01815,-26.66013 -2.25988,-2.88497 -6.6539,-4.16487 -9.71128,-6.35526 -4.53576,-2.26019 -8.87473,-5.60816 -13.67573,-7.02039 -13.79603,12.87313 -26.41164,27.15324 -40.74978,39.34939 -5.4255,-7.60046 -7.74181,-17.00293 -11.05931,-25.65853 -7.61173,-22.02988 -12.77931,-45.01466 -12.35837,-68.41425 -5.6e-4,-22.1258 0.20065,-44.5976 6.60288,-65.94977 16.52628,-62.6605 60.5365,-117.68088 118.70082,-146.43639 25.08704,-12.43378 52.29993,-21.24762 80.23126,-23.8856 5.21346,-0.22039 10.44475,-0.23289 15.67098,-0.2334 z m 6.88739,182.0648 c 10.3888,-0.2289 20.40793,7.85006 22.39237,18.00493 0.1399,16.21651 0.27894,32.43303 0.41734,48.64955 -15.07896,0 -30.15792,0 -45.23688,0 0.40898,-17.31226 -0.86111,-34.86091 2.15447,-51.96682 2.92602,-8.26743 11.45052,-14.76331 20.2727,-14.68766 z"
     id="path17"
     transform="scale(0.75)" />
  <path
     style="fill:#df81b3;fill-opacity:1;stroke-width:0.0625"
     d="m 463.20935,550.64258 c -2.35072,1.07921 -4.64616,2.28262 -6.96086,3.43896 -4.69169,2.42994 -9.37071,4.89215 -13.93343,7.55835 -1.04134,0.66695 -2.22155,1.25329 -2.94177,2.29627 -0.44525,0.6423 -0.22067,1.49504 0.25562,2.05127 0.99095,1.24239 1.87807,2.5625 2.67675,3.9364 3.58158,6.06544 6.83172,12.31961 10.03177,18.59543 2.29835,4.59089 4.61625,9.17827 6.59884,13.92151 0.37478,0.90062 0.72977,1.82808 0.74996,2.81632 0.0812,0.64305 0.35813,1.50634 1.13225,1.54894 0.67368,-0.16484 1.2663,-0.58532 1.90068,-0.86327 6.0208,-3.07447 12.02084,-6.19201 17.95953,-9.4226 1.72472,-0.99848 3.54449,-1.9162 4.99172,-3.31142 0.66029,-0.64387 1.12624,-1.52841 1.05383,-2.4718 -0.059,-1.59783 -0.51052,-3.14839 -0.66766,-4.73669 -0.32567,-2.43033 -0.4012,-4.89425 -0.37531,-7.3523 -0.0935,-0.59074 -0.84913,-0.42144 -1.15468,-0.0955 -1.51895,1.29366 -2.9676,2.68801 -4.61346,3.81752 -2.84199,2.03159 -5.76767,3.94534 -8.82695,5.63536 -0.63273,0.29437 -1.28404,0.72577 -2.00671,0.66748 -0.85867,-0.36466 -1.33832,-1.2335 -1.86548,-1.95569 -0.63544,-1.01988 -1.34379,-2.07619 -1.3501,-3.32068 -0.0424,-1.15001 0.92202,-1.99234 1.87463,-2.45434 1.63554,-0.79444 3.41086,-1.27654 5.00266,-2.16923 0.41968,-0.24245 1.09872,-0.57065 0.9064,-1.17196 -0.56776,-1.73052 -1.43729,-3.34469 -2.22472,-4.98227 -0.99029,-1.94249 -1.97872,-3.89083 -3.09059,-5.76663 -0.19252,-0.38011 -0.69459,-0.43999 -1.00549,-0.17004 -1.92046,1.25251 -3.61658,2.86091 -5.6875,3.87548 -0.68741,0.32278 -1.43131,0.54802 -2.18262,0.4751 -0.91441,0.0196 -1.51101,-0.8841 -1.62904,-1.70484 -0.19752,-0.85929 -0.20523,-1.85742 0.43153,-2.54552 0.88829,-1.04829 2.0984,-1.71794 3.30518,-2.39234 2.63944,-1.34703 5.41104,-2.41182 8.1178,-3.61294 0.82879,-0.39487 1.72796,-0.67666 2.49267,-1.18882 0.35844,-0.37957 -0.13222,-0.77839 -0.38671,-1.04102 -2.59742,-2.59914 -5.24305,-5.15293 -7.96546,-7.62109 -0.17604,-0.14665 -0.35875,-0.33986 -0.61328,-0.28344 z"
     id="path18"
     transform="scale(0.75)" />
  <path
     style="fill:#df81b3;fill-opacity:1;stroke-width:0.0883883"
     d="m 405.26713,575.80399 c -2.53522,0.50894 -5.02835,1.23294 -7.54218,1.84445 -6.74517,1.72981 -13.58738,3.4966 -20.24473,5.31363 -0.53701,0.38666 -0.0408,1.10834 0.0733,1.59459 0.74705,1.92915 1.70696,3.77498 2.27299,5.7734 3.94821,12.62935 6.49017,25.62301 9.82595,38.41734 0.0597,0.47031 0.33654,0.96582 0.87802,0.92169 2.20448,0.0263 4.32314,-0.73048 6.41341,-1.3435 2.14715,-0.73258 4.34429,-1.43344 6.29276,-2.61844 0.44444,-0.22548 0.7074,-0.73655 0.44149,-1.19953 -1.34723,-3.50237 -2.71345,-7.08795 -2.93812,-10.87221 0.003,-1.16762 -0.10603,-2.51496 0.65135,-3.49186 0.764,-0.73412 1.91578,-0.17172 2.63404,0.36564 3.05838,2.40256 4.70291,6.03301 6.94211,9.13594 1.05023,1.37839 2.07847,2.85055 3.51948,3.84955 0.69496,0.43001 1.47821,-0.13852 2.19262,-0.23823 3.79257,-1.10478 7.64629,-1.9914 11.44577,-3.06494 0.55866,-0.43168 -0.17467,-0.97006 -0.40241,-1.36604 -3.07607,-4.11346 -6.4455,-8.03038 -9.26506,-12.31775 -0.73199,-1.22757 -1.5407,-2.5653 -1.38896,-4.05533 -0.0831,-1.40689 0.88174,-2.56263 1.46871,-3.76221 0.79365,-1.37227 1.50702,-2.88482 1.39488,-4.51263 -0.14103,-2.58312 -1.00205,-5.05781 -1.73997,-7.51681 -0.70158,-2.25099 -1.80816,-4.47638 -3.73048,-5.92786 -2.43296,-1.87194 -5.20494,-3.24859 -7.96561,-4.56435 -0.39363,-0.15897 -0.7939,-0.37346 -1.22933,-0.36454 z m -6.08498,13.50115 c 2.02873,-0.0868 4.24038,0.68107 5.37788,2.44535 0.61677,0.96869 0.65873,2.25309 0.28691,3.3118 -0.79668,1.96351 -2.80743,3.02288 -4.69442,3.7023 -0.96078,0.29431 -1.99048,0.86347 -3.00848,0.52688 -0.87103,-0.59372 -1.00116,-1.75353 -1.26216,-2.69729 -0.35094,-1.95821 -0.91923,-3.95011 -0.6596,-5.95407 0.2,-0.90987 1.31057,-1.01425 2.06073,-1.18012 0.62758,-0.10229 1.26345,-0.15091 1.89914,-0.15485 z"
     id="path19"
     transform="scale(0.75)" />
  <path
     style="fill:#df81b3;fill-opacity:1;stroke-width:0.0883883"
     d="m 315.15349,586.37382 c -0.30155,0.57803 -0.0712,1.294 -0.13111,1.93036 0.15753,10.29424 0.61426,20.60576 0.3103,30.89072 -0.1517,3.14072 -0.23822,6.29396 -0.77301,9.40458 -0.36074,1.96644 -0.90603,3.90117 -1.22246,5.87279 0.17487,0.66665 1.0533,0.40909 1.5568,0.49074 4.71461,0.0422 9.42962,0.0117 14.14439,0.0211 0.68052,-0.14959 0.26359,-0.94704 0.29685,-1.4232 -0.26418,-3.41036 -0.61499,-6.82221 -0.87166,-10.2246 -0.0196,-1.14008 -0.14952,-2.31754 0.0383,-3.45556 0.23836,-0.84524 1.23349,-0.79465 1.93505,-0.84521 1.15266,0.0184 2.57186,-0.10869 3.37568,0.89614 1.21871,1.55047 1.61001,3.55226 2.21028,5.38164 0.93839,3.11817 1.76315,6.29791 2.72093,9.40696 0.3611,0.4391 1.06714,0.12377 1.57051,0.21914 3.96238,-0.0339 7.92822,0.0678 11.88841,-0.077 0.72017,-0.10668 1.72582,-0.21108 2.02205,-0.99541 0.0461,-0.7638 -0.64767,-1.33398 -0.89407,-2.01757 -1.9215,-3.60976 -3.27659,-7.47503 -4.607,-11.33041 -0.53689,-1.58712 -1.15539,-3.15276 -1.60176,-4.76956 1.46031,-1.78971 3.0074,-3.51882 4.33655,-5.40964 1.76325,-2.70466 2.56455,-5.9831 2.34896,-9.19797 -0.25144,-3.87536 -2.06021,-7.54786 -4.67222,-10.38199 -1.28901,-1.47173 -2.56289,-2.97634 -3.90457,-4.38925 -0.67613,-0.21917 -1.45204,-0.0296 -2.16595,-0.093 -9.21696,0 -18.43392,0 -27.65088,0 -0.0868,0.0321 -0.17356,0.0641 -0.26033,0.0962 z m 17.37936,11.27487 c 1.83912,-0.0422 3.70095,0.47811 5.10201,1.72478 0.73588,0.74684 1.28879,1.66688 1.54351,2.68531 0.11794,0.77913 -0.18963,1.54862 -0.78008,2.063 -1.62397,1.72721 -3.83901,3.20419 -6.30411,3.07786 -1.87839,-0.0466 -3.42921,-1.63295 -3.7363,-3.43576 -0.30566,-1.60744 -0.0421,-3.33882 0.7147,-4.78574 0.75438,-1.12829 2.22024,-1.35151 3.46027,-1.32945 z"
     id="path20"
     transform="scale(0.75)" />
  <path
     style="fill:#df81b3;fill-opacity:1;stroke-width:0.0883883"
     d="m 260.54054,576.16376 c -3.04334,-0.0337 -5.93139,1.19652 -8.44558,2.82497 -1.69296,0.9999 -3.2071,2.38937 -4.01424,4.21319 -1.4983,3.1367 -2.17772,6.57574 -3.08291,9.91121 -1.49825,5.94272 -2.93915,11.89971 -4.40525,17.85043 0.14467,0.78001 0.7129,1.42962 1.02098,2.15932 1.21566,2.24234 2.31056,4.55921 3.68363,6.71111 1.33089,2.02359 3.64219,3.07569 5.90866,3.67399 4.51124,1.17139 9.05549,2.23134 13.63466,3.10218 1.37547,0.17293 2.78967,0.19392 4.16158,-0.007 2.17819,-0.64285 4.12775,-1.86666 6.08598,-2.98605 1.18196,-0.77338 2.50193,-1.43107 3.44469,-2.50476 0.65417,-1.33167 0.94094,-2.8159 1.39937,-4.22245 2.32235,-8.12859 4.40533,-16.32265 6.53832,-24.50221 -0.18667,-0.88561 -0.76692,-1.65988 -1.10836,-2.5017 -1.20548,-2.35825 -2.19874,-4.85989 -3.78442,-6.99953 -1.73184,-2.20997 -4.55269,-3.03927 -7.13158,-3.80611 -4.23861,-1.19591 -8.47855,-2.62219 -12.90485,-2.89609 -0.33324,-0.0169 -0.66703,-0.0231 -1.00068,-0.0201 z m 4.85773,12.24196 c 1.4551,-0.0618 2.7604,0.77644 3.87247,1.62325 0.94863,0.82175 1.91143,1.87364 2.05473,3.17182 -0.13314,1.10626 -0.63619,2.13118 -0.83976,3.23164 -1.16433,4.42355 -1.77841,9.03606 -3.68548,13.23068 -0.83042,1.74181 -2.01707,3.65443 -4.03859,4.10212 -2.08429,0.36886 -4.25222,-0.6781 -5.55017,-2.29309 -0.82291,-0.9909 -0.95707,-2.33387 -0.77547,-3.56695 0.50758,-4.26155 1.62986,-8.41006 2.92959,-12.49124 0.62182,-1.7405 1.14456,-3.55491 2.1322,-5.13153 0.91068,-1.15966 2.44652,-1.81531 3.90048,-1.8767 z"
     id="path21"
     transform="scale(0.75)" />
  <path
     style="fill:#df81b3;fill-opacity:1;stroke-width:0.0883883"
     d="m 200.67418,549.0969 c -0.60932,0.15033 -0.95818,0.79226 -1.43812,1.16244 -2.78148,2.77173 -5.54916,5.56022 -8.24196,8.41803 -0.4672,0.34728 -0.49047,1.26347 0.17367,1.38642 3.1722,0.66558 6.51599,0.86702 9.51168,2.13566 0.33949,0.20254 0.8496,0.33638 1.01844,0.71728 -0.14314,1.52655 -0.85315,2.89382 -1.40247,4.29788 -2.68025,6.03018 -5.76683,11.8654 -9.1261,17.54681 -1.63805,2.73139 -3.35854,5.43619 -5.52664,7.78456 -0.61619,0.79773 -1.42882,1.54475 -1.69306,2.54514 0.0423,0.77042 0.96932,0.99824 1.50412,1.36805 4.20607,2.20544 8.47706,4.29543 12.82808,6.20003 0.51621,0.2495 1.37087,0.58491 1.68007,-0.13154 0.52499,-1.20203 0.27982,-2.58393 0.8177,-3.78992 1.81628,-4.85825 4.26097,-9.45489 6.65861,-14.03997 2.69836,-5.06932 5.52575,-10.06562 8.38077,-15.04937 2.44775,2.05421 4.73318,4.30506 7.27995,6.23863 0.69046,0.4371 1.62318,1.08116 2.42792,0.5469 1.08159,-0.83687 1.14419,-2.3397 1.36432,-3.57973 0.3555,-3.07035 0.59595,-6.15709 0.73594,-9.24418 -0.15829,-0.56708 -0.89551,-0.66281 -1.31903,-0.99229 -8.21717,-4.48091 -16.46865,-8.90086 -24.76089,-13.24099 -0.27761,-0.12354 -0.5619,-0.27768 -0.873,-0.27984 z"
     id="path22"
     transform="scale(0.75)" />
  <path
     style="fill:#df81b3;fill-opacity:1;stroke-width:0.25"
     d="m 53.779785,365.03613 c -1.389214,-0.0615 -2.071587,1.40512 -1.804199,2.62354 0.622856,9.31807 2.587372,18.48994 4.401635,27.63368 10.356185,49.54377 34.831784,95.97681 69.621549,132.71565 8.5273,8.85693 17.25622,17.57526 26.77229,25.37692 1.43844,0.94901 2.93722,2.57079 4.7929,2.3631 1.21019,-0.81228 -0.418,-2.05961 -0.94054,-2.78479 -14.0348,-15.15185 -29.69151,-28.81395 -42.46073,-45.10616 C 92.699767,481.44945 76.57448,450.77061 66.374087,418.34918 62.273896,404.62289 59.167604,390.57622 56.91424,376.4447 c -0.649978,-3.36983 -0.352898,-6.86133 -1.230158,-10.18201 -0.288961,-0.77875 -1.083757,-1.2644 -1.904297,-1.22656 z"
     id="path23"
     transform="scale(0.75)" />
  <path
     style="fill:#df81b3;fill-opacity:1;stroke-width:0.0625"
     d="m 69.95105,316.92004 c -1.809106,-0.0299 -3.571989,0.64452 -5.08252,1.60266 -1.686247,1.08346 -2.864033,2.76011 -3.943965,4.41029 -1.573513,2.45957 -2.370954,5.35518 -2.497856,8.25944 -0.125746,3.70073 0.01866,7.42633 0.631271,11.08241 0.326578,2.01162 1.106035,3.97947 2.474246,5.51337 1.34633,1.52151 2.89586,2.86661 4.563843,4.02429 1.550416,1.03938 3.39383,1.8949 5.3068,1.6225 2.295798,-0.29729 4.18025,-1.83274 5.764733,-3.4173 3.268855,-3.23419 4.929567,-7.77151 5.425555,-12.2744 0.220244,-2.02325 0.173288,-4.07335 -0.03542,-6.09535 -0.545309,-4.21032 -2.048994,-8.43118 -4.945557,-11.60608 -1.634039,-1.74627 -3.916345,-2.9041 -6.304369,-3.10851 -0.451909,-0.0202 -0.904551,-0.0143 -1.356763,-0.0133 z m 0.07605,4.85755 c 0.844023,0.0858 1.512107,0.74286 2.025101,1.37257 1.037475,1.29439 1.46336,2.99276 1.655791,4.62996 0.47632,3.9479 0.395199,7.91697 0.116349,11.88309 -0.211633,2.3918 -0.428093,4.7936 -1.138915,7.11535 -0.219032,0.80772 -0.816228,1.57126 -1.639283,1.80591 -0.892488,0.19944 -1.665773,-0.45892 -2.279541,-1.01733 -0.896934,-0.85718 -1.071884,-2.16393 -1.292837,-3.32384 -0.556447,-3.75728 -0.38638,-7.58348 -0.377829,-11.38449 0.02507,-2.82193 0.194999,-5.66438 0.556532,-8.46931 0.111932,-1.0533 0.711857,-2.15218 1.728758,-2.56113 0.208345,-0.0646 0.43072,-0.0487 0.645874,-0.0508 z"
     id="path24"
     transform="scale(0.75)" />
  <path
     style="fill:#df81b3;fill-opacity:1;stroke-width:0.0625"
     d="m 43.430908,316.28906 c -2.922616,0.10114 -5.813532,1.07066 -8.229004,2.71448 -0.933934,0.68868 -1.955151,1.52404 -2.179321,2.7262 -0.06215,0.67773 -0.143795,1.49755 0.358398,2.03295 0.593555,0.38017 1.249796,-0.14313 1.69887,-0.51682 1.224377,-1.06331 2.933517,-1.33226 4.50572,-1.31057 1.093635,0.0226 2.421865,0.2346 3.025146,1.28943 0.53959,0.99566 0.6124,2.16644 0.729424,3.27186 0.04457,1.39206 0.114721,2.84425 -0.421362,4.17342 -0.937681,2.4817 -2.655542,4.55832 -4.275658,6.62107 -3.037528,3.71242 -6.099184,7.42428 -8.735739,11.43825 -0.35355,0.62859 -0.857378,1.23852 -0.933383,1.97697 0.06746,0.60185 0.782627,0.73795 1.260864,0.89551 2.114121,0.51782 4.307644,0.56672 6.470891,0.69233 3.58907,0.0912 7.180703,0.0404 10.770805,0.0655 1.740359,-0.01 3.488845,0.0321 5.224139,-0.0101 0.537485,-0.14501 0.290624,-0.83124 0.367371,-1.2433 0.04703,-2.13004 0.159282,-4.26886 -0.0097,-6.39529 -0.110172,-0.5353 -0.258215,-1.35383 -0.947021,-1.37915 -0.664617,-0.0222 -1.100025,0.5982 -1.704712,0.78393 -1.542132,0.58054 -3.145578,0.78954 -4.757969,1.0625 -2.245633,0.32038 -4.59099,0.56884 -6.815151,0.49243 -0.345708,-0.0251 -0.73387,-0.0361 -1.044312,-0.14331 1.268063,-1.72193 2.769862,-3.25714 4.191701,-4.85083 2.651381,-2.94735 5.492119,-5.72379 7.998953,-8.80054 1.453611,-1.84557 2.97147,-3.81513 3.412252,-6.1809 0.392868,-1.90536 -0.539036,-3.78959 -1.705031,-5.23987 -1.350006,-1.69702 -3.1927,-3.00131 -5.222948,-3.75342 -0.975704,-0.31878 -2.009835,-0.43259 -3.033203,-0.41272 z"
     id="path25"
     transform="scale(0.75)" />
  <path
     style="fill:#df81b3;fill-opacity:1;stroke-width:0.25"
     d="m 110.18262,165.97559 c -2.08682,0.59747 -3.29671,2.7244 -4.71645,4.22502 -8.18624,10.55536 -14.972353,22.12292 -21.400818,33.80816 -11.427753,21.34398 -20.725753,43.96317 -25.949141,67.65773 -2.262647,10.41783 -4.436894,20.88117 -5.766602,31.46436 0.0059,1.51807 -0.605435,3.41917 0.416504,4.71289 1.220635,0.60915 2.502615,-0.41733 2.639436,-1.68135 1.759771,-6.18292 2.084019,-12.67814 3.324622,-18.96041 4.701388,-26.55645 14.08812,-52.16804 26.296684,-76.1849 5.72909,-11.38556 12.552425,-22.16577 19.698935,-32.7043 2.26125,-3.53818 4.79691,-6.93429 6.87284,-10.57402 0.27565,-0.91647 -0.46811,-1.8164 -1.41601,-1.76318 z"
     id="path26"
     transform="scale(0.75)" />
  <path
     style="fill:#df81b3;fill-opacity:1;stroke-width:0.0625"
     d="m 129.81897,113.05908 c -1.12235,0.11302 -2.04606,0.86084 -2.95827,1.45921 -2.34301,1.72634 -4.51848,3.66729 -6.71434,5.57387 -0.82599,0.79729 -1.82819,1.529 -2.25842,2.6322 -0.25962,0.69869 0.30832,1.33601 0.87414,1.66309 1.7816,0.99163 3.18475,2.50453 4.66569,3.87753 6.22706,6.06139 12.24111,12.33533 18.11556,18.73648 2.3854,2.64281 4.83158,5.27105 6.89393,8.17469 0.41053,0.52468 1.00505,1.04132 1.72302,0.91577 1.18001,-0.15951 2.09763,-1.01929 3.01295,-1.70791 3.26439,-2.71339 6.29549,-5.69132 9.44376,-8.53575 2.36601,-2.18496 4.75995,-4.34102 7.09688,-6.55663 0.23321,-0.47394 -0.23789,-0.92286 -0.35539,-1.3749 -1.62493,-3.69317 -3.19434,-7.41192 -4.88436,-11.07579 -0.13078,-0.3895 -0.56305,-0.83447 -0.9762,-0.50158 -0.76288,0.79616 -1.31208,1.77483 -1.96936,2.65736 -1.58429,2.2013 -2.97846,4.56221 -4.85107,6.53978 -0.8292,0.88018 -2.00518,1.67049 -3.27307,1.40771 -1.54601,-0.33167 -2.78756,-1.37661 -3.97815,-2.3291 -1.84031,-1.57429 -3.49931,-3.3427 -5.22769,-5.04165 -3.63031,-3.62492 -7.07739,-7.42976 -10.42918,-11.31223 -0.90138,-1.10586 -1.89284,-2.16092 -2.6217,-3.39246 -0.16538,-0.69762 -0.25225,-1.79113 -1.20361,-1.80761 -0.0416,-0.002 -0.0834,-0.003 -0.12512,-0.002 z"
     id="path27"
     transform="scale(0.75)" />
  <path
     style="fill:#df81b3;fill-opacity:1;stroke-width:0.0883883"
     d="m 189.7772,69.24502 c -1.50438,0.201408 -2.8063,1.089761 -4.13798,1.757811 -3.75218,2.138127 -7.50581,4.294356 -11.05627,6.758156 -1.14171,0.886754 -2.49108,1.714154 -3.1118,3.076545 -0.34112,0.892546 0.53022,1.609243 0.77133,2.405647 1.65542,4.05549 2.8994,8.255843 4.23331,12.423914 2.38045,7.782357 4.6862,15.589807 6.56744,23.505377 0.39877,1.53785 0.56107,3.11787 0.73738,4.69102 0.0729,0.86712 0.78278,1.67233 1.69785,1.60532 1.64424,-0.14427 3.08376,-1.0788 4.52126,-1.8114 2.18973,-1.27158 4.41318,-2.56671 6.26522,-4.31156 0.66334,-0.58924 0.77212,-1.58474 0.33004,-2.33721 -0.80255,-1.66323 -2.19617,-3.01927 -2.64609,-4.83278 -0.1999,-0.9197 0.0539,-1.91179 0.75786,-2.55687 1.50048,-1.57158 3.47595,-2.5644 5.30262,-3.69729 1.27726,-0.68409 2.68186,-1.61911 4.1993,-1.27318 1.29375,0.5051 1.90867,1.90015 2.54958,3.03022 0.76855,1.34742 1.34804,2.81415 2.24428,4.08228 0.52371,0.52673 1.20314,-0.12162 1.70399,-0.35316 3.6929,-2.22282 7.37933,-4.46193 10.9882,-6.81924 0.36305,-0.21622 0.94187,-0.65052 0.52446,-1.09933 -2.86552,-3.06242 -5.92279,-5.941019 -8.89117,-8.903353 -5.7357,-5.686943 -11.58005,-11.281192 -17.1031,-17.170542 -1.7337,-1.951373 -3.58103,-3.801763 -5.02106,-5.99105 -0.34974,-0.65454 -0.0712,-1.712325 -0.88458,-2.080752 -0.16851,-0.07932 -0.35721,-0.105506 -0.54207,-0.09857 z m -3.92344,16.324741 c 2.95775,2.710938 5.70705,5.676238 8.23346,8.779421 0.47814,0.646427 1.06987,1.29674 1.37308,2.022256 -1.31194,0.827822 -2.67253,1.550361 -4.08796,2.156883 -0.58755,0.253019 -1.27017,-0.003 -1.51244,-0.604217 -0.87863,-1.639164 -1.33297,-3.520451 -1.96103,-5.295004 -0.74304,-2.347131 -1.50652,-4.691963 -2.07981,-7.087824 z"
     id="path28"
     transform="scale(0.75)" />
  <path
     style="fill:#df81b3;fill-opacity:1;stroke-width:0.0883883"
     d="m 293.37715,34.566577 c -2.8335,0.14624 -5.59353,0.892615 -8.35045,1.512096 -1.95053,0.493648 -3.99062,1.202881 -5.39825,2.707411 -0.77879,0.946431 -0.76247,2.25487 -1.08259,3.386724 -1.0342,5.16563 -2.03714,10.341435 -2.81617,15.552379 -3.13266,-4.314346 -5.66685,-9.039419 -8.9767,-13.230294 -1.00747,-1.235976 -1.97619,-2.587177 -3.3339,-3.453837 -0.99314,-0.105462 -2.01412,0.150261 -3.00541,0.284195 -3.1893,0.58839 -6.38344,1.199168 -9.50955,2.068767 -0.87322,0.326146 -2.08201,0.607209 -2.32813,1.652274 -0.0948,1.075491 0.62385,1.997615 0.82757,3.025099 1.60642,5.840306 2.83516,11.86155 4.0781,17.824668 1.18708,5.960034 2.40144,11.921664 3.24666,17.941673 0.23657,1.482958 0.14866,3.00967 0.45949,4.477246 0.32569,0.951897 1.41314,1.200989 2.30652,1.111765 2.65727,-0.183206 5.29554,-0.6451 7.88853,-1.246764 1.03167,-0.321617 2.325,-0.540972 2.91646,-1.553184 0.46456,-1.013016 -0.37123,-1.990071 -0.67482,-2.91975 -1.16427,-3.097242 -1.87583,-6.349485 -2.67563,-9.560122 -0.84561,-3.735871 -1.74862,-7.47998 -2.2008,-11.281445 -0.11876,-0.526811 0.14919,-0.169672 0.34307,0.07553 3.05583,3.743643 5.66013,7.848313 8.3739,11.850306 2.21627,3.27575 4.31732,6.630536 6.57668,9.876092 0.25271,0.508443 1.19282,0.682747 1.38539,0.05403 1.0195,-5.988131 1.98707,-11.992001 3.1169,-17.955091 0.57443,-2.666159 1.05589,-5.372945 2.03172,-7.93458 0.99535,2.437199 1.45145,5.052679 2.01087,7.608975 0.95554,4.633531 1.63402,9.308055 1.80856,14.039877 -0.0258,0.966966 0.46628,2.090274 1.51702,2.265202 1.67795,0.261919 3.35272,-0.273977 4.98844,-0.585078 2.48287,-0.617339 5.02704,-1.092702 7.39701,-2.081098 0.74904,-0.275887 1.44329,-1.065701 1.08289,-1.898944 -0.53875,-1.451092 -1.35773,-2.777716 -1.73462,-4.282692 -1.76667,-6.310351 -3.11527,-12.730959 -4.44597,-19.146435 -1.03551,-5.262423 -2.12764,-10.554816 -2.76429,-15.872247 -0.14982,-1.254789 0.10596,-2.77439 -0.89005,-3.745996 -0.58915,-0.514455 -1.42224,-0.573175 -2.16845,-0.566755 z"
     id="path29"
     transform="scale(0.75)" />
  <path
     style="fill:#df81b3;fill-opacity:1;stroke-width:0.0883883"
     d="m 335.74987,33.040669 c -0.31224,0.593184 -0.0619,1.33208 -0.14333,1.984421 -0.0384,6.534639 -0.0828,13.072618 -0.31436,19.600734 -0.20582,5.466072 -0.62389,10.913521 -1.09938,16.362794 -0.11242,2.35451 -0.38959,4.768532 0.15649,7.089712 0.16274,0.808666 0.85522,1.42028 1.6805,1.471091 3.17528,0.509725 6.39986,0.666967 9.61128,0.74677 5.49323,0.02188 10.98652,0.0068 16.47977,0.0069 0.5947,-0.161415 0.53108,-0.96481 0.80759,-1.41914 1.26039,-3.404567 2.51174,-6.816294 3.66984,-10.255718 -0.0757,-0.704627 -0.92394,-0.356295 -1.39378,-0.390486 -5.62088,0.319821 -11.2451,0.675596 -16.86342,0.970534 0.0424,-2.857295 -0.10421,-5.751974 0.222,-8.567799 0.0156,-0.46341 0.62558,0.02254 0.91164,-0.0019 2.03649,0.495646 4.03478,1.192724 6.11334,1.491764 0.96995,0.146822 1.77191,-0.626409 2.04346,-1.49656 0.58605,-1.916543 0.93316,-3.904081 1.25003,-5.881035 0.0815,-1.194204 0.24678,-2.440088 -0.0678,-3.6107 -0.53885,-1.342752 -2.15957,-1.633188 -3.44509,-1.613898 -1.7713,-0.105597 -3.55869,0.111581 -5.3057,-0.236215 -0.87101,-0.184915 -1.08585,-1.15048 -1.00593,-1.908809 -0.046,-0.783773 0.16457,-1.704117 0.95673,-2.044843 1.53029,-0.652753 3.24211,-0.673742 4.87958,-0.764857 3.0234,-0.06966 6.09987,0.208227 8.93369,1.331267 0.79213,0.211139 1.56582,0.689796 2.4003,0.654626 0.60957,-0.251632 0.14751,-0.985855 0.10976,-1.442183 -0.61438,-2.513645 -1.1279,-5.05776 -1.86113,-7.539246 -0.48569,-1.352999 -1.33301,-2.712108 -2.75449,-3.213694 -2.36383,-0.869055 -4.92739,-0.886806 -7.40797,-1.112252 -5.83563,-0.35204 -11.68645,-0.218842 -17.5292,-0.300995 -0.34619,0.02295 -0.71309,-0.07584 -1.03438,0.08979 z"
     id="path30"
     transform="scale(0.75)" />
  <path
     style="fill:#df81b3;fill-opacity:1;stroke-width:0.0883883"
     d="m 403.74105,41.394404 c -1.39623,-0.01631 -2.84779,0.504236 -3.68947,1.66799 -1.6973,2.155705 -3.22388,4.445681 -4.68947,6.763775 -0.30828,0.632653 -0.92187,1.317562 -0.69813,2.064523 0.40625,0.629882 1.26962,0.236697 1.83786,0.09926 1.28912,-0.390349 2.68221,-0.172859 3.99087,-0.101954 3.11116,0.346202 6.2505,0.950988 9.18365,2.050814 0.43795,0.189478 0.90059,0.366687 1.25799,0.692778 -1.15247,1.425674 -2.56966,2.641083 -3.90384,3.880509 -5.0901,4.535723 -10.61269,8.540975 -15.85148,12.902401 -1.56292,1.403107 -3.36514,2.750717 -4.20311,4.744313 -0.39806,1.13786 -0.21202,2.388898 -0.0611,3.557459 0.40171,1.839078 0.75588,3.713692 1.39123,5.481735 0.53275,0.48633 1.33211,0.600094 1.99809,0.866516 7.2246,2.25519 14.55551,4.147781 21.83496,6.21457 1.20094,0.305438 2.38865,0.709699 3.59974,0.950794 0.55595,-0.109829 0.75631,-0.795786 1.12136,-1.172178 1.91112,-2.750145 3.86775,-5.488553 5.45548,-8.442521 0.34194,-0.661394 0.76557,-1.712722 -0.003,-2.248885 -0.8026,-0.455899 -1.79032,-0.283185 -2.67428,-0.395202 -4.25741,-0.116013 -8.43201,-1.096061 -12.5211,-2.311347 -0.91785,-0.324905 -1.90052,-0.582038 -2.68928,-1.174943 1.84624,-1.945776 3.98221,-3.591886 6.02087,-5.328334 4.69188,-3.928525 9.61215,-7.580278 14.21672,-11.612877 1.56365,-1.465274 3.28844,-2.88961 4.28223,-4.827872 0.60271,-1.160055 -0.0466,-2.4263 -0.22605,-3.607064 -0.27435,-0.96158 -0.21166,-2.016062 -0.629,-2.930912 -0.60243,-0.773709 -1.58389,-1.126031 -2.41493,-1.599819 -3.66371,-1.697657 -7.59735,-2.696401 -11.44982,-3.862557 -3.17659,-0.870772 -6.33729,-1.917142 -9.62324,-2.286451 -0.28717,-0.02381 -0.57533,-0.0372 -0.86352,-0.03453 z"
     id="path31"
     transform="scale(0.75)" />
  <path
     style="fill:#df81b3;fill-opacity:1;stroke-width:0.0883883"
     d="m 463.7652,62.402001 c -0.88491,0.215888 -1.4595,1.036598 -2.14244,1.584608 -2.09544,2.025567 -4.29569,3.990889 -6.0069,6.365854 -0.37394,0.491002 -0.80057,1.439836 -0.0779,1.830088 0.87634,0.257388 1.81929,0.248039 2.68445,0.577632 3.35734,1.084726 6.57547,2.574143 9.67938,4.260077 0.81704,0.485959 1.6834,0.935893 2.3568,1.618611 -1.71423,1.27014 -3.68611,2.141765 -5.56337,3.139509 -7.74477,3.87624 -15.64449,7.437642 -23.49758,11.09654 -0.46317,0.412829 -0.12856,1.141692 -0.22601,1.690414 0.0339,3.032802 -0.0142,6.080656 0.0708,9.104086 0.25849,0.51584 0.98842,0.59177 1.43802,0.92404 7.90605,4.10155 15.77821,8.27075 23.73821,12.2667 0.59913,0.24889 0.96544,-0.50934 1.39512,-0.79214 2.83892,-2.70192 5.68012,-5.40862 8.37163,-8.25806 0.31807,-0.32336 0.1485,-0.9964 -0.3596,-0.97417 -2.78961,-0.74478 -5.66497,-1.47818 -8.27976,-2.74578 -2.67428,-1.26704 -5.369,-2.62982 -7.67951,-4.511387 -0.1944,-0.206715 -0.55924,-0.445212 -0.57815,-0.704862 2.26443,-1.529338 4.74826,-2.69192 7.16056,-3.955561 5.5181,-2.845117 11.24847,-5.264938 16.76443,-8.119856 1.74331,-0.981441 3.71072,-1.908352 4.78875,-3.678931 0.75044,-1.492613 0.50942,-3.234767 0.46322,-4.843935 -0.0345,-1.66077 -1.1397,-3.061099 -2.43878,-3.99041 -2.95606,-2.155654 -6.22972,-3.823264 -9.42465,-5.588779 -4.02794,-2.125575 -8.0428,-4.289419 -12.18494,-6.186047 -0.14431,-0.05527 -0.29327,-0.122349 -0.45178,-0.108241 z"
     id="path32"
     transform="scale(0.75)" />
  <path
     style="fill:#df81b3;fill-opacity:1;stroke-width:0.0883883"
     d="m 523.54956,101.03082 c -0.87699,0.29328 -1.49513,1.07587 -2.13807,1.70596 -1.99983,2.04354 -4.41199,3.61801 -6.68093,5.33936 -7.80122,5.64237 -15.72705,11.11204 -23.83607,16.30173 -1.64299,1.07595 -3.37658,1.96406 -5.08244,2.92759 -0.59871,0.30718 -1.0807,1.05355 -0.68259,1.70079 0.92445,1.50386 2.3474,2.61578 3.60314,3.8307 1.90736,1.68345 3.7577,3.44775 5.79589,4.97257 0.59782,0.27499 1.03231,-0.45512 1.46213,-0.75022 1.55332,-1.36292 2.92011,-3.06177 4.88905,-3.84442 1.46609,-0.57647 3.19077,-0.34529 4.51351,0.52567 2.08786,1.24398 3.6126,3.18804 5.31189,4.87715 0.31473,0.3344 0.62236,0.66087 0.92138,1.00119 -1.87993,2.4243 -3.95795,4.6815 -5.86643,7.08125 -0.32831,0.32886 -0.35215,0.86757 0.0245,1.16925 2.25473,2.18082 4.6682,4.19423 7.04682,6.23828 1.44211,1.14485 2.80648,2.45697 4.48734,3.24707 0.61078,0.35741 1.42862,-8.4e-4 1.56389,-0.69658 0.20244,-0.78366 0.0723,-1.62222 0.41528,-2.37995 1.39669,-3.91892 3.27083,-7.64621 5.04534,-11.40298 3.55097,-7.26404 7.19219,-14.49068 11.24299,-21.49021 0.90925,-1.58104 1.89623,-3.15581 3.22684,-4.41616 0.50005,-0.59708 1.18187,-1.1003 1.48542,-1.83113 -0.0478,-0.58964 -0.72028,-0.86821 -1.06581,-1.29061 -4.63209,-4.16405 -9.30008,-8.30575 -14.27216,-12.06328 -0.44189,-0.26754 -0.87006,-0.73076 -1.41093,-0.75302 z m -0.35114,15.97792 c -0.95499,2.50198 -2.33391,4.80405 -3.66512,7.11898 -0.99566,1.59874 -1.91532,3.29428 -3.17548,4.71228 -0.27236,0.29 -0.63542,-0.18662 -0.9103,-0.2757 -1.17145,-0.79728 -2.3258,-1.61997 -3.17611,-2.76558 -0.46564,-0.71207 0.3268,-1.3762 0.79325,-1.83872 2.53815,-2.17511 5.31576,-4.03214 8.12413,-5.82817 0.65912,-0.40461 1.31819,-0.81297 2.01895,-1.1552 z"
     id="path33"
     transform="scale(0.75)" />
  <path
     style="fill:#df81b3;fill-opacity:1;stroke-width:0.176777"
     d="m 549.55904,165.50304 c -1.10998,0.13426 -0.82156,1.60485 -0.46123,2.30057 2.2414,4.73 5.35441,8.98304 8.1425,13.39691 8.82773,13.09703 16.44811,26.97683 23.14403,41.27473 5.98771,12.74995 11.14528,25.92412 14.72549,39.55774 3.26998,12.24633 6.25595,24.597 8.14881,37.13643 0.39292,2.22175 0.38195,4.47563 0.60779,6.72159 0.12906,1.26116 1.10827,2.66607 2.53598,2.34747 1.5991,-0.109 1.71428,-2.12107 1.51642,-3.33562 -1.02802,-6.91747 -2.33781,-13.78838 -3.49468,-20.6863 -5.57088,-30.74327 -16.86009,-60.36144 -32.42172,-87.41818 -5.51607,-9.34671 -11.31581,-18.55572 -17.86412,-27.21901 -1.28079,-1.47704 -2.43887,-3.34485 -4.34276,-4.05976 -0.078,-0.0137 -0.15734,-0.0205 -0.23651,-0.0166 z"
     id="path34"
     transform="scale(0.75)" />
  <path
     style="fill:#df81b3;fill-opacity:1;stroke-width:0.0883883"
     d="m 596.99285,316.98306 c -1.66631,0.0685 -3.35908,-0.0706 -5.00637,0.22753 -0.54938,0.054 -1.19136,0.46382 -0.99471,1.09657 0.22135,0.69793 0.81721,1.22099 0.9393,1.96733 0.65533,2.80678 0.75091,5.69774 0.9159,8.55812 0.21189,5.83045 0.19673,11.71404 -0.43581,17.50366 -0.22378,1.33365 -0.25465,2.80387 -1.04754,3.95089 -0.43961,0.42266 -0.62608,1.35398 0.0846,1.61275 1.48448,0.57501 3.11856,0.30262 4.67128,0.39836 1.97869,-0.005 3.9715,0.0535 5.94113,-0.0105 0.57374,-0.21172 0.20604,-0.98178 0.28198,-1.44304 -0.28312,-11.16755 -0.54923,-22.33854 -0.76926,-33.50566 -0.17011,-0.68652 -1.04951,-0.29485 -1.55312,-0.38788 -1.00912,0.0106 -2.01825,0.0213 -3.02737,0.0319 z"
     id="path35"
     transform="scale(0.75)" />
  <path
     style="fill:#df81b3;fill-opacity:1;stroke-width:0.0883883"
     d="m 626.99414,315.45594 c -1.21524,0.12832 -2.06365,1.17057 -2.87672,1.97867 -2.28216,2.56196 -4.10703,5.48726 -6.15457,8.22978 -3.17834,4.49192 -6.57707,8.83343 -9.54701,13.46944 -0.25892,0.54941 -0.9078,1.19315 -0.53517,1.82681 0.5508,0.51698 1.40915,0.41838 2.10735,0.54152 3.66574,0.27666 7.34596,0.18912 11.01884,0.20926 0.0617,2.87876 -0.0377,5.76638 0.16953,8.63927 0.17381,1.13429 1.25259,1.95302 2.3823,1.91633 1.49372,0.0259 3.02551,0.16996 4.49369,-0.16945 1.17979,-0.33835 1.51348,-1.69005 1.53184,-2.77075 0.17412,-2.11818 -0.0125,-4.2752 0.44119,-6.34999 0.15344,-0.56857 0.47216,-1.23567 1.15267,-1.24676 0.90799,-0.12533 2.09022,-0.3979 2.41549,-1.37986 0.33653,-0.92699 -0.58518,-1.72587 -1.41404,-1.90519 -0.55197,-0.1854 -1.32668,0.0119 -1.62828,-0.62113 -0.62386,-1.31035 -0.61713,-2.80087 -0.72748,-4.21664 -0.21989,-4.44949 -0.0446,-8.91652 -0.41328,-13.3608 -0.20368,-1.47772 -0.30281,-3.13953 -1.32376,-4.31836 -0.28504,-0.2926 -0.67997,-0.4801 -1.09259,-0.47215 z m -6.60134,13.21855 c 0.17845,2.51527 0.47796,5.0731 0.5022,7.5553 -0.0514,0.69491 -0.14908,1.78272 -1.03391,1.88033 -1.96264,0.11384 -3.95049,-0.13348 -5.90251,-0.39879 2.11304,-3.05976 4.24128,-6.10945 6.42663,-9.11815 z"
     id="path36"
     transform="scale(0.75)" />
  <path
     style="fill:#df81b3;fill-opacity:1;stroke-width:0.25"
     d="m 606.21289,365.23047 c -1.99573,0.37864 -1.99656,2.96255 -2.41654,4.53467 -1.29029,9.16071 -2.49766,18.32996 -4.62828,27.35519 -6.42205,28.38596 -18.01725,55.42026 -32.45781,80.62523 -8.26461,13.92882 -17.37646,27.46336 -28.38833,39.39768 -8.50399,9.38919 -17.42913,18.40432 -26.71134,27.02594 -3.17202,2.99671 -6.59899,5.79155 -9.36352,9.17945 -0.67446,0.8211 -0.0999,2.31549 1.09521,1.90039 3.20561,-1.04734 5.62435,-3.63693 8.21447,-5.68853 17.99703,-16.15307 34.74794,-33.8615 48.57508,-53.75336 22.98311,-32.74541 38.11844,-70.7308 45.20675,-110.04245 0.98879,-6.0551 2.27912,-12.10217 2.58036,-18.24076 0.0618,-1.06271 -0.3633,-2.48882 -1.70605,-2.29345 z"
     id="path37"
     transform="scale(0.75)" />
  <path
     style="fill:#df81b3;fill-opacity:1;stroke-width:0.707107"
     d="m 331.14971,14.197378 c -20.47944,-0.07026 -41.07934,0.708 -61.10072,5.396446 C 194.22581,34.568068 125.27324,78.990204 78.497958,140.27428 43.530181,185.70021 21.633747,240.95275 15.262182,297.86735 c -1.227066,22.65369 -0.993534,45.3947 -0.186445,68.06041 2.008099,24.93337 8.18595,49.42736 16.262946,73.0466 21.382445,60.79975 61.095927,115.20562 113.483387,152.93163 43.00288,31.08991 93.77541,51.59776 146.38163,58.70682 36.71617,4.1729 74.24139,3.75567 110.36913,-4.6116 58.38684,-12.44354 112.77729,-42.10224 155.22353,-84.0313 36.03532,-34.55678 63.6247,-77.79983 79.41154,-125.18662 9.62615,-28.63964 16.61919,-58.58971 16.03951,-88.97219 -0.0816,-23.69608 1.28459,-47.69755 -3.78946,-71.02556 C 635.92736,207.76539 600.29206,143.14227 548.09879,96.197882 498.88649,51.622853 435.49303,22.395107 369.33549,15.579192 356.64547,14.402578 343.88793,14.148118 331.14971,14.197378 Z m 3.66673,8.992134 c 26.04203,-0.380525 52.20051,2.08817 77.25426,9.458657 43.45708,11.671325 84.73916,32.381013 119.36207,61.2272 23.72532,21.276521 46.67235,43.990121 63.44705,71.326591 29.3607,46.89014 47.90153,101.35723 48.85696,156.92193 0.7067,29.54065 -1.31192,59.27937 -9.00693,87.90466 -23.97198,94.69474 -94.81656,176.7454 -186.14033,212.11601 -35.32432,13.73638 -73.00666,22.02477 -111.01231,21.53751 -25.60403,0.29747 -51.39174,-1.09244 -76.21431,-7.75809 C 213.00259,624.0148 167.07592,601.01672 129.62151,568.02771 109.28467,548.68627 89.149887,528.67659 74.122148,504.7696 46.816434,463.00819 29.022449,414.94886 24.309557,365.20408 17.78468,303.48033 30.460563,239.95958 60.239081,185.47329 98.611718,113.76852 166.53508,58.422582 244.63318,35.541838 c 25.93064,-7.794992 52.82966,-12.483877 79.95632,-12.283666 3.40872,-0.04986 6.81787,-0.06642 10.22694,-0.06866 z"
     id="path38"
     transform="scale(0.75)" />
</svg>
